<svg xmlns="http://www.w3.org/2000/svg" width="193.073" height="56.914" viewBox="0 0 193.073 56.914"><defs><style>.a,.b{fill:none;stroke-linecap:round;stroke-width:6px;}.a{stroke:#f08370;}.b{stroke:#94c9cc;}.c{fill:#f08370;}.d{fill:#516e7d;}.e{isolation:isolate;}</style></defs><g transform="translate(3 3)"><line class="a" y2="50.914" transform="translate(25.457)"/><line class="b" y1="36.002" x2="36.002" transform="translate(7.456 7.456)"/><line class="a" x2="36.002" y2="36.002" transform="translate(7.456 7.457)"/><line class="a" y1="36.002" x2="36.002" transform="translate(7.456 7.456)"/><line class="a" x2="50.914" transform="translate(0 25.457)"/><circle class="c" cx="21.47" cy="21.47" r="21.47" transform="translate(3.987 3.681)"/><path class="d" d="M50,39.751a1.227,1.227,0,0,1,0,2.059L36.92,50.288a1.227,1.227,0,0,1-1.894-1.031V32.3a1.227,1.227,0,0,1,1.894-1.031Z" transform="translate(-15.703 -15.323)"/><g class="e" transform="translate(64.67 12.916)"><g class="e"><path class="d" d="M116.339,50.242l-7.355-22.975-.034-.135c0-.157.1-.236.3-.236h1.822a.393.393,0,0,1,.4.27l6.141,19.77a.107.107,0,0,0,.1.068.108.108,0,0,0,.1-.068l6.14-19.77a.393.393,0,0,1,.4-.27h1.788q.371,0,.27.371L119,50.242a.393.393,0,0,1-.4.27h-1.856A.393.393,0,0,1,116.339,50.242Z" transform="translate(-108.95 -26.624)"/><path class="d" d="M145.8,50.174V27.232a.3.3,0,0,1,.338-.337h1.72a.3.3,0,0,1,.338.337V50.174a.3.3,0,0,1-.338.337h-1.72a.3.3,0,0,1-.338-.337Z" transform="translate(-123.194 -26.623)"/><path class="d" d="M174.613,50.274l-4.96-10.458a.133.133,0,0,0-.135-.1h-5.736a.119.119,0,0,0-.135.135V50.172a.3.3,0,0,1-.338.337h-1.72a.3.3,0,0,1-.338-.337V27.23a.3.3,0,0,1,.338-.337h8.738a6.31,6.31,0,0,1,4.689,1.8,6.4,6.4,0,0,1,1.788,4.707,6.353,6.353,0,0,1-1.282,4.015,5.778,5.778,0,0,1-3.475,2.125c-.09.046-.113.1-.067.169L177.042,50.1a.382.382,0,0,1,.034.169c0,.158-.09.236-.27.236h-1.788a.4.4,0,0,1-.4-.236ZM163.648,29.12v8.536a.119.119,0,0,0,.135.135h6.275a4.167,4.167,0,0,0,4.386-4.386,4.347,4.347,0,0,0-1.215-3.188,4.256,4.256,0,0,0-3.171-1.232h-6.275a.119.119,0,0,0-.135.135Z" transform="translate(-129.168 -26.621)"/><path class="d" d="M199.529,49.837a6.924,6.924,0,0,1-2.834-2.649,7.608,7.608,0,0,1-1.012-3.964V27.232a.3.3,0,0,1,.337-.337h1.721a.3.3,0,0,1,.337.337v16.06a5.176,5.176,0,0,0,1.552,3.9,6.3,6.3,0,0,0,8.164,0,5.178,5.178,0,0,0,1.552-3.9V27.232a.3.3,0,0,1,.337-.337h1.72a.3.3,0,0,1,.338.337V43.224a7.715,7.715,0,0,1-1,3.964,6.815,6.815,0,0,1-2.817,2.649,9.809,9.809,0,0,1-8.4,0Z" transform="translate(-142.478 -26.623)"/><path class="d" d="M234,49.751a6.955,6.955,0,0,1-3.12-2.463,6.437,6.437,0,0,1-1.1-3.728v-.742a.4.4,0,0,1,.4-.4h3.846a.4.4,0,0,1,.4.4v.506a2.757,2.757,0,0,0,1.248,2.278,5.532,5.532,0,0,0,3.374.928,3.994,3.994,0,0,0,2.666-.759A2.383,2.383,0,0,0,242.6,43.9a1.889,1.889,0,0,0-.54-1.366,4.775,4.775,0,0,0-1.468-.978q-.928-.421-2.952-1.164a28.87,28.87,0,0,1-3.829-1.585,7.693,7.693,0,0,1-2.632-2.21,5.553,5.553,0,0,1-1.063-3.458,6.091,6.091,0,0,1,1.046-3.543,6.663,6.663,0,0,1,2.9-2.328,10.627,10.627,0,0,1,4.285-.81,10.947,10.947,0,0,1,4.571.911,7.466,7.466,0,0,1,3.138,2.547,6.52,6.52,0,0,1,1.13,3.8v.506a.4.4,0,0,1-.4.4h-3.88a.4.4,0,0,1-.4-.4v-.27a3.066,3.066,0,0,0-1.164-2.412,4.75,4.75,0,0,0-3.188-1,4.035,4.035,0,0,0-2.48.675,2.2,2.2,0,0,0-.894,1.855,2.022,2.022,0,0,0,.523,1.417,4.588,4.588,0,0,0,1.552,1.029q1.029.456,3.189,1.232A39.822,39.822,0,0,1,243.8,38.3a7.5,7.5,0,0,1,2.463,2.007,5.27,5.27,0,0,1,1.1,3.458,6.041,6.041,0,0,1-2.328,5.01,9.907,9.907,0,0,1-6.309,1.839A12,12,0,0,1,234,49.751Z" transform="translate(-155.661 -26.453)"/><path class="d" d="M265.211,50.4a.389.389,0,0,1-.118-.287V27.3a.4.4,0,0,1,.4-.4h3.947a.4.4,0,0,1,.4.4V50.108a.4.4,0,0,1-.4.4H265.5a.388.388,0,0,1-.287-.118Z" transform="translate(-169.312 -26.624)"/><path class="d" d="M296.422,26.9h3.947a.4.4,0,0,1,.4.4V50.108a.4.4,0,0,1-.4.4h-3.947a.4.4,0,0,1-.4-.4V35.23c0-.09-.023-.135-.068-.135s-.09.034-.135.1l-3.576,5.6a.527.527,0,0,1-.472.27h-1.991a.528.528,0,0,1-.473-.27l-3.576-5.6q-.067-.1-.135-.084c-.046.011-.068.062-.068.152V50.108a.4.4,0,0,1-.4.4h-3.948a.4.4,0,0,1-.4-.4V27.3a.4.4,0,0,1,.4-.4h3.948a.528.528,0,0,1,.472.27l5.061,7.861c.068.135.135.135.2,0l5.094-7.861a.529.529,0,0,1,.473-.27Z" transform="translate(-175.371 -26.624)"/></g></g></g></svg>