<svg xmlns="http://www.w3.org/2000/svg" width="422.64937mm" height="328.59884mm" viewBox="0 0 1198.06121 931.46129">
  <title>alle_figuren_v2</title>
  <g id="f24d4db6-a307-4cf3-ab8f-f4a80ad5eed8" data-name="Ebene 1">
    <path d="M939.33936,373.416V266.72522a68.0315,68.0315,0,0,0-34.01575-58.917L812.9267,154.46283a68.03152,68.03152,0,0,0-68.03149,0L652.4983,207.80821a68.0315,68.0315,0,0,0-34.01575,58.917V373.416a68.0315,68.0315,0,0,0,34.01575,58.917l92.39691,53.34538a68.03152,68.03152,0,0,0,68.03149,0L905.32361,432.333A68.0315,68.0315,0,0,0,939.33936,373.416Z" style="fill: #d1e2a4;stroke: #a7cc6b;stroke-miterlimit: 10;stroke-width: 18px"/>
    <path d="M625.17213,373.416V266.72522a68.0315,68.0315,0,0,0-34.01575-58.917l-92.39691-53.34538a68.03153,68.03153,0,0,0-68.0315,0l-92.3969,53.34538a68.0315,68.0315,0,0,0-34.01575,58.917V373.416a68.0315,68.0315,0,0,0,34.01575,58.917l92.3969,53.34538a68.03153,68.03153,0,0,0,68.0315,0L591.15638,432.333A68.0315,68.0315,0,0,0,625.17213,373.416Z" style="fill: #d1e2a4;stroke: #a7cc6b;stroke-miterlimit: 10;stroke-width: 18px"/>
    <path d="M784.53232,655.71117V549.02041a68.03148,68.03148,0,0,0-34.01575-58.917L658.11966,436.758a68.03149,68.03149,0,0,0-68.0315,0l-92.3969,53.34538a68.03148,68.03148,0,0,0-34.01575,58.917V655.71117a68.03148,68.03148,0,0,0,34.01575,58.917l92.3969,53.34538a68.03149,68.03149,0,0,0,68.0315,0l92.39691-53.34538A68.03148,68.03148,0,0,0,784.53232,655.71117Z" style="fill: #d1e2a4;stroke: #a7cc6b;stroke-miterlimit: 10;stroke-width: 18px"/>
    <path d="M470.36508,655.71117V549.02041a68.03149,68.03149,0,0,0-34.01574-58.917L343.95243,436.758a68.03149,68.03149,0,0,0-68.0315,0L183.524,490.10341a68.03148,68.03148,0,0,0-34.01575,58.917V655.71117a68.03148,68.03148,0,0,0,34.01575,58.917l92.3969,53.34538a68.03149,68.03149,0,0,0,68.0315,0l92.39691-53.34538A68.03149,68.03149,0,0,0,470.36508,655.71117Z" style="fill: #d1e2a4;stroke: #a7cc6b;stroke-miterlimit: 10;stroke-width: 18px"/>
    <path d="M1103.2527,646.60487V539.91411a68.0315,68.0315,0,0,0-34.01575-58.917L976.84,427.65173a68.03147,68.03147,0,0,0-68.03149,0l-92.39691,53.34538a68.0315,68.0315,0,0,0-34.01575,58.917V646.60487a68.03148,68.03148,0,0,0,34.01575,58.917l92.39691,53.34538a68.03147,68.03147,0,0,0,68.03149,0l92.39691-53.34538A68.03148,68.03148,0,0,0,1103.2527,646.60487Z" style="fill: #d1e2a4;stroke: #a7cc6b;stroke-miterlimit: 10;stroke-width: 18px"/>
    <g>
      <g>
        <g>
          <path d="M813.0637,391.79179a5.553,5.553,0,0,1-3.31055-10.0127,1.50417,1.50417,0,0,1,.58985-.54785,52.6512,52.6512,0,0,0,16.40869-13.14843,1.50461,1.50461,0,0,1,.28174-.26172,5.55352,5.55352,0,0,1,9.49316,5.08691,5.52568,5.52568,0,0,1-1.667,2.77539,63.62479,63.62479,0,0,1-18.16406,14.75488,5.5393,5.5393,0,0,1-3.63135,1.35352Z" style="fill: #a7cc6b"/>
          <path d="M831.13786,367.50688a4.05411,4.05411,0,0,1,2.64825,7.1242,62.10065,62.10065,0,0,1-17.9599,14.5719,4.053,4.053,0,1,1-4.728-6.50964l-.0669-.12946a54.34169,54.34169,0,0,0,16.87393-13.52172l.03433.02856a4.06431,4.06431,0,0,1,3.19831-1.56384m0-3a7.1096,7.1096,0,0,0-5.13559,2.22015,2.84915,2.84915,0,0,0-.40317.3963A51.17145,51.17145,0,0,1,809.654,379.89872a2.9893,2.9893,0,0,0-1.0014.836,7.0527,7.0527,0,1,0,8.89432,10.94733,65.10839,65.10839,0,0,0,18.39511-14.955,7.0224,7.0224,0,0,0,2.0393-3.45294,7.05463,7.05463,0,0,0-6.84344-8.76727Z" style="fill: #516e7d"/>
        </g>
        <g>
          <path d="M842.95433,355.66386c-.16749,0-.33643-.00684-.50733-.02246a5.6012,5.6012,0,0,1-5.02588-5.06641,5.54249,5.54249,0,0,1,.56836-2.95019c.0127-.03809.02735-.0752.04346-.11231l.25781-.59863a68.42181,68.42181,0,0,0,5.29-22.60937,2.41923,2.41923,0,0,0-2.37451-2.5586h-.00293a2.44738,2.44738,0,0,0-2.50537,2.25781,64.91568,64.91568,0,0,1-1.02051,7.86524,5.55316,5.55316,0,0,1-11.09717-.31836q0-.24464.02246-.49219a1.39536,1.39536,0,0,1,.00879-.52051,52.70992,52.70992,0,0,0,.23633-20.4541,5.53126,5.53126,0,0,1-.21436-2.47558,5.55372,5.55372,0,0,1,10.88819-.57227,1.43049,1.43049,0,0,1,.10449.32227c.39356,1.98535.69531,4.00976.89795,6.01855a2.41059,2.41059,0,0,0,2.40771,2.17481,2.37686,2.37686,0,0,0,1.78858-.78907,2.511,2.511,0,0,0,.61133-1.959,68.714,68.714,0,0,0-19.82422-41.502,2.47589,2.47589,0,0,0-1.78321-.77344,2.45728,2.45728,0,0,0-2.46044,2.46289,2.47723,2.47723,0,0,0,.73486,1.75293,64.056,64.056,0,0,1,11.896,16.3789,5.55016,5.55016,0,0,1-9.894,5.03223,52.69505,52.69505,0,0,0-5.08984-8.10254,3.3825,3.3825,0,0,0-2.708-1.34472,3.337,3.337,0,0,0-2.36475.97753,3.43871,3.43871,0,0,0-.25878,4.49317,46.6928,46.6928,0,0,1,6.58691,12.165,5.612,5.612,0,0,1-2.959,7.07812,5.55023,5.55023,0,0,1-7.40137-3.07324c-.02-.042-.0376-.085-.05371-.12891a35.22615,35.22615,0,0,0-18.27686-20.05664q-.8921-.41893-1.80029-.78418a1.44433,1.44433,0,0,1-.2041-.10156,5.5036,5.5036,0,0,1-3.13965-3.60449,5.54963,5.54963,0,0,1,6.8501-6.835,1.47656,1.47656,0,0,1,.22851.06836,5.75777,5.75777,0,0,1,.66211.2666q1.07154.43946,2.12891.93359a47.04075,47.04075,0,0,1,8.51318,5.16016,3.166,3.166,0,0,0,1.936.65234,3.24306,3.24306,0,0,0,2.32861-.97656,3.37018,3.37018,0,0,0-.29834-5.10449,53.01233,53.01233,0,0,0-81.70752,24.08789,3.11487,3.11487,0,0,0,2.36475,4.12891l.15478.02929a3.18328,3.18328,0,0,0,.561.05078,3.149,3.149,0,0,0,2.93652-2.0791q.33178-.91113.70312-1.80664a5.57962,5.57962,0,0,1,5.31055-3.92676c.09619,0,.19287.00293.29.00782a5.55275,5.55275,0,0,1,4.84863,7.64843,1.343,1.343,0,0,1-.08886.3125,35.27,35.27,0,0,0-2.76856,13.7793c0,.04785-.00244.0957-.00683.14258a5.56065,5.56065,0,0,1-5.55176,5.41211c-.12549,0-.252-.00489-.37891-.0127a5.6157,5.6157,0,0,1-5.17431-5.64941c.00341-1.43848.07373-2.8916.20849-4.31934a3.09592,3.09592,0,0,0-2.5376-3.35351l-.148-.02735a3.1637,3.1637,0,0,0-.57226-.05273,3.12168,3.12168,0,0,0-3.08984,2.79883c-.15723,1.6709-.23731,3.374-.23731,5.06152,0,.04785-.00244.0957-.00684.14258a5.5598,5.5598,0,0,1-5.55175,5.41113c-.127,0-.25489-.00488-.3833-.01367a5.60683,5.60683,0,0,1-5.16993-5.63086,63.87732,63.87732,0,0,1,18.76075-45.20215,71.03013,71.03013,0,0,1,11.561-9.20019,2.63851,2.63851,0,0,0,.76709-3.5586c-.01758-.03613-.03418-.07129-.04883-.10742a1.55947,1.55947,0,0,0-1.61474-1.02637,2.70751,2.70751,0,0,0-1.312.334,61.18888,61.18888,0,0,0-12.82862,10.083,68.78361,68.78361,0,0,0-14.33056,20.88085c-.01368.03125-.02832.06153-.04395.0918a5.55252,5.55252,0,0,1-5.1709,3.53028c-.08447,0-.17041-.002-.25586-.00586a5.5537,5.5537,0,0,1-4.76074-7.93262c.01611-.04981.03516-.09961.05664-.14942a80.00151,80.00151,0,0,1,72.689-47.72363h.17627c.02441.001.04834.00293.07226.00488v-.00293a5.55238,5.55238,0,0,1,.17725,11.09278,1.60324,1.60324,0,0,1-.19532.01562,74.27029,74.27029,0,0,0-25.27783,4.94825,2.58509,2.58509,0,0,0-1.42529,3.47265,1.33921,1.33921,0,0,1,.07373.12793,2.26827,2.26827,0,0,0,2.0752,1.12012,4.24592,4.24592,0,0,0,1.46923-.291l.92725-.35644c8.15625-3.45117,14.21-4.1084,22.5127-4.1084a63.82262,63.82262,0,0,1,37.00781,11.76269,2.51261,2.51261,0,0,0,1.46191.46875,2.46021,2.46021,0,0,0,2.458-2.65332,2.42345,2.42345,0,0,0-1.01221-1.78222,68.88977,68.88977,0,0,0-12.71826-7.14258,1.51343,1.51343,0,0,1-.21045-.11035,5.55392,5.55392,0,0,1,2.12158-10.54c.103-.00586.20557-.00781.30762-.00781a5.56876,5.56876,0,0,1,2.53955.61523A80.15544,80.15544,0,0,1,848.52464,351.243l-.30908.71875a1.46159,1.46159,0,0,1-.08692.16992A5.53565,5.53565,0,0,1,842.95433,355.66386Z" style="fill: #a7cc6b"/>
          <path d="M774.36019,241.49113v.00287a4.0522,4.0522,0,0,1,0,8.10132v.00787a76.30839,76.30839,0,0,0-25.79507,5.04932,4.08492,4.08492,0,0,0-2.17583,5.64947l.02564.02484a3.74748,3.74748,0,0,0,3.4144,1.94556,5.71255,5.71255,0,0,0,1.99194-.38531l.94339-.36286c7.71466-3.263,13.531-4.00787,21.97391-4.00787a62.3327,62.3327,0,0,1,36.13952,11.48645,4.0207,4.0207,0,0,0,2.33.74487,3.95991,3.95991,0,0,0,2.7948-1.14819l.00189-.00183a3.94023,3.94023,0,0,0-.48129-6.00824,70.1454,70.1454,0,0,0-12.99555-7.29724l.00528-.01209a4.05369,4.05369,0,0,1,1.39533-7.76294q.11338-.00623.22532-.00616a4.03463,4.03463,0,0,1,1.853.44873A78.66023,78.66023,0,0,1,847.14317,350.659q-.14973.35394-.3035.70569l-.02563-.01123a4.05447,4.05447,0,0,1-3.85837,2.81018c-.1236,0-.24875-.00556-.3747-.01685a4.05286,4.05286,0,0,1-3.15561-6.028l-.01681-.00739c.08847-.20373.17676-.40759.2634-.61242a69.81917,69.81917,0,0,0,5.40579-23.1045,3.91979,3.91979,0,0,0-3.84342-4.14886l-.05029-.00092-.07367-.00067a3.91964,3.91964,0,0,0-3.90878,3.65784,63.07135,63.07135,0,0,1-1.01785,7.78894,4.0529,4.0529,0,1,1-8.043-.83527l-.06049-.01257a54.36231,54.36231,0,0,0,.22308-21.13623,4.05262,4.05262,0,0,1,3.40064-5.35748,4.19555,4.19555,0,0,1,.42978-.02216,4.05413,4.05413,0,0,1,3.9877,3.32916l.03363-.00665q.58,2.92813.87616,5.87708a3.91821,3.91821,0,0,0,3.90091,3.52526l.04016-.00024a3.92264,3.92264,0,0,0,3.85132-4.40326A70.22105,70.22105,0,0,0,824.56809,270.241l-.06732-.06726a3.91677,3.91677,0,0,0-2.77643-1.14563,3.95714,3.95714,0,0,0-2.8049,1.16186l0,.00006a3.96586,3.96586,0,0,0,.01938,5.61585l.0322.03216a62.372,62.372,0,0,1,11.58539,15.96228,4.05,4.05,0,0,1-7.218,3.67566,54.079,54.079,0,0,0-5.235-8.334,4.89079,4.89079,0,0,0-3.90042-1.9339,4.83072,4.83072,0,0,0-3.42233,1.41369,4.93663,4.93663,0,0,0-.3992,6.4596,45.18825,45.18825,0,0,1,6.37537,11.77478,4.11424,4.11424,0,0,1-2.14911,5.19019,4.05089,4.05089,0,0,1-5.43988-2.337l-.00473.00171a36.71165,36.71165,0,0,0-19.04992-20.90515q-.9299-.4368-1.87554-.81775l.00523-.01532a4.05295,4.05295,0,0,1,2.62135-7.66577l.00116-.00336.05255.02112a4.08189,4.08189,0,0,1,.543.21856q1.05789.43269,2.10085.92005a45.39983,45.39983,0,0,1,8.24241,4.99585,4.67759,4.67759,0,0,0,2.846.95978,4.763,4.763,0,0,0,3.39791-1.42469,4.86976,4.86976,0,0,0-.46055-7.35064,54.5117,54.5117,0,0,0-84.02423,24.76971,4.61524,4.61524,0,0,0,3.50357,6.11713l.15319.02807a4.61226,4.61226,0,0,0,5.17914-2.98907q.3342-.91644.70874-1.817a4.05417,4.05417,0,0,1,3.8944-2.92981c.071,0,.14264.00183.21445.00556a4.05314,4.05314,0,0,1,3.41014,5.86249l.044.01721a36.88541,36.88541,0,0,0-2.88582,14.36249h-.005a4.05348,4.05348,0,0,1-4.05355,4.05346q-.13853,0-.27912-.00934a4.11019,4.11019,0,0,1-3.77424-4.14862q.00483-2.10782.20155-4.18213a4.612,4.612,0,0,0-3.75949-4.9696l-.14993-.02753a4.65041,4.65041,0,0,0-.84089-.0769,4.60393,4.60393,0,0,0-4.58377,4.158q-.243,2.578-.244,5.2027h-.005a4.05343,4.05343,0,0,1-4.05351,4.05346q-.14008,0-.28238-.00958a4.10729,4.10729,0,0,1-3.77106-4.13348A62.3708,62.3708,0,0,1,730.50625,275.838a69.56049,69.56049,0,0,1,11.33687-9.01629,4.10462,4.10462,0,0,0,1.26994-5.47888,3.07122,3.07122,0,0,0-3.003-1.95789,4.20525,4.20525,0,0,0-2.0768.54279A63.114,63.114,0,0,0,724.90914,270.241a70.23632,70.23632,0,0,0-14.6417,21.33545l-.01165-.00507a4.0542,4.0542,0,0,1-3.83258,2.73389c-.062,0-.12445-.00141-.187-.00421a4.05429,4.05429,0,0,1-3.383-5.9704l-.01689-.00739A78.5015,78.5015,0,0,1,774.164,241.49327c.02776-.00055.05525-.00214.08316-.00214l.03365.00086.07937-.00086m-.0001-3h-.01479l-.04684.00049-.05129-.00049c-.05169,0-.10292.00116-.15416.00293a81.65707,81.65707,0,0,0-74.00079,48.61676q-.04155.094-.07634.19006a7.05456,7.05456,0,0,0,6.08556,9.99707c.10751.00489.21514.00727.32177.00727a7.05583,7.05583,0,0,0,6.542-4.41645q.02372-.0488.04586-.09887a67.27553,67.27553,0,0,1,14.01945-20.42761,59.77317,59.77317,0,0,1,12.53189-9.85352,1.27044,1.27044,0,0,1,.54772-.12384.70705.70705,0,0,1,.19572.02277c.0025.00952.01537.03381.0306.071q.04459.109.09768.21435c.55017,1.09168-.04109,1.48877-.26365,1.63831a72.37442,72.37442,0,0,0-11.78551,9.38532,65.37073,65.37073,0,0,0-19.20029,46.26,7.11241,7.11241,0,0,0,6.56827,7.13079q.244.01648.48518.01642A7.06229,7.06229,0,0,0,723.2879,320.3q.00865-.11362.00868-.22955c0-1.64106.07767-3.29676.23079-4.92115a1.61,1.61,0,0,1,1.597-1.43951,1.65978,1.65978,0,0,1,.29941.02765l.14966.02746a1.60349,1.60349,0,0,1,1.31454,1.73694c-.13916,1.47412-.21144,2.97376-.21484,4.45728a7.1163,7.1163,0,0,0,6.57376,7.14874q.24181.0162.47961.01611a7.06179,7.06179,0,0,0,7.04985-6.82336q.00869-.114.00873-.23016a33.77682,33.77682,0,0,1,2.65007-13.19684,2.99788,2.99788,0,0,0,.15675-.48175,7.053,7.053,0,0,0-6.22079-9.55963c-.12318-.00635-.24651-.00947-.36878-.00947a7.08637,7.08637,0,0,0-6.7216,4.91584c-.2444.593-.47963,1.19885-.7,1.803a1.64407,1.64407,0,0,1-1.528,1.093,1.61773,1.61773,0,0,1-.29117-.02673l-.15384-.0282a1.61522,1.61522,0,0,1-1.22528-2.1405,51.48583,51.48583,0,0,1,79.39023-23.40674,1.86974,1.86974,0,0,1,.17341,2.82129l-.03668.03668a1.754,1.754,0,0,1-1.25928.52857,1.68061,1.68061,0,0,1-1.0265-.345,48.51427,48.51427,0,0,0-8.78653-5.326c-.68616-.32227-1.41236-.64112-2.15979-.94825a7.098,7.098,0,0,0-.73133-.29467,2.9887,2.9887,0,0,0-.38876-.12055,7.05285,7.05285,0,0,0-4.75992,13.23523,2.99885,2.99885,0,0,0,.31369.1488c.60016.24317,1.18111.4964,1.72676.75269a33.73145,33.73145,0,0,1,17.50341,19.208q.03906.1083.086.21264a7.0539,7.0539,0,0,0,13.1491-5.11059,48.19642,48.19642,0,0,0-6.79885-12.55524,1.93319,1.93319,0,0,1,.11792-2.52643,1.821,1.821,0,0,1,1.30758-.54156,1.89312,1.89312,0,0,1,1.51517.75342,51.22815,51.22815,0,0,1,4.94476,7.87176,7.04354,7.04354,0,0,0,9.01874,3.2818,7.04709,7.04709,0,0,0,3.551-9.67029,65.46194,65.46194,0,0,0-12.14035-16.728l-.04-.04a.98321.98321,0,0,1-.28843-.6922.928.928,0,0,1,.27692-.67322.96263.96263,0,0,1,.68356-.2832.91447.91447,0,0,1,.658.26977l.062.062a67.22119,67.22119,0,0,1,19.39547,40.59937,1.02132,1.02132,0,0,1-.23852.80487.858.858,0,0,1-.65912.288H840.942a.91872.91872,0,0,1-.92578-.82544c-.20667-2.05444-.5156-4.12689-.91828-6.15979a3.01973,3.01973,0,0,0-.15478-.52606,7.04659,7.04659,0,0,0-6.80918-5.2135h-.00149a7.22059,7.22059,0,0,0-.73542.0379,7.05276,7.05276,0,0,0-6.00741,9.0821,51.21948,51.21948,0,0,1-.24683,19.78643,2.99863,2.99863,0,0,0-.04968.89557q-.01287.21113-.01288.421a7.053,7.053,0,0,0,14.08777.50849,66.33127,66.33127,0,0,0,1.02673-7.95472.92213.92213,0,0,1,.91559-.8598l.069.0011a.91981.91981,0,0,1,.66245.29712.8925.8925,0,0,1,.24133.67242,66.91846,66.91846,0,0,1-5.17422,22.11567c-.08286.19592-.16749.39117-.25223.58642q-.02441.05622-.04639.113a7.05338,7.05338,0,0,0,5.70248,10.105c.216.01935.43073.02881.64289.02881a7.03032,7.03032,0,0,0,6.53155-4.389q.05609-.10446.10379-.21411.1589-.36556.3151-.73273a81.65771,81.65771,0,0,0-42.62592-106.58581,7.07921,7.07921,0,0,0-3.12631-.73108q-.19347,0-.389.01062a7.05374,7.05374,0,0,0-2.75976,13.35479,2.94948,2.94948,0,0,0,.339.17231,67.3702,67.3702,0,0,1,12.44061,6.98541.91758.91758,0,0,1,.38611.68219.93543.93543,0,0,1-.27726.75.96966.96966,0,0,1-.68545.28137,1.0216,1.0216,0,0,1-.594-.19159,65.33316,65.33316,0,0,0-37.87551-12.03973c-8.28565,0-14.7258.69232-23.09719,4.22565l-.89711.34509a2.70807,2.70807,0,0,1-.91494.1853.80758.80758,0,0,1-.73632-.29748q-.03641-.07224-.07651-.14216a1.08563,1.08563,0,0,1,.62987-1.38189,73.86966,73.86966,0,0,1,24.76116-4.848,3.03441,3.03441,0,0,0,.32069-.022,7.05241,7.05241,0,0,0-.11665-14.0791q-.125-.01053-.25148-.01056Z" style="fill: #516e7d"/>
        </g>
        <g>
          <path d="M774.18333,400.14824a79.55877,79.55877,0,0,1-30.61816-6.292q-.7207-.30468-1.43653-.626a1.49538,1.49538,0,0,1-.45068-.31055,5.55293,5.55293,0,0,1,2.28076-10.33106c.17139-.01562.3418-.02246.51074-.02246a5.51653,5.51653,0,0,1,2.95166.85059l.47119.20508q.86573.36621,1.73389.70508a2.41584,2.41584,0,0,0,.88525.16894,2.45769,2.45769,0,0,0,2.32618-1.6709l.00537-.0166a2.46625,2.46625,0,0,0-1.45166-3.07324q-.79614-.312-1.58741-.64649a64.23972,64.23972,0,0,1-33.78759-33.40625,5.55358,5.55358,0,1,1,9.728-5.32812,1.4038,1.4038,0,0,1,.19971.33008,53.18855,53.18855,0,0,0,36.13037,30.8125,3.10954,3.10954,0,0,0,.7378.08984,3.03153,3.03153,0,0,0,3.01806-2.68945l.03662-.31836a3.025,3.025,0,0,0-2.26855-3.27832,45.92186,45.92186,0,0,1-15.5166-7.03809,5.55389,5.55389,0,0,1,2.10644-10.42383q.26221-.02343.51856-.02343a5.4932,5.4932,0,0,1,3.02734.89843,1.39085,1.39085,0,0,1,.3584.18555,35.1281,35.1281,0,0,0,20.64551,6.625,37.65444,37.65444,0,0,0,7.33984-.73242,33.26455,33.26455,0,0,0,11.91113-4.90723,35.82479,35.82479,0,0,0,14.09131-17.707,1.48593,1.48593,0,0,1,.12549-.26367,5.5892,5.5892,0,0,1,5.29541-3.88184c.14209,0,.28662.00489.43115.01563a5.55341,5.55341,0,0,1,4.5752,7.94238,1.37418,1.37418,0,0,1-.05274.17871,45.95828,45.95828,0,0,1-3.36816,7.17676,3.36174,3.36174,0,0,0,.772,4.27539l.72315.60059a3.32858,3.32858,0,0,0,2.15527.7832,3.36512,3.36512,0,0,0,2.918-1.6582q.49512-.8335.96-1.68555a1.46784,1.46784,0,0,1,.22021-.30566,5.52079,5.52079,0,0,1,4.75342-2.68653,5.66461,5.66461,0,0,1,1.19922.12989,5.591,5.591,0,0,1,4.35156,5.70019,5.52585,5.52585,0,0,1-1.09619,3.0459,63.61231,63.61231,0,0,1-14.958,17.99805,5.56671,5.56671,0,0,1-4.373,2.13769h-.00049a5.55241,5.55241,0,0,1-4.1167-9.28418,1.48985,1.48985,0,0,1,.47266-.65332c1.3916-1.10742,2.74023-2.29394,4.0083-3.52637a3.29752,3.29752,0,0,0,1.00293-2.5205,3.40364,3.40364,0,0,0-1.22071-2.48047l-.58154-.4834a3.32582,3.32582,0,0,0-2.15185-.7793,3.407,3.407,0,0,0-2.42579,1.01074,46.29,46.29,0,0,1-32.96044,13.67188,3.05934,3.05934,0,0,0-3.08887,2.69238l-.03516.31055a3.04577,3.04577,0,0,0,.752,2.36621,2.968,2.968,0,0,0,2.23438,1.00781h.1377a52.8685,52.8685,0,0,0,18.38232-3.26367,1.491,1.491,0,0,1,.51953-.09277,1.43041,1.43041,0,0,1,.24219.01953,5.54071,5.54071,0,0,1,1.19287-.12891c.15283,0,.30664.00586.46142.01856a5.58852,5.58852,0,0,1,5.07471,5.07422,5.55415,5.55415,0,0,1-4.93115,5.98046,64.47325,64.47325,0,0,1-34.98438,1.9629,2.5068,2.5068,0,0,0-.55126-.06153,2.45871,2.45871,0,0,0-2.33936,1.67676,2.46034,2.46034,0,0,0,1.7998,3.17969,69.2934,69.2934,0,0,0,14.7627,1.66015,1.54984,1.54984,0,0,1,.19141.0127,5.55289,5.55289,0,0,1-.16944,11.09766l-.11084.002C774.26048,400.15019,774.20188,400.14921,774.18333,400.14824Z" style="fill: #a7cc6b"/>
          <path d="M813.50166,329.53141c.10461.00006.21048.004.31677.01209a4.05288,4.05288,0,0,1,3.18137,6.08868l.04754.01862a44.452,44.452,0,0,1-3.25836,6.943,4.87079,4.87079,0,0,0,1.11029,6.17926l.72287.60175a4.88187,4.88187,0,0,0,7.32245-1.26215q.50991-.85756.98724-1.73376l.03922.02136a4.05693,4.05693,0,0,1,3.61655-2.231,4.14186,4.14186,0,0,1,.88131.09552,4.05389,4.05389,0,0,1,2.31626,6.45606,62.10062,62.10062,0,0,1-14.792,17.77911,4.05474,4.05474,0,0,1-3.28088,1.68042,4.12116,4.12116,0,0,1-.7197-.06372,4.05218,4.05218,0,0,1-1.90042-7.08557l-.09072-.11395q2.16279-1.7213,4.11959-3.62549a4.87116,4.87116,0,0,0-.303-7.22791l-.58242-.48486a4.84541,4.84541,0,0,0-3.11063-1.12561,4.921,4.921,0,0,0-3.48813,1.45117l-.03216.03223a44.771,44.771,0,0,1-31.8662,13.19928h-.0457a4.54479,4.54479,0,0,0-4.53384,4.02282l-.03519.31134a4.52732,4.52732,0,0,0,4.47318,5.04212l.14155.00018a54.45908,54.45908,0,0,0,18.902-3.35626l.0497.13354a4.04417,4.04417,0,0,1,1.38658-.24353q.16745,0,.338.01374a4.05312,4.05312,0,0,1-.05328,8.08221,62.96712,62.96712,0,0,1-34.33786,1.97662,4.0194,4.0194,0,0,0-.87886-.09759,3.95755,3.95755,0,0,0-.86738,7.82086,70.60537,70.60537,0,0,0,15.08277,1.69556v.00732a4.05227,4.05227,0,0,1,0,8.103v.00171l-.04889-.00049-.03223.00079c-.02672,0-.05308-.00152-.07969-.002a78.06414,78.06414,0,0,1-30.04958-6.17291q-.70844-.29965-1.40886-.61347l.02728-.06232a4.05361,4.05361,0,0,1,1.32471-7.71637q.18937-.017.37521-.017a4.03439,4.03439,0,0,1,2.24068.6759c.20041.08722.39957.17676.60111.262q.88162.373,1.77072.72089a3.917,3.917,0,0,0,1.43059.27136,3.96455,3.96455,0,0,0,3.75407-2.71075l.00072-.00214a3.96471,3.96471,0,0,0-2.32721-4.94446q-.77832-.30505-1.5504-.63153a62.73471,62.73471,0,0,1-33.04331-32.73053,4.05277,4.05277,0,0,1,2.94779-6.24573,4.1929,4.1929,0,0,1,.44575-.02386,4.05416,4.05416,0,0,1,3.77669,2.58173l.04686-.01978a54.68868,54.68868,0,0,0,37.15648,31.6853,4.60307,4.60307,0,0,0,1.0934.13245,4.53454,4.53454,0,0,0,4.50908-4.021l.03579-.31652a4.52078,4.52078,0,0,0-3.40174-4.905,44.55314,44.55314,0,0,1-15.09037-6.86444,4.05351,4.05351,0,0,1,1.46063-7.64661q.19232-.01758.381-.01746a4.03424,4.03424,0,0,1,2.47555.84479l.03453-.04309a36.679,36.679,0,0,0,21.52192,6.90662,38.9963,38.9963,0,0,0,7.63272-.7613,34.93157,34.93157,0,0,0,12.446-5.12658,37.38206,37.38206,0,0,0,14.67307-18.44788l.0538.02112a4.05394,4.05394,0,0,1,3.95755-3.1778m.00064-3h-.0004a7.10287,7.10287,0,0,0-6.67593,4.77777,2.99883,2.99883,0,0,0-.15619.35682,34.33611,34.33611,0,0,1-13.509,16.96875,31.75692,31.75692,0,0,1-11.37645,4.68579,36.105,36.105,0,0,1-7.04582.70331,33.63755,33.63755,0,0,1-19.76981-6.3418,3.01033,3.01033,0,0,0-.56551-.32074,6.9793,6.9793,0,0,0-3.69668-1.04578h-.00144q-.32279,0-.65313.03a7.05341,7.05341,0,0,0-2.76215,13.19373,47.42154,47.42154,0,0,0,15.95282,7.21893,1.52063,1.52063,0,0,1,1.1333,1.65393l-.03578.31647a1.53561,1.53561,0,0,1-1.52806,1.358,1.61021,1.61021,0,0,1-.38164-.04681,51.68844,51.68844,0,0,1-35.10486-29.93872,3.01214,3.01214,0,0,0-.31018-.56006,7.00559,7.00559,0,0,0-6.27666-3.83411,7.235,7.235,0,0,0-.764.04077,7.05312,7.05312,0,0,0-5.29166,10.62933,65.73579,65.73579,0,0,0,34.53662,34.093q.80916.34213,1.62436.66162a.96289.96289,0,0,1-.33281,1.86426.92312.92312,0,0,1-.33719-.065q-.85116-.33317-1.69528-.69019c-.11827-.05-.23505-.1015-.35188-.15295l-.00724-.00317a7.02449,7.02449,0,0,0-3.65142-1.0188q-.31924,0-.64438.029a7.02428,7.02428,0,0,0-6.38651,6.45251,7.09627,7.09627,0,0,0,3.33438,6.57837,2.99946,2.99946,0,0,0,.74735.47559q.72756.32447,1.462.6366a81.064,81.064,0,0,0,31.16364,6.4096c.047.00147.09053.00232.13432.00232l.07074-.00085q.06623-.00018.1322-.0033a7.05223,7.05223,0,0,0,.21647-14.08917,3.01244,3.01244,0,0,0-.32268-.01892,67.83259,67.83259,0,0,1-14.44292-1.62317.95755.95755,0,0,1,.21192-1.89331,1.02366,1.02366,0,0,1,.22343.02515,65.97564,65.97564,0,0,0,35.65-1.95673,7.05437,7.05437,0,0,0,6.08844-7.57166,7.10332,7.10332,0,0,0-6.4491-6.44818q-.29285-.02371-.58073-.02356a7.06973,7.06973,0,0,0-1.26757.114q-.08429-.00477-.16908-.00476a2.99138,2.99138,0,0,0-1.03915.18664,51.37722,51.37722,0,0,1-17.86246,3.17041l-.13464-.00018a1.491,1.491,0,0,1-1.11786-.506,1.52739,1.52739,0,0,1-.3812-1.1991l.03519-.31152a1.5482,1.5482,0,0,1,1.55281-1.35962,47.77854,47.77854,0,0,0,34.0332-14.078l.03647-.03656a1.91586,1.91586,0,0,1,1.36264-.56823,1.84221,1.84221,0,0,1,1.1912.43133l.58233.4848a1.87829,1.87829,0,0,1,.68137,1.3841,1.81936,1.81936,0,0,1-.55045,1.38745c-1.23266,1.19867-2.54355,2.35229-3.89627,3.42889a2.99965,2.99965,0,0,0-.81827,1.012A7.05257,7.05257,0,1,0,818.161,370.599a65.10693,65.10693,0,0,0,15.14569-18.24011,7.02229,7.02229,0,0,0,1.33084-3.78351,7.05218,7.05218,0,0,0-7.04965-7.40619,7.00829,7.00829,0,0,0-5.97827,3.31525,2.84615,2.84615,0,0,0-.31232.45947c-.29791.547-.61124,1.09723-.93127,1.6355a1.87837,1.87837,0,0,1-1.62915.92517,1.84837,1.84837,0,0,1-1.19532-.43549l-.72287-.60174a1.86393,1.86393,0,0,1-.43365-2.37006,47.60028,47.60028,0,0,0,3.47812-7.41138q.03378-.09182.06122-.1845a7.0539,7.0539,0,0,0-5.87867-9.94935c-.18212-.01385-.36386-.02063-.54336-.02069Z" style="fill: #516e7d"/>
        </g>
      </g>
      <path d="M797.021,319.75807v0a23.23928,23.23928,0,0,0-11.61965-20.12582l0,0a23.23929,23.23929,0,0,0-23.23929,0l0,0a23.23929,23.23929,0,0,0-11.61964,20.12582v0A23.23929,23.23929,0,0,0,762.162,339.88389l0,0a23.23929,23.23929,0,0,0,23.23929,0l0,0A23.23928,23.23928,0,0,0,797.021,319.75807Z" style="fill: #f5edd1;stroke: #529e33;stroke-miterlimit: 10;stroke-width: 6px"/>
    </g>
    <g>
      <g>
        <g>
          <path d="M980.04178,669.08678a5.55261,5.55261,0,0,1-3.31055-10.01074,1.50406,1.50406,0,0,1,.59082-.54981,52.6392,52.6392,0,0,0,16.40918-13.14843,1.47447,1.47447,0,0,1,.28028-.26075,5.554,5.554,0,0,1,9.49511,5.08594,5.54091,5.54091,0,0,1-1.667,2.77637,63.67549,63.67549,0,0,1-18.165,14.7539,5.54309,5.54309,0,0,1-3.63281,1.35352Z" style="fill: #a7cc6b"/>
          <path d="M998.11722,644.80193a4.05416,4.05416,0,0,1,2.64831,7.12427,62.10275,62.10275,0,0,1-17.9599,14.5719,4.053,4.053,0,1,1-4.728-6.50971l-.0669-.12939a54.34192,54.34192,0,0,0,16.8739-13.52179l.03437.02862a4.06408,4.06408,0,0,1,3.19824-1.5639m0-3a7.11011,7.11011,0,0,0-5.13526,2.21991,2.84774,2.84774,0,0,0-.4035.3966,51.17036,51.17036,0,0,1-15.94507,12.7754,2.99951,2.99951,0,0,0-.999.834,7.05273,7.05273,0,1,0,8.89191,10.94934,65.11044,65.11044,0,0,0,18.39514-14.955,7.02243,7.02243,0,0,0,2.03924-3.45282,7.05477,7.05477,0,0,0-6.8435-8.76739Z" style="fill: #516e7d"/>
        </g>
        <g>
          <path d="M1009.93436,632.95885c-.168,0-.33692-.00684-.50782-.02246a5.60168,5.60168,0,0,1-5.02636-5.06641,5.54513,5.54513,0,0,1,.56933-2.95019,1.09352,1.09352,0,0,1,.043-.11133l.25781-.59961a68.41534,68.41534,0,0,0,5.29-22.60937,2.42,2.42,0,0,0-2.374-2.5586h-.00293a2.4465,2.4465,0,0,0-2.50488,2.25684,64.88478,64.88478,0,0,1-1.02246,7.86621,5.55291,5.55291,0,0,1-11.09668-.31836c0-.16895.00781-.33984.02441-.51172a1.34542,1.34542,0,0,1,.00684-.5,52.7012,52.7012,0,0,0,.2373-20.4541,5.5363,5.5363,0,0,1-.21582-2.47559,5.55482,5.55482,0,0,1,10.89063-.57129,1.45479,1.45479,0,0,1,.10351.32129c.39356,1.98828.69531,4.01367.89649,6.01856a2.41157,2.41157,0,0,0,2.40918,2.17383,2.37733,2.37733,0,0,0,1.78808-.78907,2.50913,2.50913,0,0,0,.61133-1.959,68.72889,68.72889,0,0,0-19.82422-41.50195,2.45395,2.45395,0,0,0-3.52734-.05079,2.42927,2.42927,0,0,0-.7168,1.74024,2.47877,2.47877,0,0,0,.73438,1.75293,64.00624,64.00624,0,0,1,11.89648,16.3789,5.54993,5.54993,0,0,1-9.89355,5.03223,52.73384,52.73384,0,0,0-5.08985-8.10254,3.38318,3.38318,0,0,0-2.708-1.34472,3.335,3.335,0,0,0-2.36425.97753,3.43937,3.43937,0,0,0-.25879,4.49415,46.699,46.699,0,0,1,6.58691,12.16406,5.612,5.612,0,0,1-2.96,7.07812,5.55041,5.55041,0,0,1-7.40039-3.07031c-.02051-.043-.03809-.08691-.05469-.13184a35.221,35.221,0,0,0-18.27637-20.05664c-.59472-.27929-1.19433-.53906-1.7998-.78418a1.5517,1.5517,0,0,1-.20605-.10156,5.50843,5.50843,0,0,1-3.13868-3.60351,5.55083,5.55083,0,0,1,6.85157-6.83594,1.46969,1.46969,0,0,1,.22656.06836,5.49076,5.49076,0,0,1,.66406.26758q1.06934.438,2.126.93261a46.94222,46.94222,0,0,1,8.51465,5.16016,3.16949,3.16949,0,0,0,1.93652.65234,3.2411,3.2411,0,0,0,2.32812-.97656,3.3715,3.3715,0,0,0-.29785-5.10449,53.01185,53.01185,0,0,0-81.708,24.08887,3.11414,3.11414,0,0,0,2.36523,4.12793l.15625.02929a3.11277,3.11277,0,0,0,3.49609-2.02832c.22168-.60644.45606-1.21.70313-1.80566a5.57851,5.57851,0,0,1,5.30957-3.92774c.09668,0,.19336.00293.291.00782a5.55319,5.55319,0,0,1,4.84766,7.65136,1.39767,1.39767,0,0,1-.08887.30957,35.28333,35.28333,0,0,0-2.76757,13.7793,1.38113,1.38113,0,0,1-.00684.14258,5.56054,5.56054,0,0,1-5.55274,5.41211c-.125,0-.251-.00489-.3789-.0127a5.61529,5.61529,0,0,1-5.17383-5.64941c.00391-1.44629.07422-2.89942.209-4.32031a3.09556,3.09556,0,0,0-2.5371-3.35254l-.14844-.02735a3.15978,3.15978,0,0,0-.57227-.05273,3.122,3.122,0,0,0-3.08984,2.79883c-.15723,1.6709-.23731,3.374-.23731,5.06152a1.38114,1.38114,0,0,1-.00683.14258,5.55927,5.55927,0,0,1-5.55078,5.41113c-.127,0-.25586-.00488-.38477-.01367a5.60719,5.60719,0,0,1-5.16992-5.63086,63.87265,63.87265,0,0,1,18.76172-45.20215,71.016,71.016,0,0,1,11.56054-9.20019,2.6409,2.6409,0,0,0,.76661-3.55957c-.01758-.03516-.03418-.07032-.04883-.10645a1.5582,1.5582,0,0,0-1.61426-1.02637,2.70968,2.70968,0,0,0-1.3125.334,61.19161,61.19161,0,0,0-12.82812,10.083,68.78192,68.78192,0,0,0-14.33008,20.88183c-.01465.03223-.0293.06348-.0459.09375a5.55415,5.55415,0,0,1-5.1709,3.52832c-.084,0-.16894-.002-.25391-.00586a5.55517,5.55517,0,0,1-4.75976-7.9375,1.3912,1.3912,0,0,1,.05566-.14551A80.00042,80.00042,0,0,1,941.1326,517.288h.17578c.02441.001.07324.00195.07324.00195a5.55239,5.55239,0,0,1,.17676,11.09278,1.59541,1.59541,0,0,1-.19531.01562,74.27345,74.27345,0,0,0-25.27832,4.94825,2.58619,2.58619,0,0,0-1.42676,3.4707,1.4956,1.4956,0,0,1,.07617.12988,2.26647,2.26647,0,0,0,2.0752,1.12012,4.24122,4.24122,0,0,0,1.46875-.291l.92675-.35644c8.15723-3.45117,14.21094-4.1084,22.5127-4.1084a63.84235,63.84235,0,0,1,37.00781,11.76269,2.51262,2.51262,0,0,0,1.46192.46875,2.45876,2.45876,0,0,0,2.458-2.65332,2.4229,2.4229,0,0,0-1.01171-1.78222,68.96658,68.96658,0,0,0-12.71778-7.14258,1.44044,1.44044,0,0,1-.21094-.11035,5.55377,5.55377,0,0,1,2.1211-10.54c.10351-.00586.20605-.00781.30762-.00781a5.56685,5.56685,0,0,1,2.49218.59082A80.161,80.161,0,0,1,1015.50467,628.538l-.30859.7168a1.43672,1.43672,0,0,1-.08789.17285A5.5375,5.5375,0,0,1,1009.93436,632.95885Z" style="fill: #a7cc6b"/>
          <path d="M941.33957,518.78624v.00287a4.0522,4.0522,0,0,1,0,8.10132v.00787a76.3067,76.3067,0,0,0-25.795,5.04932,4.08489,4.08489,0,0,0-2.17585,5.64941l.02564.02491a3.74736,3.74736,0,0,0,3.41437,1.94549,5.71273,5.71273,0,0,0,1.992-.38531l.94336-.3628c7.71466-3.263,13.531-4.00787,21.97388-4.00787a62.33287,62.33287,0,0,1,36.13958,11.48645,4.02068,4.02068,0,0,0,2.33.74481,3.95962,3.95962,0,0,0,2.79474-1.14813l.00189-.00183a3.94023,3.94023,0,0,0-.48126-6.00824,70.1484,70.1484,0,0,0-12.99554-7.29724l.00524-.01209a4.0537,4.0537,0,0,1,1.39533-7.76294q.11334-.00622.2254-.00616a4.03429,4.03429,0,0,1,1.85291.44867,78.66038,78.66038,0,0,1,41.13635,102.6994q-.14977.35394-.30353.70563l-.02563-.01123a4.05456,4.05456,0,0,1-3.85846,2.81024q-.1854,0-.37458-.01685a4.05289,4.05289,0,0,1-3.15563-6.028l-.01679-.00739c.08844-.20379.17676-.40765.26337-.61242a69.81851,69.81851,0,0,0,5.40582-23.10449,3.91987,3.91987,0,0,0-3.84344-4.14893l-.0503-.00092-.07361-.00067a3.91976,3.91976,0,0,0-3.90881,3.6579,63.06927,63.06927,0,0,1-1.01788,7.78894,4.0529,4.0529,0,1,1-8.043-.83533l-.06049-.01251a54.3628,54.3628,0,0,0,.22309-21.13629,4.05262,4.05262,0,0,1,3.40063-5.35742,4.2,4.2,0,0,1,.42981-.02216,4.054,4.054,0,0,1,3.98767,3.32916l.03363-.00665q.58008,2.92813.87616,5.877a3.91837,3.91837,0,0,0,3.90088,3.52526l.04022-.00018a3.92265,3.92265,0,0,0,3.85132-4.40326A70.222,70.222,0,0,0,991.54752,547.536l-.06733-.06726a3.91672,3.91672,0,0,0-2.77642-1.14557,3.95713,3.95713,0,0,0-2.80487,1.16186h-.00007a3.96587,3.96587,0,0,0,.01935,5.61585l.03223.03216a62.37569,62.37569,0,0,1,11.58539,15.96228,4.05006,4.05006,0,0,1-7.218,3.67572,54.07967,54.07967,0,0,0-5.235-8.334,4.89084,4.89084,0,0,0-3.90039-1.934,4.831,4.831,0,0,0-3.42236,1.4137,4.93663,4.93663,0,0,0-.39917,6.45959,45.18832,45.18832,0,0,1,6.37537,11.77484,4.11432,4.11432,0,0,1-2.14911,5.19019,4.05107,4.05107,0,0,1-5.43988-2.337l-.00476.00171a36.71176,36.71176,0,0,0-19.04993-20.90521q-.92981-.43671-1.87549-.81769l.00519-.01538a4.05292,4.05292,0,0,1,2.62134-7.66571l.00116-.00342.05255.02118a4.07719,4.07719,0,0,1,.543.21857q1.05789.43267,2.10083.92a45.40072,45.40072,0,0,1,8.24243,4.99579,4.67774,4.67774,0,0,0,2.846.95978,4.76291,4.76291,0,0,0,3.39789-1.42462,4.86984,4.86984,0,0,0-.46057-7.35071,54.51179,54.51179,0,0,0-84.02424,24.76977,4.61517,4.61517,0,0,0,3.50361,6.11707l.15319.02814a4.61222,4.61222,0,0,0,5.17914-2.98914q.33417-.91635.70868-1.81689a4.05423,4.05423,0,0,1,3.89447-2.92981q.10649,0,.21442.00555a4.05314,4.05314,0,0,1,3.41015,5.86243l.04395.01727a36.88594,36.88594,0,0,0-2.8858,14.36249h-.005A4.05346,4.05346,0,0,1,900.706,601.419q-.13851,0-.27917-.00933a4.11029,4.11029,0,0,1-3.77423-4.14869q.00475-2.10782.20154-4.18206a4.612,4.612,0,0,0-3.75953-4.96967l-.1499-.02747a4.658,4.658,0,0,0-.841-.0769,4.60385,4.60385,0,0,0-4.58368,4.158q-.243,2.578-.244,5.2027H887.271a4.05341,4.05341,0,0,1-4.05347,4.05346c-.09338,0-.18768-.00317-.28241-.00958a4.10736,4.10736,0,0,1-3.77106-4.13354A62.3709,62.3709,0,0,1,897.48569,553.133a69.55784,69.55784,0,0,1,11.33685-9.01623,4.10471,4.10471,0,0,0,1.27-5.47894,3.07119,3.07119,0,0,0-3.003-1.95783,4.20594,4.20594,0,0,0-2.07684.54273A63.11938,63.11938,0,0,0,891.88852,547.536a70.23767,70.23767,0,0,0-14.64166,21.33551l-.01166-.00513a4.05407,4.05407,0,0,1-3.83258,2.73389c-.06195,0-.12445-.00141-.187-.00421a4.05425,4.05425,0,0,1-3.383-5.97034l-.01691-.00739a78.50163,78.50163,0,0,1,71.3277-46.83c.02777-.00061.0553-.00214.08319-.00214l.03363.00086.07935-.00086m-.00006-3h-.01483l-.04749.00049-.0506-.00049c-.04736,0-.0943.001-.14129.00251a81.65735,81.65735,0,0,0-74.01367,48.61718q-.04147.09393-.0763.18994a7.05448,7.05448,0,0,0,6.08557,9.99714c.10749.00488.21509.00726.32172.00726a7.05546,7.05546,0,0,0,6.54169-4.41583q.0239-.04908.04614-.09937a67.278,67.278,0,0,1,14.01941-20.42779,59.78334,59.78334,0,0,1,12.53192-9.85352,1.27181,1.27181,0,0,1,.54767-.12372.70833.70833,0,0,1,.19586.02277c.0025.00952.01532.03381.03058.071q.04458.10894.09759.21423c.55024,1.09174-.04107,1.4889-.26361,1.63837a72.37684,72.37684,0,0,0-11.78552,9.38532,65.37059,65.37059,0,0,0-19.20032,46.26,7.11255,7.11255,0,0,0,6.56824,7.13086c.16272.011.32477.01641.48523.01641a7.06179,7.06179,0,0,0,7.04974-6.82269q.0087-.11426.00879-.23077c0-1.64105.07764-3.29682.23071-4.92121a1.61,1.61,0,0,1,1.59693-1.43945,1.66261,1.66261,0,0,1,.29925.02759l.15137.02771a1.6033,1.6033,0,0,1,1.31311,1.73688c-.13916,1.4743-.21149,2.97393-.21484,4.45715a7.1164,7.1164,0,0,0,6.57367,7.14874q.242.01622.47973.01605a7.06229,7.06229,0,0,0,7.04987-6.82391q.00861-.11372.00867-.22955a33.77647,33.77647,0,0,1,2.65008-13.19684,2.99622,2.99622,0,0,0,.15668-.48157,7.05306,7.05306,0,0,0-6.22077-9.55981c-.12316-.00635-.24646-.00952-.36871-.00952a7.08646,7.08646,0,0,0-6.72162,4.91589c-.24444.593-.47967,1.19879-.7,1.803a1.64394,1.64394,0,0,1-1.52789,1.093,1.619,1.619,0,0,1-.2912-.02674l-.153-.02814a1.6152,1.6152,0,0,1-1.22625-2.14056,51.48593,51.48593,0,0,1,79.39026-23.4068,1.86992,1.86992,0,0,1,.17346,2.82141l-.03662.03656a1.754,1.754,0,0,1-1.25934.52857,1.68061,1.68061,0,0,1-1.02649-.345,48.51936,48.51936,0,0,0-8.78662-5.32593c-.68616-.32227-1.41236-.64112-2.15985-.94831a7.12275,7.12275,0,0,0-.72956-.29406,3.00266,3.00266,0,0,0-.39239-.12165,7.05284,7.05284,0,0,0-4.75824,13.2356,2.9974,2.9974,0,0,0,.31415.149c.59955.24292,1.18042.49615,1.72662.75262a33.73126,33.73126,0,0,1,17.50336,19.20807q.03992.1106.0874.21606a7.05393,7.05393,0,0,0,13.14783-5.11395,48.198,48.198,0,0,0-6.79889-12.55536,1.93321,1.93321,0,0,1,.11792-2.52649,1.821,1.821,0,0,1,1.30749-.5415,1.89323,1.89323,0,0,1,1.5152.75348,51.23471,51.23471,0,0,1,4.94489,7.87176,7.04346,7.04346,0,0,0,9.01867,3.2818,7.04712,7.04712,0,0,0,3.551-9.67029,65.46582,65.46582,0,0,0-12.14032-16.72808,1.027,1.027,0,0,1-.32849-.73212.92775.92775,0,0,1,.27691-.67328.9628.9628,0,0,1,.6836-.28314.91443.91443,0,0,1,.658.26977l.05078.05066a67.22234,67.22234,0,0,1,19.40667,40.61066,1.02141,1.02141,0,0,1-.23852.80487.858.858,0,0,1-.65912.288h-.00012a.91872.91872,0,0,1-.92578-.82543c-.20667-2.05475-.51569-4.1272-.91834-6.15979a3.01427,3.01427,0,0,0-.15472-.52607,7.04642,7.04642,0,0,0-6.80921-5.2135h-.00152a7.21622,7.21622,0,0,0-.73535.03791,7.05279,7.05279,0,0,0-6.00745,9.08209,51.21892,51.21892,0,0,1-.24683,19.78644,2.99839,2.99839,0,0,0-.04937.89038q-.01319.21385-.01319.42608a7.053,7.053,0,0,0,14.08777.50861,66.32535,66.32535,0,0,0,1.02673-7.95477.92225.92225,0,0,1,.91571-.85987l.06891.0011a.91974.91974,0,0,1,.66242.29718.89247.89247,0,0,1,.24133.67249,66.91813,66.91813,0,0,1-5.17419,22.1156c-.083.19629-.16773.39166-.25244.587q-.02436.05594-.04615.11231a7.05337,7.05337,0,0,0,5.70246,10.1051c.21594.01941.4306.02887.64276.02887a7.03036,7.03036,0,0,0,6.53167-4.389q.056-.10446.10364-.21393.15894-.36556.31513-.7326A81.658,81.658,0,0,0,974.25967,522.5371a7.079,7.079,0,0,0-3.12634-.731q-.19345,0-.3891.01062a7.05375,7.05375,0,0,0-2.75964,13.35486,2.94813,2.94813,0,0,0,.33887.17224,67.3703,67.3703,0,0,1,12.44067,6.98541.91778.91778,0,0,1,.38611.68213.9354.9354,0,0,1-.27735.75006.96954.96954,0,0,1-.68536.28131,1.02154,1.02154,0,0,1-.59412-.19159,65.33346,65.33346,0,0,0-37.87548-12.03967c-8.28565,0-14.72541.6922-23.09674,4.22553l-.8974.34509a2.70825,2.70825,0,0,1-.9151.18536.80775.80775,0,0,1-.73627-.29736q-.03634-.07215-.07642-.142a1.08547,1.08547,0,0,1,.62976-1.382,73.86524,73.86524,0,0,1,24.76117-4.84808,3.03554,3.03554,0,0,0,.32074-.022,7.05241,7.05241,0,0,0-.1167-14.0791q-.125-.01053-.25146-.01056Z" style="fill: #516e7d"/>
        </g>
        <g>
          <path d="M941.16385,677.44323a79.58265,79.58265,0,0,1-30.61914-6.291q-.72363-.30762-1.4375-.62695a1.48535,1.48535,0,0,1-.44727-.3086,5.55313,5.55313,0,0,1,2.27735-10.333c.17187-.01562.34082-.02246.50781-.02246a5.52936,5.52936,0,0,1,2.95508.85059l.47265.20508q.86427.36621,1.7334.70508a2.40952,2.40952,0,0,0,.88477.16894,2.45818,2.45818,0,0,0,2.33105-1.68652l.00781-.02149a2.46711,2.46711,0,0,0-1.459-3.05273q-.79687-.312-1.58789-.64649a64.23914,64.23914,0,0,1-33.78613-33.40625,5.55291,5.55291,0,1,1,9.72168-5.33789,1.39425,1.39425,0,0,1,.20507.34082,53.18212,53.18212,0,0,0,36.12989,30.81153,3.11662,3.11662,0,0,0,.73828.08984,3.03231,3.03231,0,0,0,3.01855-2.68847l.03614-.31934a3.02285,3.02285,0,0,0-2.26856-3.27734,45.94738,45.94738,0,0,1-15.5166-7.03907,5.5537,5.5537,0,0,1,2.10645-10.42383c.17382-.01562.34668-.02343.51757-.02343a5.51055,5.51055,0,0,1,3.02832.89746,1.41017,1.41017,0,0,1,.3584.18652,35.127,35.127,0,0,0,20.64551,6.625,37.641,37.641,0,0,0,7.33887-.73242,33.25241,33.25241,0,0,0,11.91211-4.90625,35.82507,35.82507,0,0,0,14.09082-17.708,1.49632,1.49632,0,0,1,.126-.26465,5.59218,5.59218,0,0,1,5.29493-3.88086c.14257,0,.28613.00489.43164.01563a5.55347,5.55347,0,0,1,4.57617,7.94043,1.51872,1.51872,0,0,1-.05274.18066,46.09018,46.09018,0,0,1-3.36914,7.17676,3.35919,3.35919,0,0,0,.77246,4.27441l.72266.60157a3.32858,3.32858,0,0,0,2.15527.7832,3.36512,3.36512,0,0,0,2.918-1.6582q.49659-.835.958-1.6836a1.4862,1.4862,0,0,1,.22168-.30761,5.52237,5.52237,0,0,1,4.75293-2.68653,5.65786,5.65786,0,0,1,1.19922.12989,5.59355,5.59355,0,0,1,4.35254,5.70019,5.52752,5.52752,0,0,1-1.09668,3.0459,63.60175,63.60175,0,0,1-14.958,17.99805,5.56411,5.56411,0,0,1-4.37207,2.13769h0a5.55132,5.55132,0,0,1-4.11816-9.2832,1.49645,1.49645,0,0,1,.47265-.6543c1.39258-1.1084,2.74121-2.29492,4.00781-3.52637a3.297,3.297,0,0,0,1.00391-2.52148,3.39921,3.39921,0,0,0-1.2207-2.47754l-.583-.48633a3.32442,3.32442,0,0,0-2.15039-.77832,3.4084,3.4084,0,0,0-2.42676,1.01074,46.28826,46.28826,0,0,1-32.96,13.67286h-.002a3.05877,3.05877,0,0,0-3.08692,2.6914l-.03515.31055a3.04757,3.04757,0,0,0,.752,2.36621,2.96879,2.96879,0,0,0,2.23437,1.00781h.1377a52.86921,52.86921,0,0,0,18.38281-3.26367,1.48906,1.48906,0,0,1,.51953-.09277,1.43853,1.43853,0,0,1,.24219.01953,5.53524,5.53524,0,0,1,1.19336-.12891c.15234,0,.30566.00586.46094.01856a5.5855,5.5855,0,0,1,5.07422,5.07422,5.55312,5.55312,0,0,1-4.93164,5.98046,64.47324,64.47324,0,0,1-34.98438,1.9629,2.49923,2.49923,0,0,0-.55078-.06153,2.45856,2.45856,0,0,0-2.33887,1.67676,2.46034,2.46034,0,0,0,1.79981,3.17969,69.29686,69.29686,0,0,0,14.76269,1.66015,1.54971,1.54971,0,0,1,.19141.0127,5.5529,5.5529,0,0,1-.16895,11.09766c-.01074,0-.10156.002-.11132.002C941.24,677.44518,941.1824,677.4442,941.16385,677.44323Z" style="fill: #a7cc6b"/>
          <path d="M980.48117,606.82653q.15693,0,.31665.012a4.05292,4.05292,0,0,1,3.1814,6.08868l.04754.01868a44.45982,44.45982,0,0,1-3.25836,6.943,4.87071,4.87071,0,0,0,1.11029,6.17926l.72284.60175a4.88193,4.88193,0,0,0,7.32251-1.26215q.50987-.85757.98718-1.73382l.03925.02142a4.05714,4.05714,0,0,1,3.61658-2.23108,4.14138,4.14138,0,0,1,.88128.09552,4.05387,4.05387,0,0,1,2.31623,6.45612A62.10021,62.10021,0,0,1,982.97263,645.795a4.05482,4.05482,0,0,1-3.28089,1.68042,4.1213,4.1213,0,0,1-.71972-.06372,4.05215,4.05215,0,0,1-1.90039-7.08557l-.09076-.114q2.16284-1.72119,4.11962-3.62543a4.87121,4.87121,0,0,0-.303-7.228l-.58246-.4848a4.84546,4.84546,0,0,0-3.1106-1.12567,4.92128,4.92128,0,0,0-3.48816,1.45117l-.03216.03223A44.77066,44.77066,0,0,1,941.71793,642.431h-.04566a4.54479,4.54479,0,0,0-4.53387,4.02283l-.03516.31134a4.52718,4.52718,0,0,0,4.47321,5.04205l.14148.00024a54.45735,54.45735,0,0,0,18.902-3.35632l.04975.13361a4.0443,4.0443,0,0,1,1.38641-.2436q.16755,0,.33814.0138a4.05309,4.05309,0,0,1-.05329,8.08215,62.96814,62.96814,0,0,1-34.33783,1.97669,4.01923,4.01923,0,0,0-.8789-.0976,3.95755,3.95755,0,0,0-.86737,7.82086,70.60517,70.60517,0,0,0,15.08276,1.6955V667.84a4.05224,4.05224,0,0,1,0,8.10291v.00177l-.04889-.00055-.03223.00085c-.02673,0-.053-.00152-.07971-.002a78.06425,78.06425,0,0,1-30.04956-6.173q-.70844-.29956-1.40881-.61347l.02722-.06231a4.05361,4.05361,0,0,1,1.32471-7.71637q.18933-.017.37506-.01691a4.03366,4.03366,0,0,1,2.24084.6759c.20044.08722.39954.1767.60114.262q.88165.3729,1.77069.72089a3.917,3.917,0,0,0,1.4306.27136,3.96462,3.96462,0,0,0,3.75409-2.71081l.00073-.00208a3.96481,3.96481,0,0,0-2.32727-4.94452q-.77829-.305-1.55035-.63147a62.73479,62.73479,0,0,1-33.04328-32.73053,4.0528,4.0528,0,0,1,2.94776-6.24578,4.17207,4.17207,0,0,1,.44562-.02381,4.05429,4.05429,0,0,1,3.77679,2.58173l.04688-.01984a54.689,54.689,0,0,0,37.15649,31.68537,4.60283,4.60283,0,0,0,1.09338.13244,4.53455,4.53455,0,0,0,4.5091-4.021l.03576-.31659a4.52073,4.52073,0,0,0-3.40173-4.905,44.55345,44.55345,0,0,1-15.09039-6.86438,4.05352,4.05352,0,0,1,1.46069-7.64661q.19245-.01758.38117-.01746a4.03459,4.03459,0,0,1,2.4754.84473l.03454-.043a36.67891,36.67891,0,0,0,21.52192,6.90662,38.997,38.997,0,0,0,7.63269-.76129,34.93166,34.93166,0,0,0,12.446-5.12665,37.38169,37.38169,0,0,0,14.673-18.44782l.05383.02112a4.05393,4.05393,0,0,1,3.95764-3.17779m.00018-3h-.00018a7.10258,7.10258,0,0,0-6.67572,4.77764,2.99824,2.99824,0,0,0-.15625.35694,34.336,34.336,0,0,1-13.509,16.96869,31.75686,31.75686,0,0,1-11.37653,4.68585,36.104,36.104,0,0,1-7.04577.70331,33.6375,33.6375,0,0,1-19.76978-6.3418,3.01117,3.01117,0,0,0-.56531-.32068,6.98,6.98,0,0,0-3.69677-1.04584q-.3241,0-.65454.03a7.05342,7.05342,0,0,0-2.7624,13.19373,47.42306,47.42306,0,0,0,15.95289,7.21887,1.52064,1.52064,0,0,1,1.1333,1.65393l-.03577.31683a1.53552,1.53552,0,0,1-1.52808,1.35773,1.61085,1.61085,0,0,1-.38165-.04681A51.689,51.689,0,0,1,894.305,617.39611a2.9951,2.9951,0,0,0-.30847-.55658,7.00577,7.00577,0,0,0-6.27838-3.83753H887.717a7.22019,7.22019,0,0,0-.76282.04071,7.05326,7.05326,0,0,0-5.29162,10.62946,65.73618,65.73618,0,0,0,34.53662,34.09295q.80906.34213,1.62457.66169a.96742.96742,0,0,1,.57788,1.196l-.00262.00787a.96038.96038,0,0,1-.90833.66034.9234.9234,0,0,1-.33722-.065q-.85116-.33317-1.69549-.69031c-.1175-.04968-.23438-.10119-.3512-.15265l-.00757-.00329a7.02444,7.02444,0,0,0-3.65173-1.01886q-.31915,0-.64435.029a7.02457,7.02457,0,0,0-6.38635,6.45239,7.09708,7.09708,0,0,0,3.33478,6.57874,3.00056,3.00056,0,0,0,.74694.47534q.72767.32455,1.46241.63672a81.0536,81.0536,0,0,0,31.16333,6.40954c.047.00147.09045.00232.13427.00232l.05182-.00048.01728.00018h.01208q.09832,0,.196-.00641a7.05221,7.05221,0,0,0,.14343-14.08655,3.02109,3.02109,0,0,0-.324-.019,67.835,67.835,0,0,1-14.44293-1.62311.95757.95757,0,0,1,.212-1.89331,1.02438,1.02438,0,0,1,.22351.02515,65.977,65.977,0,0,0,35.6499-1.95673,7.05438,7.05438,0,0,0,6.08844-7.57171,7.10319,7.10319,0,0,0-6.4491-6.44813c-.19494-.01586-.38891-.02362-.58087-.02362a7.06228,7.06228,0,0,0-1.26733.114q-.08424-.00486-.16919-.00482a2.99183,2.99183,0,0,0-1.03919.18664,51.37639,51.37639,0,0,1-17.86242,3.17047l-.13044-.00024a1.49362,1.49362,0,0,1-1.12207-.506,1.52731,1.52731,0,0,1-.38116-1.199l.03522-.31177a1.54813,1.54813,0,0,1,1.55279-1.35943,47.77822,47.77822,0,0,0,34.03314-14.078l.0365-.03656a1.91568,1.91568,0,0,1,1.36267-.56818h.00013a1.84155,1.84155,0,0,1,1.191.43133l.58264.48493a1.878,1.878,0,0,1,.68115,1.38391,1.81918,1.81918,0,0,1-.55048,1.38751c-1.23278,1.19879-2.54364,2.35242-3.89624,3.42877a3.00016,3.00016,0,0,0-.8183,1.01209,7.05259,7.05259,0,1,0,10.846,9.01733A65.10717,65.10717,0,0,0,1000.286,629.654a7.0226,7.0226,0,0,0,1.33087-3.78326,7.05224,7.05224,0,0,0-7.04962-7.40644,7.00859,7.00859,0,0,0-5.97809,3.315,2.843,2.843,0,0,0-.31262.45984c-.29779.54682-.61108,1.09711-.93121,1.63556a1.87848,1.87848,0,0,1-1.62915.925,1.84846,1.84846,0,0,1-1.19532-.43548l-.72277-.60169a1.86375,1.86375,0,0,1-.43372-2.37006,47.61269,47.61269,0,0,0,3.47809-7.41143q.03378-.09192.06122-.18451a7.054,7.054,0,0,0-5.8786-9.9494q-.2742-.02079-.54377-.02063Z" style="fill: #516e7d"/>
        </g>
      </g>
      <path d="M964.00038,597.05316v0a23.2393,23.2393,0,0,0-11.61965-20.12582l0,0a23.23929,23.23929,0,0,0-23.23929,0l0,0a23.2393,23.2393,0,0,0-11.61965,20.12582v0A23.2393,23.2393,0,0,0,929.14139,617.179l0,0a23.23931,23.23931,0,0,0,23.2393,0l0,0A23.2393,23.2393,0,0,0,964.00038,597.05316Z" style="fill: #f5edd1;stroke: #529e33;stroke-miterlimit: 10;stroke-width: 6px"/>
    </g>
    <g style="opacity: 0.42">
      <g>
        <g>
          <path d="M661.598,674.44163a5.55261,5.55261,0,0,1-3.31054-10.01074,1.50383,1.50383,0,0,1,.59082-.5498,52.63935,52.63935,0,0,0,16.40918-13.14844,1.47374,1.47374,0,0,1,.28027-.26074,5.55405,5.55405,0,0,1,9.49512,5.08593,5.54089,5.54089,0,0,1-1.667,2.77637,63.67542,63.67542,0,0,1-18.165,14.75391,5.54311,5.54311,0,0,1-3.63281,1.35351Z" style="fill: #a7cc6b"/>
          <path d="M679.67341,650.15678a4.05417,4.05417,0,0,1,2.64832,7.12427,62.103,62.103,0,0,1-17.9599,14.5719,4.053,4.053,0,1,1-4.728-6.50971l-.06689-.12939a54.34189,54.34189,0,0,0,16.8739-13.52179l.03436.02863a4.06408,4.06408,0,0,1,3.19824-1.56391m0-3a7.11009,7.11009,0,0,0-5.13525,2.21991,2.84736,2.84736,0,0,0-.40351.39661,51.17029,51.17029,0,0,1-15.94506,12.77539,2.99964,2.99964,0,0,0-.999.834,7.05273,7.05273,0,1,0,8.89191,10.94934,65.11041,65.11041,0,0,0,18.39514-14.955,7.02256,7.02256,0,0,0,2.03925-3.45282,7.05479,7.05479,0,0,0-6.84351-8.7674Z" style="fill: #516e7d"/>
        </g>
        <g>
          <path d="M691.49055,638.3137c-.168,0-.33691-.00683-.50781-.02246a5.60168,5.60168,0,0,1-5.02637-5.0664,5.54517,5.54517,0,0,1,.56934-2.9502,1.08886,1.08886,0,0,1,.043-.11133l.25781-.59961a68.41559,68.41559,0,0,0,5.29-22.60937,2.42,2.42,0,0,0-2.374-2.5586h-.00293a2.4465,2.4465,0,0,0-2.50488,2.25684,64.88081,64.88081,0,0,1-1.02246,7.86621,5.55291,5.55291,0,0,1-11.09668-.31836c0-.16894.00781-.33984.02441-.51172a1.34542,1.34542,0,0,1,.00684-.5,52.7012,52.7012,0,0,0,.23731-20.4541,5.53628,5.53628,0,0,1-.21583-2.47558,5.55482,5.55482,0,0,1,10.89063-.57129,1.45447,1.45447,0,0,1,.10352.32129c.39355,1.98828.69531,4.01367.89648,6.01855a2.41157,2.41157,0,0,0,2.40918,2.17383,2.37738,2.37738,0,0,0,1.78809-.78906,2.50919,2.50919,0,0,0,.61132-1.959,68.729,68.729,0,0,0-19.82422-41.50195,2.45394,2.45394,0,0,0-3.52734-.05078,2.42928,2.42928,0,0,0-.7168,1.74023,2.47879,2.47879,0,0,0,.73438,1.75293A64.00587,64.00587,0,0,1,680.43,573.77269a5.54993,5.54993,0,0,1-9.89355,5.03222,52.73378,52.73378,0,0,0-5.08984-8.10254,3.38321,3.38321,0,0,0-2.708-1.34472,3.33493,3.33493,0,0,0-2.36426.97754,3.43936,3.43936,0,0,0-.25879,4.49414,46.69842,46.69842,0,0,1,6.58691,12.16406,5.61206,5.61206,0,0,1-2.96,7.07813,5.55043,5.55043,0,0,1-7.40039-3.07032c-.0205-.043-.03808-.08691-.05468-.13183a35.221,35.221,0,0,0-18.27637-20.05664c-.59473-.2793-1.19434-.53907-1.79981-.78418a1.55358,1.55358,0,0,1-.20605-.10157,5.50837,5.50837,0,0,1-3.13867-3.60351,5.55083,5.55083,0,0,1,6.85156-6.83594,1.46969,1.46969,0,0,1,.22656.06836,5.49076,5.49076,0,0,1,.66406.26758q1.06935.438,2.126.93262a46.94217,46.94217,0,0,1,8.51465,5.16015,3.16952,3.16952,0,0,0,1.93652.65235,3.24109,3.24109,0,0,0,2.32813-.97657,3.37152,3.37152,0,0,0-.29785-5.10449,53.01189,53.01189,0,0,0-81.708,24.08887,3.11416,3.11416,0,0,0,2.36523,4.12793l.15625.02929a3.11271,3.11271,0,0,0,3.4961-2.02832c.22168-.60644.45605-1.21.70312-1.80566a5.57853,5.57853,0,0,1,5.30957-3.92773c.09668,0,.19336.00293.291.00781a5.5532,5.5532,0,0,1,4.84765,7.65137,1.398,1.398,0,0,1-.08886.30957A35.28307,35.28307,0,0,0,587.82063,602.72a1.37821,1.37821,0,0,1-.00684.14258,5.56053,5.56053,0,0,1-5.55273,5.41211c-.125,0-.251-.00488-.37891-.0127a5.61529,5.61529,0,0,1-5.17383-5.64941c.00391-1.44629.07422-2.89941.209-4.32031a3.09558,3.09558,0,0,0-2.53711-3.35254l-.14844-.02734a3.15887,3.15887,0,0,0-.57226-.05274,3.122,3.122,0,0,0-3.08985,2.79883c-.15722,1.6709-.2373,3.374-.2373,5.06152a1.381,1.381,0,0,1-.00684.14258,5.55927,5.55927,0,0,1-5.55078,5.41113c-.12695,0-.25586-.00488-.38477-.01367a5.60719,5.60719,0,0,1-5.16992-5.63086A63.87276,63.87276,0,0,1,577.98176,557.427a71.01566,71.01566,0,0,1,11.56055-9.20019,2.6409,2.6409,0,0,0,.7666-3.55957c-.01758-.03516-.03418-.07031-.04883-.10645a1.55819,1.55819,0,0,0-1.61426-1.02636,2.70983,2.70983,0,0,0-1.3125.334,61.19161,61.19161,0,0,0-12.82812,10.083,68.78192,68.78192,0,0,0-14.33008,20.88183c-.01465.03223-.0293.06348-.0459.09375a5.55414,5.55414,0,0,1-5.1709,3.52832c-.084,0-.16894-.00195-.2539-.00586a5.55516,5.55516,0,0,1-4.75977-7.9375,1.39112,1.39112,0,0,1,.05567-.1455,80.00038,80.00038,0,0,1,72.68847-47.72364h.17578c.02442.001.07325.002.07325.002a5.55238,5.55238,0,0,1,.17675,11.09277,1.59706,1.59706,0,0,1-.19531.01563,74.27354,74.27354,0,0,0-25.27832,4.94824,2.58619,2.58619,0,0,0-1.42676,3.4707,1.49981,1.49981,0,0,1,.07618.12988,2.26643,2.26643,0,0,0,2.07519,1.12012,4.24143,4.24143,0,0,0,1.46875-.291l.92676-.35645c8.15722-3.45117,14.21094-4.1084,22.51269-4.1084a63.84231,63.84231,0,0,1,37.00782,11.7627,2.51269,2.51269,0,0,0,1.46191.46875,2.45877,2.45877,0,0,0,2.458-2.65332,2.423,2.423,0,0,0-1.01172-1.78223,68.96766,68.96766,0,0,0-12.71777-7.14258,1.43993,1.43993,0,0,1-.21094-.11035,5.55377,5.55377,0,0,1,2.12109-10.54c.10352-.00586.20606-.00781.30762-.00781a5.56692,5.56692,0,0,1,2.49219.59082,80.161,80.161,0,0,1,41.8789,104.64062l-.30859.7168a1.43672,1.43672,0,0,1-.08789.17285A5.53749,5.53749,0,0,1,691.49055,638.3137Z" style="fill: #a7cc6b"/>
          <path d="M622.89576,524.1411v.00286a4.0522,4.0522,0,0,1,0,8.10132v.00788a76.3066,76.3066,0,0,0-25.795,5.04931,4.08489,4.08489,0,0,0-2.17584,5.64942l.02563.0249a3.74737,3.74737,0,0,0,3.41437,1.94549,5.71269,5.71269,0,0,0,1.992-.38531l.94336-.36279c7.71466-3.263,13.531-4.00788,21.97388-4.00788a62.333,62.333,0,0,1,36.13959,11.48645,4.02063,4.02063,0,0,0,2.33.74481,3.9596,3.9596,0,0,0,2.79474-1.14813l.0019-.00183a3.94023,3.94023,0,0,0-.48127-6.00824,70.14808,70.14808,0,0,0-12.99554-7.29724l.00525-.01208a4.0537,4.0537,0,0,1,1.39532-7.76294q.11334-.00622.22541-.00617a4.03428,4.03428,0,0,1,1.8529.44867A78.66038,78.66038,0,0,1,695.67878,633.309q-.14977.35394-.30352.70563l-.02564-.01123a4.05455,4.05455,0,0,1-3.85846,2.81024q-.1854,0-.37457-.01684a4.0529,4.0529,0,0,1-3.15564-6.028l-.01679-.00738c.08844-.2038.17676-.40766.26337-.61243a69.81851,69.81851,0,0,0,5.40582-23.10449,3.91987,3.91987,0,0,0-3.84344-4.14893l-.05029-.00091-.07361-.00068a3.91976,3.91976,0,0,0-3.90882,3.6579,63.06736,63.06736,0,0,1-1.01788,7.78894,4.0529,4.0529,0,1,1-8.043-.83532l-.06048-.01252a54.363,54.363,0,0,0,.22308-21.13629,4.05262,4.05262,0,0,1,3.40063-5.35742,4.2,4.2,0,0,1,.42981-.02216,4.054,4.054,0,0,1,3.98767,3.32917l.03363-.00666q.58008,2.92813.87616,5.877a3.91838,3.91838,0,0,0,3.90088,3.52527l.04023-.00019a3.92265,3.92265,0,0,0,3.85131-4.40326,70.222,70.222,0,0,0-20.25555-42.40765l-.06732-.06726A3.91676,3.91676,0,0,0,670.26,551.678a3.95712,3.95712,0,0,0-2.80487,1.16187H667.455a3.96585,3.96585,0,0,0,.01935,5.61584l.03222.03217A62.37534,62.37534,0,0,1,679.092,574.45018a4.05006,4.05006,0,0,1-7.218,3.67572,54.0797,54.0797,0,0,0-5.235-8.33405,4.89086,4.89086,0,0,0-3.90039-1.934,4.831,4.831,0,0,0-3.42237,1.4137,4.93663,4.93663,0,0,0-.39917,6.45959,45.18832,45.18832,0,0,1,6.37537,11.77484,4.1143,4.1143,0,0,1-2.14911,5.19019,4.05107,4.05107,0,0,1-5.43988-2.337l-.00476.00171a36.71172,36.71172,0,0,0-19.04993-20.90521q-.9298-.43671-1.87548-.81769l.00518-.01538a4.05292,4.05292,0,0,1,2.62134-7.66571l.00116-.00342.05255.02118a4.07934,4.07934,0,0,1,.543.21857q1.05789.43268,2.10083.92a45.40072,45.40072,0,0,1,8.24243,4.99579,4.67774,4.67774,0,0,0,2.846.95978,4.76289,4.76289,0,0,0,3.39789-1.42462,4.86983,4.86983,0,0,0-.46057-7.35071,54.51177,54.51177,0,0,0-84.02423,24.76978,4.61516,4.61516,0,0,0,3.5036,6.11706l.1532.02814a4.61222,4.61222,0,0,0,5.17914-2.98914q.33415-.91635.70867-1.81689a4.05424,4.05424,0,0,1,3.89447-2.92981q.10649,0,.21442.00555a4.05315,4.05315,0,0,1,3.41016,5.86243l.04394.01727a36.886,36.886,0,0,0-2.8858,14.36249h-.005a4.05346,4.05346,0,0,1-4.05352,4.05347q-.13853,0-.27918-.00934a4.1103,4.1103,0,0,1-3.77423-4.14868q.00475-2.10783.20154-4.18207a4.61205,4.61205,0,0,0-3.75952-4.96967l-.1499-.02746a4.65731,4.65731,0,0,0-.841-.07691,4.60385,4.60385,0,0,0-4.58368,4.158q-.243,2.578-.244,5.2027h-.00507a4.05342,4.05342,0,0,1-4.05347,4.05347c-.09338,0-.18768-.00318-.28241-.00959a4.10736,4.10736,0,0,1-3.771-4.13354,62.3709,62.3709,0,0,1,18.32165-44.14282,69.5579,69.5579,0,0,1,11.33685-9.01624,4.10471,4.10471,0,0,0,1.27-5.47894,3.07121,3.07121,0,0,0-3.003-1.95783,4.206,4.206,0,0,0-2.07684.54273,63.11971,63.11971,0,0,0-13.12415,10.31323,70.23779,70.23779,0,0,0-14.64166,21.33551l-.01166-.00513a4.05406,4.05406,0,0,1-3.83258,2.73389c-.062,0-.12445-.0014-.187-.00421a4.05425,4.05425,0,0,1-3.383-5.97034l-.0169-.00738a78.50159,78.50159,0,0,1,71.3277-46.83c.02777-.00061.05529-.00213.08319-.00213l.03363.00085.07934-.00085m-.00006-3h-.01483l-.04749.00048-.05059-.00048c-.04737,0-.0943.001-.1413.0025a81.65734,81.65734,0,0,0-74.01367,48.61719q-.04147.09393-.0763.18994a7.05449,7.05449,0,0,0,6.08558,9.99713c.10748.00488.21508.00726.32171.00726a7.05546,7.05546,0,0,0,6.54169-4.41583q.0239-.04908.04614-.09937a67.2783,67.2783,0,0,1,14.01941-20.42779,59.78393,59.78393,0,0,1,12.53192-9.85352,1.272,1.272,0,0,1,.54767-.12372.70873.70873,0,0,1,.19586.02277c.00251.00952.01532.03381.03058.071q.04459.109.0976.21424c.55023,1.09173-.04108,1.48889-.26361,1.63836a72.37746,72.37746,0,0,0-11.78553,9.38532,65.37053,65.37053,0,0,0-19.20031,46.26,7.11254,7.11254,0,0,0,6.56823,7.13086c.16272.011.32477.01642.48523.01642a7.0618,7.0618,0,0,0,7.04975-6.8227q.00869-.11425.00879-.23077c0-1.641.07763-3.29681.23071-4.9212a1.61,1.61,0,0,1,1.59692-1.43946,1.66272,1.66272,0,0,1,.29926.02759l.15136.02771a1.6033,1.6033,0,0,1,1.31311,1.73688c-.13916,1.4743-.21148,2.97394-.21484,4.45715a7.1164,7.1164,0,0,0,6.57367,7.14874q.242.01621.47974.01606a7.06228,7.06228,0,0,0,7.04986-6.82392q.00861-.1137.00867-.22955a33.77633,33.77633,0,0,1,2.65009-13.19684,2.99618,2.99618,0,0,0,.15667-.48157,7.05306,7.05306,0,0,0-6.22076-9.55981c-.12317-.00635-.24646-.00952-.36872-.00952a7.08646,7.08646,0,0,0-6.72161,4.91589c-.24445.593-.47968,1.19879-.7,1.803a1.64393,1.64393,0,0,1-1.52789,1.093,1.61816,1.61816,0,0,1-.2912-.02674l-.15295-.02813a1.61522,1.61522,0,0,1-1.22626-2.14057,51.48593,51.48593,0,0,1,79.39026-23.4068,1.86993,1.86993,0,0,1,.17346,2.82142l-.03662.03656a1.754,1.754,0,0,1-1.25934.52856,1.68061,1.68061,0,0,1-1.02649-.345,48.51936,48.51936,0,0,0-8.78662-5.32593c-.68616-.32227-1.41235-.64111-2.15985-.9483a7.1213,7.1213,0,0,0-.72955-.29407,3.00275,3.00275,0,0,0-.3924-.12164,7.05283,7.05283,0,0,0-4.75824,13.23559,2.99635,2.99635,0,0,0,.31415.149c.59955.24292,1.18042.49615,1.72662.75262a33.73126,33.73126,0,0,1,17.50336,19.20807q.03991.11059.0874.21607a7.05394,7.05394,0,0,0,13.14783-5.114,48.19778,48.19778,0,0,0-6.79889-12.55535,1.9332,1.9332,0,0,1,.11792-2.52649,1.821,1.821,0,0,1,1.3075-.54151,1.89322,1.89322,0,0,1,1.51519.75348,51.234,51.234,0,0,1,4.94489,7.87177,7.04351,7.04351,0,0,0,9.01868,3.2818,7.04713,7.04713,0,0,0,3.551-9.67029,65.46587,65.46587,0,0,0-12.14032-16.72809,1.02707,1.02707,0,0,1-.32849-.73212.92777.92777,0,0,1,.27692-.67328.96281.96281,0,0,1,.68359-.28314.91442.91442,0,0,1,.658.26978l.05078.05066a67.22238,67.22238,0,0,1,19.40668,40.61065,1.0214,1.0214,0,0,1-.23853.80487.85808.85808,0,0,1-.65912.288h-.00012a.91873.91873,0,0,1-.92578-.82544c-.20667-2.05475-.51569-4.1272-.91834-6.15979a3.01329,3.01329,0,0,0-.15472-.52606,7.0464,7.0464,0,0,0-6.8092-5.21351H680.668a7.21622,7.21622,0,0,0-.73535.03791,7.05281,7.05281,0,0,0-6.00745,9.08209,51.21891,51.21891,0,0,1-.24682,19.78644,2.99875,2.99875,0,0,0-.04938.89038q-.01319.21387-.01318.42609a7.053,7.053,0,0,0,14.08776.5086,66.32538,66.32538,0,0,0,1.02674-7.95477.92224.92224,0,0,1,.91571-.85987l.06891.0011a.91975.91975,0,0,1,.66241.29718.89245.89245,0,0,1,.24133.67249,66.91807,66.91807,0,0,1-5.17419,22.1156c-.083.19629-.16772.39166-.25244.587q-.02436.05595-.04614.11231a7.05335,7.05335,0,0,0,5.70245,10.1051c.21594.01941.4306.02887.64276.02887a7.03037,7.03037,0,0,0,6.53168-4.389q.056-.10446.10364-.21392.15893-.36558.31512-.73261a81.65805,81.65805,0,0,0-42.62573-106.58618,7.07906,7.07906,0,0,0-3.12634-.731q-.19345,0-.3891.01062a7.05375,7.05375,0,0,0-2.75965,13.35486,2.94652,2.94652,0,0,0,.33887.17224,67.37055,67.37055,0,0,1,12.44067,6.98541.91776.91776,0,0,1,.38611.68213.93541.93541,0,0,1-.27734.75006.96956.96956,0,0,1-.68537.28131,1.02157,1.02157,0,0,1-.59411-.19158,65.33343,65.33343,0,0,0-37.87549-12.03968c-8.28564,0-14.7254.6922-23.09674,4.22553l-.8974.34509a2.70825,2.70825,0,0,1-.9151.18536.80775.80775,0,0,1-.73627-.29736q-.03634-.07214-.07641-.142a1.08545,1.08545,0,0,1,.62976-1.382,73.86569,73.86569,0,0,1,24.76117-4.84808,3.03858,3.03858,0,0,0,.32074-.022,7.05242,7.05242,0,0,0-.1167-14.07911q-.125-.01052-.25147-.01055Z" style="fill: #516e7d"/>
        </g>
        <g>
          <path d="M622.72,682.79808a79.58246,79.58246,0,0,1-30.61914-6.291q-.72363-.30762-1.4375-.627a1.48558,1.48558,0,0,1-.44726-.30859,5.55313,5.55313,0,0,1,2.27734-10.333c.17188-.01563.34082-.02246.50781-.02246a5.52943,5.52943,0,0,1,2.95508.85058l.47266.20508q.86425.36621,1.7334.70508a2.40947,2.40947,0,0,0,.88476.16894,2.4582,2.4582,0,0,0,2.33106-1.68652l.00781-.02148a2.46713,2.46713,0,0,0-1.459-3.05274q-.79687-.312-1.58789-.64648a64.23924,64.23924,0,0,1-33.78613-33.40625,5.55291,5.55291,0,1,1,9.72168-5.33789,1.3941,1.3941,0,0,1,.20508.34082,53.18209,53.18209,0,0,0,36.12988,30.81152,3.11662,3.11662,0,0,0,.73828.08984,3.03233,3.03233,0,0,0,3.01856-2.68847l.03613-.31934a3.02285,3.02285,0,0,0-2.26855-3.27734,45.94751,45.94751,0,0,1-15.51661-7.03906,5.55369,5.55369,0,0,1,2.10645-10.42383c.17383-.01563.34668-.02344.51758-.02344a5.51058,5.51058,0,0,1,3.02832.89746,1.41066,1.41066,0,0,1,.3584.18652,35.127,35.127,0,0,0,20.6455,6.625,37.641,37.641,0,0,0,7.33887-.73242,33.25223,33.25223,0,0,0,11.91211-4.90625,35.825,35.825,0,0,0,14.09082-17.708,1.49523,1.49523,0,0,1,.126-.26464,5.59217,5.59217,0,0,1,5.29492-3.88086c.14258,0,.28613.00488.43164.01562a5.55347,5.55347,0,0,1,4.57617,7.94043,1.52068,1.52068,0,0,1-.05273.18067,46.091,46.091,0,0,1-3.36914,7.17675,3.35918,3.35918,0,0,0,.77246,4.27442l.72265.60156a3.32857,3.32857,0,0,0,2.15528.7832,3.36509,3.36509,0,0,0,2.918-1.6582q.49658-.835.958-1.68359a1.487,1.487,0,0,1,.22168-.30762,5.52238,5.52238,0,0,1,4.75293-2.68652,5.65784,5.65784,0,0,1,1.19922.12988,5.59355,5.59355,0,0,1,4.35254,5.70019,5.52752,5.52752,0,0,1-1.09668,3.0459,63.60141,63.60141,0,0,1-14.958,17.998,5.5641,5.5641,0,0,1-4.37207,2.13769h0a5.55132,5.55132,0,0,1-4.11816-9.2832,1.49648,1.49648,0,0,1,.47266-.6543c1.39257-1.10839,2.74121-2.29492,4.00781-3.52636a3.297,3.297,0,0,0,1.0039-2.52149,3.39921,3.39921,0,0,0-1.2207-2.47754l-.583-.48632a3.32442,3.32442,0,0,0-2.15039-.77832,3.40837,3.40837,0,0,0-2.42676,1.01074,46.28829,46.28829,0,0,1-32.96,13.67285h-.00195a3.05876,3.05876,0,0,0-3.08691,2.69141l-.03516.31054a3.0476,3.0476,0,0,0,.752,2.36621,2.96885,2.96885,0,0,0,2.23438,1.00782h.13769a52.86931,52.86931,0,0,0,18.38282-3.26368,1.48924,1.48924,0,0,1,.51953-.09277,1.43841,1.43841,0,0,1,.24218.01953,5.5353,5.5353,0,0,1,1.19336-.1289c.15235,0,.30567.00585.46094.01855a5.5855,5.5855,0,0,1,5.07422,5.07422,5.55314,5.55314,0,0,1-4.93164,5.98047,64.47335,64.47335,0,0,1-34.98438,1.96289,2.49923,2.49923,0,0,0-.55078-.06153,2.45855,2.45855,0,0,0-2.33886,1.67676,2.46032,2.46032,0,0,0,1.7998,3.17969,69.29689,69.29689,0,0,0,14.7627,1.66016,1.54968,1.54968,0,0,1,.1914.01269,5.5529,5.5529,0,0,1-.16894,11.09766c-.01074,0-.10157.00195-.11133.00195C622.79621,682.8,622.7386,682.79905,622.72,682.79808Z" style="fill: #a7cc6b"/>
          <path d="M662.03736,612.18138q.15693,0,.31665.012a4.05293,4.05293,0,0,1,3.1814,6.08869l.04755.01867a44.4595,44.4595,0,0,1-3.25836,6.943,4.87069,4.87069,0,0,0,1.11029,6.17926l.72284.60174a4.88194,4.88194,0,0,0,7.32251-1.26214q.50985-.85758.98718-1.73383l.03924.02142a4.05717,4.05717,0,0,1,3.61658-2.23108,4.14147,4.14147,0,0,1,.88129.09552,4.05387,4.05387,0,0,1,2.31622,6.45612,62.10021,62.10021,0,0,1-14.79193,17.77911,4.05478,4.05478,0,0,1-3.28088,1.68042,4.12133,4.12133,0,0,1-.71973-.06372,4.05215,4.05215,0,0,1-1.90039-7.08557l-.09076-.114q2.16284-1.72119,4.11963-3.62543a4.87122,4.87122,0,0,0-.303-7.228l-.58246-.4848a4.84543,4.84543,0,0,0-3.11059-1.12567,4.92124,4.92124,0,0,0-3.48816,1.45117l-.03217.03223a44.77065,44.77065,0,0,1-31.86621,13.19934h-.04565a4.5448,4.5448,0,0,0-4.53388,4.02283l-.03516.31134a4.52717,4.52717,0,0,0,4.47321,5.04205l.14148.00025a54.45722,54.45722,0,0,0,18.902-3.35633l.04974.13361a4.04458,4.04458,0,0,1,1.38641-.24359q.16755,0,.33814.01379a4.05309,4.05309,0,0,1-.05328,8.08215,62.96814,62.96814,0,0,1-34.33783,1.97669,4.01925,4.01925,0,0,0-.87891-.0976,3.95755,3.95755,0,0,0-.86737,7.82087,70.60587,70.60587,0,0,0,15.08276,1.69549v.00739a4.05224,4.05224,0,0,1,0,8.1029v.00177l-.04889-.00055-.03222.00086c-.02674,0-.053-.00153-.07971-.002a78.06407,78.06407,0,0,1-30.04957-6.173q-.70844-.29957-1.40881-.61347l.02722-.06231a4.05361,4.05361,0,0,1,1.32471-7.71637q.18933-.017.37506-.01691a4.03378,4.03378,0,0,1,2.24085.6759c.20044.08722.39953.1767.60113.262q.88165.37289,1.77069.72088a3.917,3.917,0,0,0,1.4306.27137,3.96463,3.96463,0,0,0,3.75409-2.71082l.00074-.00207a3.96481,3.96481,0,0,0-2.32727-4.94452q-.77829-.305-1.55036-.63147a62.73482,62.73482,0,0,1-33.04327-32.73053,4.0528,4.0528,0,0,1,2.94775-6.24579,4.17483,4.17483,0,0,1,.44562-.02381,4.05429,4.05429,0,0,1,3.77679,2.58173l.04688-.01984a54.68895,54.68895,0,0,0,37.15649,31.68537,4.60285,4.60285,0,0,0,1.09339.13244,4.53453,4.53453,0,0,0,4.50909-4.021l.03577-.31659a4.52074,4.52074,0,0,0-3.40174-4.905,44.55345,44.55345,0,0,1-15.09039-6.86438,4.05352,4.05352,0,0,1,1.46069-7.64661q.19245-.01758.38117-.01745a4.03456,4.03456,0,0,1,2.4754.84472l.03455-.043a36.67886,36.67886,0,0,0,21.52191,6.90662,38.99689,38.99689,0,0,0,7.63269-.76129,34.9316,34.9316,0,0,0,12.44605-5.12665,37.38166,37.38166,0,0,0,14.673-18.44781l.05383.02111a4.054,4.054,0,0,1,3.95764-3.17779m.00019-3h-.00019a7.1026,7.1026,0,0,0-6.67572,4.77765,2.99972,2.99972,0,0,0-.15625.35693,34.3359,34.3359,0,0,1-13.509,16.96869,31.75663,31.75663,0,0,1-11.37652,4.68585,36.1033,36.1033,0,0,1-7.04578.70331,33.6375,33.6375,0,0,1-19.76978-6.3418,3.0111,3.0111,0,0,0-.5653-.32068,6.98,6.98,0,0,0-3.69678-1.04583q-.3241,0-.65454.03a7.05341,7.05341,0,0,0-2.76239,13.19372,47.42281,47.42281,0,0,0,15.95288,7.21887,1.52064,1.52064,0,0,1,1.1333,1.65393l-.03577.31684a1.53552,1.53552,0,0,1-1.52807,1.35772,1.61035,1.61035,0,0,1-.38166-.04681A51.68894,51.68894,0,0,1,575.86116,622.751a2.99572,2.99572,0,0,0-.30848-.55658,7.00577,7.00577,0,0,0-6.27838-3.83753h-.00116a7.22267,7.22267,0,0,0-.76281.04071A7.05327,7.05327,0,0,0,563.2187,629.027a65.73625,65.73625,0,0,0,34.53662,34.093q.80905.34213,1.62457.66168a.96741.96741,0,0,1,.57788,1.196l-.00262.00788a.96039.96039,0,0,1-.90833.66034.92336.92336,0,0,1-.33721-.065q-.85118-.33315-1.6955-.6903c-.11749-.04969-.23437-.1012-.3512-.15265l-.00756-.0033a7.02448,7.02448,0,0,0-3.65174-1.01886q-.31915,0-.64435.029a7.02458,7.02458,0,0,0-6.38635,6.4524,7.09708,7.09708,0,0,0,3.33478,6.57873,3.00062,3.00062,0,0,0,.74695.47534q.72765.32456,1.4624.63672a81.05379,81.05379,0,0,0,31.16333,6.40955c.047.00146.09045.00232.13428.00232l.05182-.00049.01727.00018h.01208q.09834,0,.19605-.00641a7.05221,7.05221,0,0,0,.14343-14.08655,3.02091,3.02091,0,0,0-.324-.019,67.835,67.835,0,0,1-14.44294-1.62311.95757.95757,0,0,1,.212-1.89331,1.025,1.025,0,0,1,.22351.02515,65.977,65.977,0,0,0,35.6499-1.95673,7.05438,7.05438,0,0,0,6.08844-7.57171,7.10318,7.10318,0,0,0-6.44909-6.44812c-.19495-.01587-.38892-.02362-.58088-.02362a7.06227,7.06227,0,0,0-1.26733.114q-.08423-.00484-.16919-.00482a2.992,2.992,0,0,0-1.03918.18664,51.37645,51.37645,0,0,1-17.86243,3.17048l-.13043-.00025a1.49355,1.49355,0,0,1-1.12207-.506,1.52727,1.52727,0,0,1-.38117-1.199l.03522-.31176a1.54815,1.54815,0,0,1,1.5528-1.35944,47.77821,47.77821,0,0,0,34.03314-14.078l.0365-.03656a1.91569,1.91569,0,0,1,1.36267-.56818h.00012a1.84148,1.84148,0,0,1,1.191.43134l.58264.48492a1.87794,1.87794,0,0,1,.68115,1.38391,1.81916,1.81916,0,0,1-.55047,1.38751c-1.23279,1.1988-2.54364,2.35242-3.89624,3.42878a2.99989,2.99989,0,0,0-.8183,1.01208,7.0526,7.0526,0,1,0,10.846,9.01734,65.10752,65.10752,0,0,0,15.14563-18.24018,7.02269,7.02269,0,0,0,1.33087-3.78326,7.05224,7.05224,0,0,0-7.04962-7.40644,7.00857,7.00857,0,0,0-5.97809,3.315,2.84152,2.84152,0,0,0-.31263.45984c-.29779.54681-.61108,1.0971-.93121,1.63556a1.87849,1.87849,0,0,1-1.62915.925,1.84842,1.84842,0,0,1-1.19531-.43548l-.72278-.60169a1.86375,1.86375,0,0,1-.43372-2.37,47.61322,47.61322,0,0,0,3.47809-7.41144q.03378-.09192.06122-.18451a7.054,7.054,0,0,0-5.8786-9.9494q-.2742-.02079-.54376-.02063Z" style="fill: #516e7d"/>
        </g>
      </g>
      <path d="M645.55657,602.408v0a23.23929,23.23929,0,0,0-11.61964-20.12582h0a23.23929,23.23929,0,0,0-23.23929,0h0A23.23929,23.23929,0,0,0,599.07794,602.408v0a23.23928,23.23928,0,0,0,11.61964,20.12581l0,0a23.23929,23.23929,0,0,0,23.23929,0l0,0A23.23928,23.23928,0,0,0,645.55657,602.408Z" style="fill: #f5edd1;stroke: #529e33;stroke-miterlimit: 10;stroke-width: 6px"/>
    </g>
    <g style="opacity: 0.16">
      <g>
        <g>
          <path d="M345.15417,674.44163a5.55261,5.55261,0,0,1-3.31055-10.01074,1.50389,1.50389,0,0,1,.59082-.5498,52.63923,52.63923,0,0,0,16.40918-13.14844,1.47433,1.47433,0,0,1,.28027-.26074,5.55405,5.55405,0,0,1,9.49512,5.08593,5.54087,5.54087,0,0,1-1.667,2.77637,63.67569,63.67569,0,0,1-18.165,14.75391,5.54315,5.54315,0,0,1-3.63281,1.35351Z" style="fill: #a7cc6b"/>
          <path d="M363.22961,650.15678a4.05416,4.05416,0,0,1,2.64831,7.12427A62.10275,62.10275,0,0,1,347.918,671.853a4.053,4.053,0,1,1-4.728-6.50971l-.06689-.12939a54.34189,54.34189,0,0,0,16.8739-13.52179l.03436.02863a4.06408,4.06408,0,0,1,3.19825-1.56391m0-3a7.11011,7.11011,0,0,0-5.13526,2.21991,2.84729,2.84729,0,0,0-.4035.39661,51.17045,51.17045,0,0,1-15.94507,12.77539,2.99951,2.99951,0,0,0-.999.834,7.05273,7.05273,0,1,0,8.8919,10.94934,65.11059,65.11059,0,0,0,18.39515-14.955,7.02247,7.02247,0,0,0,2.03924-3.45282,7.05478,7.05478,0,0,0-6.8435-8.7674Z" style="fill: #516e7d"/>
        </g>
        <g>
          <path d="M375.04674,638.3137c-.168,0-.33691-.00683-.50781-.02246a5.60168,5.60168,0,0,1-5.02637-5.0664,5.54526,5.54526,0,0,1,.56934-2.9502,1.09352,1.09352,0,0,1,.043-.11133l.25781-.59961a68.41534,68.41534,0,0,0,5.29-22.60937,2.42,2.42,0,0,0-2.374-2.5586h-.00293a2.44651,2.44651,0,0,0-2.50489,2.25684,64.88081,64.88081,0,0,1-1.02246,7.86621,5.55291,5.55291,0,0,1-11.09668-.31836c0-.16894.00782-.33984.02442-.51172a1.34542,1.34542,0,0,1,.00683-.5,52.7012,52.7012,0,0,0,.23731-20.4541,5.53613,5.53613,0,0,1-.21582-2.47558,5.55481,5.55481,0,0,1,10.89062-.57129,1.45394,1.45394,0,0,1,.10352.32129c.39355,1.98828.69531,4.01367.89648,6.01855a2.41157,2.41157,0,0,0,2.40918,2.17383,2.37737,2.37737,0,0,0,1.78809-.78906,2.5092,2.5092,0,0,0,.61133-1.959,68.72911,68.72911,0,0,0-19.82422-41.50195,2.45395,2.45395,0,0,0-3.52735-.05078,2.42927,2.42927,0,0,0-.71679,1.74023,2.47878,2.47878,0,0,0,.73437,1.75293,64.00591,64.00591,0,0,1,11.89649,16.37891,5.54993,5.54993,0,0,1-9.89356,5.03222,52.733,52.733,0,0,0-5.08984-8.10254,3.38319,3.38319,0,0,0-2.708-1.34472,3.33494,3.33494,0,0,0-2.36426.97754,3.43937,3.43937,0,0,0-.25879,4.49414,46.69874,46.69874,0,0,1,6.58692,12.16406,5.61207,5.61207,0,0,1-2.96,7.07813,5.55043,5.55043,0,0,1-7.40039-3.07032c-.02051-.043-.03809-.08691-.05469-.13183a35.221,35.221,0,0,0-18.27637-20.05664c-.59472-.2793-1.19433-.53907-1.7998-.78418a1.55371,1.55371,0,0,1-.20606-.10157,5.50842,5.50842,0,0,1-3.13867-3.60351,5.55083,5.55083,0,0,1,6.85156-6.83594,1.46981,1.46981,0,0,1,.22657.06836,5.49142,5.49142,0,0,1,.66406.26758q1.06933.438,2.126.93262a46.94183,46.94183,0,0,1,8.51465,5.16015,3.16954,3.16954,0,0,0,1.93653.65235,3.24108,3.24108,0,0,0,2.32812-.97657,3.3715,3.3715,0,0,0-.29785-5.10449,53.01189,53.01189,0,0,0-81.708,24.08887,3.11416,3.11416,0,0,0,2.36524,4.12793l.15625.02929a3.1127,3.1127,0,0,0,3.49609-2.02832c.22168-.60644.45605-1.21.70313-1.80566a5.57852,5.57852,0,0,1,5.30957-3.92773c.09668,0,.19335.00293.291.00781a5.55319,5.55319,0,0,1,4.84766,7.65137,1.39852,1.39852,0,0,1-.08887.30957A35.28307,35.28307,0,0,0,271.37682,602.72a1.381,1.381,0,0,1-.00683.14258,5.56054,5.56054,0,0,1-5.55274,5.41211c-.125,0-.251-.00488-.3789-.0127a5.61527,5.61527,0,0,1-5.17383-5.64941c.0039-1.44629.07422-2.89941.209-4.32031a3.09556,3.09556,0,0,0-2.53711-3.35254l-.14844-.02734a3.15879,3.15879,0,0,0-.57226-.05274,3.122,3.122,0,0,0-3.08984,2.79883c-.15723,1.6709-.23731,3.374-.23731,5.06152a1.37821,1.37821,0,0,1-.00684.14258,5.55927,5.55927,0,0,1-5.55078,5.41113c-.12695,0-.25586-.00488-.38476-.01367a5.60718,5.60718,0,0,1-5.16992-5.63086A63.87269,63.87269,0,0,1,261.538,557.427a71.01609,71.01609,0,0,1,11.56055-9.20019,2.64088,2.64088,0,0,0,.7666-3.55957c-.01757-.03516-.03418-.07031-.04882-.10645a1.55821,1.55821,0,0,0-1.61426-1.02636,2.70976,2.70976,0,0,0-1.3125.334,61.19192,61.19192,0,0,0-12.82813,10.083,68.78192,68.78192,0,0,0-14.33008,20.88183c-.01464.03223-.02929.06348-.04589.09375a5.55416,5.55416,0,0,1-5.1709,3.52832c-.084,0-.16895-.00195-.25391-.00586a5.55517,5.55517,0,0,1-4.75976-7.9375,1.391,1.391,0,0,1,.05566-.1455A80.00041,80.00041,0,0,1,306.245,522.6428h.17578c.02441.001.07324.002.07324.002a5.55238,5.55238,0,0,1,.17676,11.09277,1.59738,1.59738,0,0,1-.19532.01563,74.27354,74.27354,0,0,0-25.27832,4.94824,2.5862,2.5862,0,0,0-1.42675,3.4707,1.4971,1.4971,0,0,1,.07617.12988,2.26643,2.26643,0,0,0,2.07519,1.12012,4.24143,4.24143,0,0,0,1.46875-.291l.92676-.35645c8.15723-3.45117,14.21094-4.1084,22.5127-4.1084a63.84222,63.84222,0,0,1,37.00781,11.7627,2.51269,2.51269,0,0,0,1.46191.46875,2.45877,2.45877,0,0,0,2.458-2.65332,2.42293,2.42293,0,0,0-1.01172-1.78223,68.96733,68.96733,0,0,0-12.71777-7.14258,1.44044,1.44044,0,0,1-.21094-.11035,5.55377,5.55377,0,0,1,2.1211-10.54c.10351-.00586.20605-.00781.30761-.00781a5.56689,5.56689,0,0,1,2.49219.59082A80.161,80.161,0,0,1,380.61706,633.8928l-.3086.7168a1.43526,1.43526,0,0,1-.08789.17285A5.53749,5.53749,0,0,1,375.04674,638.3137Z" style="fill: #a7cc6b"/>
          <path d="M306.452,524.1411v.00286a4.0522,4.0522,0,0,1,0,8.10132v.00788a76.30662,76.30662,0,0,0-25.79505,5.04931,4.0849,4.0849,0,0,0-2.17584,5.64942l.02563.0249a3.74737,3.74737,0,0,0,3.41437,1.94549,5.71274,5.71274,0,0,0,1.992-.38531l.94336-.36279c7.71466-3.263,13.531-4.00788,21.97387-4.00788a62.333,62.333,0,0,1,36.13959,11.48645,4.02063,4.02063,0,0,0,2.33.74481,3.95962,3.95962,0,0,0,2.79474-1.14813l.00189-.00183a3.94024,3.94024,0,0,0-.48126-6.00824,70.14848,70.14848,0,0,0-12.99555-7.29724l.00525-.01208a4.0537,4.0537,0,0,1,1.39533-7.76294q.11334-.00622.2254-.00617a4.03428,4.03428,0,0,1,1.8529.44867A78.66038,78.66038,0,0,1,379.235,633.309q-.14979.35394-.30353.70563l-.02564-.01123a4.05454,4.05454,0,0,1-3.85846,2.81024q-.18538,0-.37457-.01684a4.05291,4.05291,0,0,1-3.15564-6.028l-.01678-.00738c.08844-.2038.17676-.40766.26336-.61243a69.81877,69.81877,0,0,0,5.40583-23.10449,3.91989,3.91989,0,0,0-3.84345-4.14893l-.05029-.00091-.07361-.00068a3.91976,3.91976,0,0,0-3.90881,3.6579,63.0693,63.0693,0,0,1-1.01789,7.78894,4.0529,4.0529,0,1,1-8.043-.83532l-.06049-.01252a54.3626,54.3626,0,0,0,.22308-21.13629,4.05262,4.05262,0,0,1,3.40064-5.35742,4.19971,4.19971,0,0,1,.42981-.02216,4.05405,4.05405,0,0,1,3.98767,3.32917l.03363-.00666q.58008,2.92813.87616,5.877a3.91838,3.91838,0,0,0,3.90088,3.52527l.04022-.00019a3.92265,3.92265,0,0,0,3.85132-4.40326,70.22206,70.22206,0,0,0-20.25556-42.40765l-.06732-.06726a3.91676,3.91676,0,0,0-2.77643-1.14557,3.95713,3.95713,0,0,0-2.80487,1.16187h-.00006a3.96585,3.96585,0,0,0,.01935,5.61584l.03223.03217a62.37507,62.37507,0,0,1,11.58538,15.96228,4.05006,4.05006,0,0,1-7.218,3.67572,54.07977,54.07977,0,0,0-5.235-8.33405,4.89084,4.89084,0,0,0-3.90039-1.934,4.831,4.831,0,0,0-3.42236,1.4137,4.93661,4.93661,0,0,0-.39917,6.45959,45.18829,45.18829,0,0,1,6.37536,11.77484,4.11431,4.11431,0,0,1-2.1491,5.19019,4.05108,4.05108,0,0,1-5.43989-2.337l-.00476.00171A36.71174,36.71174,0,0,0,322.205,569.45567q-.92982-.43671-1.87549-.81769l.00519-.01538a4.05292,4.05292,0,0,1,2.62133-7.66571l.00116-.00342.05256.02118a4.08043,4.08043,0,0,1,.543.21857q1.05789.43268,2.10083.92a45.40072,45.40072,0,0,1,8.24243,4.99579,4.67772,4.67772,0,0,0,2.846.95978,4.76289,4.76289,0,0,0,3.39788-1.42462,4.86983,4.86983,0,0,0-.46057-7.35071,54.51178,54.51178,0,0,0-84.02423,24.76978,4.61516,4.61516,0,0,0,3.5036,6.11706l.1532.02814a4.61222,4.61222,0,0,0,5.17914-2.98914q.33417-.91635.70868-1.81689a4.05423,4.05423,0,0,1,3.89447-2.92981c.071,0,.14258.00183.21441.00555a4.05315,4.05315,0,0,1,3.41016,5.86243l.04395.01727a36.8858,36.8858,0,0,0-2.88581,14.36249h-.005a4.05347,4.05347,0,0,1-4.05353,4.05347q-.13853,0-.27917-.00934a4.1103,4.1103,0,0,1-3.77424-4.14868q.00477-2.10783.20154-4.18207a4.61205,4.61205,0,0,0-3.75952-4.96967l-.1499-.02746a4.6572,4.6572,0,0,0-.841-.07691,4.60383,4.60383,0,0,0-4.58368,4.158q-.243,2.578-.244,5.2027h-.00507a4.05342,4.05342,0,0,1-4.05346,4.05347c-.09339,0-.18769-.00318-.28241-.00959a4.10736,4.10736,0,0,1-3.77106-4.13354,62.3709,62.3709,0,0,1,18.32165-44.14282,69.55755,69.55755,0,0,1,11.33686-9.01624,4.10471,4.10471,0,0,0,1.27-5.47894,3.07122,3.07122,0,0,0-3.003-1.95783,4.20609,4.20609,0,0,0-2.07685.54273,63.11992,63.11992,0,0,0-13.12414,10.31323,70.23782,70.23782,0,0,0-14.64167,21.33551l-.01165-.00513a4.05407,4.05407,0,0,1-3.83258,2.73389c-.06195,0-.12445-.0014-.187-.00421a4.05424,4.05424,0,0,1-3.383-5.97034l-.01691-.00738a78.50162,78.50162,0,0,1,71.3277-46.83c.02777-.00061.0553-.00213.08319-.00213l.03363.00085.07935-.00085m-.00006-3h-.01484l-.04748.00048-.0506-.00048c-.04736,0-.0943.001-.1413.0025A81.65738,81.65738,0,0,0,232.184,569.76079q-.04147.09393-.07629.18994a7.05447,7.05447,0,0,0,6.08557,9.99713c.10748.00488.21509.00726.32172.00726a7.05544,7.05544,0,0,0,6.54168-4.41583q.02389-.04908.04615-.09937a67.27809,67.27809,0,0,1,14.0194-20.42779,59.784,59.784,0,0,1,12.53193-9.85352,1.2719,1.2719,0,0,1,.54766-.12372.70888.70888,0,0,1,.19587.02277c.0025.00952.01532.03381.03057.071q.0446.109.0976.21424c.55023,1.09173-.04108,1.48889-.26361,1.63836a72.377,72.377,0,0,0-11.78552,9.38532,65.37059,65.37059,0,0,0-19.20032,46.26,7.11254,7.11254,0,0,0,6.56824,7.13086c.16272.011.32476.01642.48523.01642a7.0618,7.0618,0,0,0,7.04974-6.8227q.0087-.11425.00879-.23077c0-1.641.07764-3.29681.23071-4.9212a1.61,1.61,0,0,1,1.59693-1.43946,1.66261,1.66261,0,0,1,.29925.02759l.15137.02771a1.60331,1.60331,0,0,1,1.31311,1.73688c-.13916,1.4743-.21149,2.97394-.21485,4.45715a7.1164,7.1164,0,0,0,6.57367,7.14874q.242.01621.47974.01606a7.0623,7.0623,0,0,0,7.04987-6.82392q.00859-.1137.00866-.22955a33.77633,33.77633,0,0,1,2.65009-13.19684,2.99622,2.99622,0,0,0,.15668-.48157,7.05308,7.05308,0,0,0-6.22077-9.55981c-.12317-.00635-.24646-.00952-.36871-.00952a7.08648,7.08648,0,0,0-6.72162,4.91589c-.24445.593-.47968,1.19879-.7,1.803a1.644,1.644,0,0,1-1.5279,1.093,1.61805,1.61805,0,0,1-.29119-.02674l-.153-.02813a1.61523,1.61523,0,0,1-1.22626-2.14057,51.48593,51.48593,0,0,1,79.39026-23.4068,1.86992,1.86992,0,0,1,.17346,2.82142l-.03662.03656a1.754,1.754,0,0,1-1.25933.52856,1.68059,1.68059,0,0,1-1.02649-.345,48.51971,48.51971,0,0,0-8.78662-5.32593c-.68616-.32227-1.41236-.64111-2.15986-.9483a7.1213,7.1213,0,0,0-.72955-.29407,3.00262,3.00262,0,0,0-.39239-.12164,7.05283,7.05283,0,0,0-4.75824,13.23559,2.99523,2.99523,0,0,0,.31414.149c.59955.24292,1.18042.49615,1.72663.75262A33.73124,33.73124,0,0,1,338.433,591.37913q.03993.11059.08741.21607a7.05393,7.05393,0,0,0,13.14782-5.114,48.19748,48.19748,0,0,0-6.79889-12.55535,1.93323,1.93323,0,0,1,.11792-2.52649,1.821,1.821,0,0,1,1.3075-.54151,1.89324,1.89324,0,0,1,1.5152.75348,51.23475,51.23475,0,0,1,4.94488,7.87177,7.04351,7.04351,0,0,0,9.01868,3.2818,7.04713,7.04713,0,0,0,3.551-9.67029,65.46563,65.46563,0,0,0-12.14032-16.72809,1.02707,1.02707,0,0,1-.32849-.73212.92781.92781,0,0,1,.27692-.67328.96284.96284,0,0,1,.68359-.28314.91442.91442,0,0,1,.658.26978l.05078.05066a67.22238,67.22238,0,0,1,19.40668,40.61065,1.02144,1.02144,0,0,1-.23852.80487.85811.85811,0,0,1-.65912.288h-.00013a.91874.91874,0,0,1-.92578-.82544c-.20666-2.05475-.51568-4.1272-.91833-6.15979a3.01418,3.01418,0,0,0-.15473-.52606,7.0464,7.0464,0,0,0-6.8092-5.21351h-.00153a7.21652,7.21652,0,0,0-.73535.03791,7.05279,7.05279,0,0,0-6.00744,9.08209,51.21911,51.21911,0,0,1-.24683,19.78644,2.99875,2.99875,0,0,0-.04938.89038q-.01318.21387-.01318.42609a7.053,7.053,0,0,0,14.08777.5086,66.32738,66.32738,0,0,0,1.02673-7.95477.92224.92224,0,0,1,.91571-.85987l.06891.0011a.91973.91973,0,0,1,.66241.29718.89249.89249,0,0,1,.24134.67249,66.91808,66.91808,0,0,1-5.1742,22.1156c-.083.19629-.16772.39166-.25244.587q-.02435.05595-.04614.11231a7.05336,7.05336,0,0,0,5.70245,10.1051c.216.01941.43061.02887.64276.02887a7.03037,7.03037,0,0,0,6.53168-4.389q.056-.10446.10364-.21392.15894-.36558.31512-.73261a81.65805,81.65805,0,0,0-42.62573-106.58618,7.079,7.079,0,0,0-3.12634-.731q-.19345,0-.3891.01062a7.05375,7.05375,0,0,0-2.75964,13.35486,2.9472,2.9472,0,0,0,.33886.17224,67.37063,67.37063,0,0,1,12.44068,6.98541.91783.91783,0,0,1,.38611.68213.93546.93546,0,0,1-.27735.75006.96954.96954,0,0,1-.68536.28131,1.02159,1.02159,0,0,1-.59412-.19158,65.33343,65.33343,0,0,0-37.87549-12.03968c-8.28564,0-14.7254.6922-23.09674,4.22553l-.8974.34509a2.7082,2.7082,0,0,1-.9151.18536.80772.80772,0,0,1-.73626-.29736q-.03636-.07214-.07642-.142a1.08545,1.08545,0,0,1,.62976-1.382,73.86575,73.86575,0,0,1,24.76117-4.84808,3.03839,3.03839,0,0,0,.32074-.022,7.05242,7.05242,0,0,0-.1167-14.07911q-.125-.01052-.25146-.01055Z" style="fill: #516e7d"/>
        </g>
        <g>
          <path d="M306.27624,682.79808a79.58239,79.58239,0,0,1-30.61914-6.291q-.72365-.30762-1.4375-.627a1.4855,1.4855,0,0,1-.44727-.30859,5.55313,5.55313,0,0,1,2.27734-10.333c.17188-.01563.34082-.02246.50782-.02246a5.5294,5.5294,0,0,1,2.95507.85058l.47266.20508q.86425.36621,1.7334.70508a2.40951,2.40951,0,0,0,.88476.16894,2.45819,2.45819,0,0,0,2.33106-1.68652l.00781-.02148a2.46713,2.46713,0,0,0-1.459-3.05274q-.79687-.312-1.58789-.64648a64.23921,64.23921,0,0,1-33.78614-33.40625,5.55291,5.55291,0,1,1,9.72168-5.33789,1.39379,1.39379,0,0,1,.20508.34082,53.18209,53.18209,0,0,0,36.12988,30.81152,3.11671,3.11671,0,0,0,.73829.08984,3.03232,3.03232,0,0,0,3.01855-2.68847l.03613-.31934a3.02284,3.02284,0,0,0-2.26855-3.27734,45.94746,45.94746,0,0,1-15.5166-7.03906,5.55369,5.55369,0,0,1,2.10644-10.42383c.17383-.01563.34668-.02344.51758-.02344a5.51055,5.51055,0,0,1,3.02832.89746,1.41066,1.41066,0,0,1,.3584.18652,35.127,35.127,0,0,0,20.64551,6.625,37.64081,37.64081,0,0,0,7.33886-.73242,33.25215,33.25215,0,0,0,11.91211-4.90625,35.825,35.825,0,0,0,14.09082-17.708,1.49664,1.49664,0,0,1,.126-.26464,5.59217,5.59217,0,0,1,5.29492-3.88086c.14258,0,.28614.00488.43164.01562a5.55347,5.55347,0,0,1,4.57617,7.94043,1.52068,1.52068,0,0,1-.05273.18067,46.091,46.091,0,0,1-3.36914,7.17675,3.35918,3.35918,0,0,0,.77246,4.27442l.72266.60156a3.32852,3.32852,0,0,0,2.15527.7832,3.36509,3.36509,0,0,0,2.918-1.6582q.49658-.835.958-1.68359a1.48626,1.48626,0,0,1,.22168-.30762,5.52238,5.52238,0,0,1,4.75293-2.68652,5.65784,5.65784,0,0,1,1.19922.12988,5.59355,5.59355,0,0,1,4.35253,5.70019,5.52744,5.52744,0,0,1-1.09668,3.0459,63.60155,63.60155,0,0,1-14.958,17.998,5.56411,5.56411,0,0,1-4.37207,2.13769h0a5.55132,5.55132,0,0,1-4.11817-9.2832,1.49648,1.49648,0,0,1,.47266-.6543c1.39258-1.10839,2.74121-2.29492,4.00781-3.52636a3.297,3.297,0,0,0,1.00391-2.52149,3.39918,3.39918,0,0,0-1.22071-2.47754l-.583-.48632a3.32442,3.32442,0,0,0-2.15039-.77832,3.40836,3.40836,0,0,0-2.42676,1.01074,46.28829,46.28829,0,0,1-32.96,13.67285h-.002a3.05878,3.05878,0,0,0-3.08691,2.69141l-.03516.31054a3.04757,3.04757,0,0,0,.752,2.36621,2.96883,2.96883,0,0,0,2.23437,1.00782h.1377a52.86921,52.86921,0,0,0,18.38281-3.26368,1.48928,1.48928,0,0,1,.51953-.09277,1.43853,1.43853,0,0,1,.24219.01953,5.53524,5.53524,0,0,1,1.19336-.1289c.15234,0,.30566.00585.46094.01855a5.58549,5.58549,0,0,1,5.07421,5.07422,5.55314,5.55314,0,0,1-4.93164,5.98047,64.47331,64.47331,0,0,1-34.98437,1.96289,2.49923,2.49923,0,0,0-.55078-.06153,2.45855,2.45855,0,0,0-2.33887,1.67676,2.46033,2.46033,0,0,0,1.7998,3.17969,69.297,69.297,0,0,0,14.7627,1.66016,1.54984,1.54984,0,0,1,.19141.01269,5.5529,5.5529,0,0,1-.16895,11.09766c-.01074,0-.10156.00195-.11133.00195C306.35241,682.8,306.29479,682.79905,306.27624,682.79808Z" style="fill: #a7cc6b"/>
          <path d="M345.59356,612.18138q.15691,0,.31665.012a4.05292,4.05292,0,0,1,3.18139,6.08869l.04755.01867a44.4595,44.4595,0,0,1-3.25836,6.943,4.87072,4.87072,0,0,0,1.11029,6.17926l.72284.60174a4.88194,4.88194,0,0,0,7.32251-1.26214q.50985-.85758.98718-1.73383l.03925.02142a4.05716,4.05716,0,0,1,3.61657-2.23108,4.14147,4.14147,0,0,1,.88129.09552,4.05385,4.05385,0,0,1,2.31622,6.45612A62.1,62.1,0,0,1,348.085,651.14988a4.05476,4.05476,0,0,1-3.28088,1.68042,4.12133,4.12133,0,0,1-.71973-.06372A4.05216,4.05216,0,0,1,342.184,645.681l-.09076-.114q2.16285-1.72119,4.11963-3.62543a4.87121,4.87121,0,0,0-.303-7.228l-.58246-.4848a4.84543,4.84543,0,0,0-3.11059-1.12567,4.92128,4.92128,0,0,0-3.48816,1.45117l-.03217.03223a44.77065,44.77065,0,0,1-31.86621,13.19934h-.04565a4.54481,4.54481,0,0,0-4.53388,4.02283l-.03515.31134a4.52717,4.52717,0,0,0,4.4732,5.04205l.14148.00025a54.45714,54.45714,0,0,0,18.902-3.35633l.04974.13361a4.04464,4.04464,0,0,1,1.38642-.24359q.16754,0,.33813.01379a4.05309,4.05309,0,0,1-.05328,8.08215,62.96814,62.96814,0,0,1-34.33783,1.97669,4.01925,4.01925,0,0,0-.87891-.0976,3.95755,3.95755,0,0,0-.86737,7.82087,70.606,70.606,0,0,0,15.08277,1.69549v.00739a4.05224,4.05224,0,0,1,0,8.1029v.00177l-.04889-.00055-.03223.00086c-.02673,0-.053-.00153-.07971-.002a78.064,78.064,0,0,1-30.04956-6.173q-.70844-.29957-1.40882-.61347l.02723-.06231a4.05361,4.05361,0,0,1,1.3247-7.71637q.18933-.017.37506-.01691a4.03378,4.03378,0,0,1,2.24085.6759c.20044.08722.39954.1767.60113.262q.88165.37289,1.7707.72088a3.91694,3.91694,0,0,0,1.4306.27137,3.96464,3.96464,0,0,0,3.75409-2.71082l.00073-.00207a3.9648,3.9648,0,0,0-2.32727-4.94452q-.77829-.305-1.55035-.63147a62.73479,62.73479,0,0,1-33.04328-32.73053,4.05281,4.05281,0,0,1,2.94776-6.24579,4.1745,4.1745,0,0,1,.44561-.02381,4.0543,4.0543,0,0,1,3.7768,2.58173l.04687-.01984a54.689,54.689,0,0,0,37.1565,31.68537,4.60277,4.60277,0,0,0,1.09338.13244,4.53453,4.53453,0,0,0,4.50909-4.021l.03577-.31659a4.52074,4.52074,0,0,0-3.40173-4.905,44.55328,44.55328,0,0,1-15.09039-6.86438,4.05352,4.05352,0,0,1,1.46069-7.64661q.19243-.01758.38116-.01745a4.03459,4.03459,0,0,1,2.47541.84472l.03454-.043a36.67886,36.67886,0,0,0,21.52191,6.90662,38.99689,38.99689,0,0,0,7.63269-.76129,34.93153,34.93153,0,0,0,12.446-5.12665,37.38166,37.38166,0,0,0,14.673-18.44781l.05384.02111a4.054,4.054,0,0,1,3.95764-3.17779m.00018-3h-.00018a7.10259,7.10259,0,0,0-6.67572,4.77765,2.99648,2.99648,0,0,0-.15625.35693,34.336,34.336,0,0,1-13.509,16.96869,31.75668,31.75668,0,0,1-11.37653,4.68585,36.1033,36.1033,0,0,1-7.04578.70331,33.63747,33.63747,0,0,1-19.76977-6.3418,3.01117,3.01117,0,0,0-.56531-.32068,6.98,6.98,0,0,0-3.69678-1.04583q-.32409,0-.65454.03a7.05341,7.05341,0,0,0-2.76239,13.19372,47.42281,47.42281,0,0,0,15.95288,7.21887,1.52063,1.52063,0,0,1,1.1333,1.65393l-.03576.31684a1.53553,1.53553,0,0,1-1.52808,1.35772,1.61021,1.61021,0,0,1-.38165-.04681A51.689,51.689,0,0,1,259.41735,622.751a2.99568,2.99568,0,0,0-.30847-.55658,7.00578,7.00578,0,0,0-6.27838-3.83753h-.00116a7.22286,7.22286,0,0,0-.76282.04071,7.05327,7.05327,0,0,0-5.29163,10.62946,65.73634,65.73634,0,0,0,34.53662,34.093q.80906.34213,1.62458.66168a.96743.96743,0,0,1,.57788,1.196l-.00263.00788a.96038.96038,0,0,1-.90832.66034.92337.92337,0,0,1-.33722-.065q-.85116-.33315-1.6955-.6903c-.11749-.04969-.23437-.1012-.35119-.15265l-.00757-.0033a7.02447,7.02447,0,0,0-3.65173-1.01886q-.31916,0-.64435.029a7.02458,7.02458,0,0,0-6.38636,6.4524,7.0971,7.0971,0,0,0,3.33478,6.57873,3.00062,3.00062,0,0,0,.747.47534q.72766.32456,1.4624.63672a81.05387,81.05387,0,0,0,31.16333,6.40955c.047.00146.09046.00232.13428.00232l.05182-.00049.01727.00018h.01209q.09832,0,.196-.00641a7.05221,7.05221,0,0,0,.14344-14.08655,3.02109,3.02109,0,0,0-.324-.019,67.835,67.835,0,0,1-14.44293-1.62311.95757.95757,0,0,1,.212-1.89331,1.02492,1.02492,0,0,1,.22351.02515A65.977,65.977,0,0,0,328.11,664.73948a7.05438,7.05438,0,0,0,6.08844-7.57171,7.1032,7.1032,0,0,0-6.4491-6.44812c-.195-.01587-.38892-.02362-.58087-.02362a7.06238,7.06238,0,0,0-1.26734.114q-.08423-.00484-.16919-.00482a2.992,2.992,0,0,0-1.03918.18664,51.37641,51.37641,0,0,1-17.86243,3.17048l-.13043-.00025a1.49358,1.49358,0,0,1-1.12207-.506,1.52727,1.52727,0,0,1-.38116-1.199l.03521-.31176a1.54815,1.54815,0,0,1,1.5528-1.35944,47.77819,47.77819,0,0,0,34.03314-14.078l.0365-.03656a1.91572,1.91572,0,0,1,1.36267-.56818h.00012a1.84148,1.84148,0,0,1,1.191.43134l.58264.48492a1.878,1.878,0,0,1,.68116,1.38391,1.81918,1.81918,0,0,1-.55048,1.38751c-1.23279,1.1988-2.54364,2.35242-3.89624,3.42878a3,3,0,0,0-.8183,1.01208A7.0526,7.0526,0,1,0,350.2528,653.249a65.10752,65.10752,0,0,0,15.14563-18.24018,7.02269,7.02269,0,0,0,1.33087-3.78326,7.05224,7.05224,0,0,0-7.04962-7.40644,7.0086,7.0086,0,0,0-5.97809,3.315,2.84146,2.84146,0,0,0-.31262.45984c-.29779.54681-.61109,1.0971-.93122,1.63556a1.87849,1.87849,0,0,1-1.62915.925,1.84842,1.84842,0,0,1-1.19531-.43548l-.72278-.60169a1.86373,1.86373,0,0,1-.43371-2.37,47.61414,47.61414,0,0,0,3.47809-7.41144q.03378-.09192.06121-.18451a7.054,7.054,0,0,0-5.8786-9.9494q-.2742-.02079-.54376-.02063Z" style="fill: #516e7d"/>
        </g>
      </g>
      <path d="M329.11277,602.408v0a23.2393,23.2393,0,0,0-11.61965-20.12582h0a23.23931,23.23931,0,0,0-23.2393,0h0A23.2393,23.2393,0,0,0,282.63413,602.408v0a23.23929,23.23929,0,0,0,11.61965,20.12581l0,0a23.23931,23.23931,0,0,0,23.2393,0l0,0A23.23929,23.23929,0,0,0,329.11277,602.408Z" style="fill: #f5edd1;stroke: #529e33;stroke-miterlimit: 10;stroke-width: 6px"/>
    </g>
  </g>
</svg>
