<svg xmlns="http://www.w3.org/2000/svg" xmlns:xlink="http://www.w3.org/1999/xlink" width="619.82694mm" height="619.82694mm" viewBox="0 0 1756.98975 1756.98975">
  <defs>
    <clipPath id="bc26f8c9-6e33-4ff7-b0ac-92dd58e3fb87">
      <rect width="1756.98975" height="1756.98975" style="fill: none"/>
    </clipPath>
  </defs>
  <title>alle_figuren_v2</title>
  <g id="f872cd17-af1f-4b3d-a849-9591389d0877" data-name="Ebene 1">
    <g style="clip-path: url(#bc26f8c9-6e33-4ff7-b0ac-92dd58e3fb87)">
      <g>
        <path d="M1465.85338,355.01871V-441.99487a574.74209,574.74209,0,0,0-287.371-497.74124l-690.234-398.50679a574.74208,574.74208,0,0,0-574.74207,0l-690.234,398.50679a574.74209,574.74209,0,0,0-287.371,497.74124V355.01871a574.74207,574.74207,0,0,0,287.371,497.74123l690.234,398.50679a574.74208,574.74208,0,0,0,574.74207,0l690.234-398.50679A574.74207,574.74207,0,0,0,1465.85338,355.01871Z" style="fill: #d1e2a4;stroke: #a7cc6b;stroke-miterlimit: 10;stroke-width: 18px"/>
        <path d="M379.64283-34.87309v-.00019a160.42823,160.42823,0,0,0-80.21412-138.93493l-.00016-.00009a160.42822,160.42822,0,0,0-160.42824,0l-.00016.00009A160.42823,160.42823,0,0,0,58.786-34.87328v.00019a160.42823,160.42823,0,0,0,80.21412,138.93493l.00016.00009a160.42822,160.42822,0,0,0,160.42824,0l.00016-.00009A160.42823,160.42823,0,0,0,379.64283-34.87309Z" style="fill: #f5edd1;stroke: #529e33;stroke-miterlimit: 10;stroke-width: 18px"/>
        <g>
          <g>
            <path d="M490.38854,459.04386a34.97826,34.97826,0,0,1-20.29-63.47754,6.99764,6.99764,0,0,1,3.04785-3.08984A366.87538,366.87538,0,0,0,587.46569,300.873a6.982,6.982,0,0,1,1.57519-1.39941,34.98514,34.98514,0,0,1,60.06836,31.75,34.84488,34.84488,0,0,1-10.66015,17.63085A435.94526,435.94526,0,0,1,513.535,450.28116a34.89426,34.89426,0,0,1-23.1455,8.7627Z" style="fill: #a7cc6b"/>
            <path d="M615.16222,294.752a27.98682,27.98682,0,0,1,18.282,49.18072A428.702,428.702,0,0,1,509.46129,444.52738a27.97932,27.97932,0,1,1-32.63891-44.93848l-.46192-.89349A375.13872,375.13872,0,0,0,592.84655,305.3505l.23706.19726A28.05591,28.05591,0,0,1,615.16222,294.752m0-14a42.31809,42.31809,0,0,0-30.78247,13.44507,14.03559,14.03559,0,0,0-2.29517,2.19909A359.92431,359.92431,0,0,1,469.933,386.258a13.999,13.999,0,0,0-5.10815,4.5047,41.9775,41.9775,0,1,0,52.71753,65.30719A442.82834,442.82834,0,0,0,643.48205,353.742a41.98943,41.98943,0,0,0-28.31983-72.99Z" style="fill: #516e7d"/>
          </g>
          <g>
            <path d="M696.744,209.63956c-1.06445,0-2.14453-.04883-3.21192-.14453a34.978,34.978,0,0,1-27.959-50.71387,6.9255,6.9255,0,0,1,.2627-.70605q.90379-2.083,1.79394-4.17188A475.61169,475.61169,0,0,0,704.40612-3.28524a19.82363,19.82363,0,0,0-5.28418-14.771,19.92342,19.92342,0,0,0-14.3877-6.45166l-.72851-.01025A20.1133,20.1133,0,0,0,664.0067-5.7955a444.45762,444.45762,0,0,1-7.03906,54.11768,34.97891,34.97891,0,0,1-69.91211-1.791c0-1.11133.05567-2.23437.165-3.36133a6.98606,6.98606,0,0,1-.01953-2.9414,367.18,367.18,0,0,0,1.60449-142.71631,34.86586,34.86586,0,0,1-1.415-15.79785,35.22077,35.22077,0,0,1,30.96387-29.92188,36.27226,36.27226,0,0,1,3.68457-.18994,34.937,34.937,0,0,1,34.00293,26.77344,6.9512,6.9512,0,0,1,.62207,1.80273c2.69629,13.60791,4.76465,27.48,6.14746,41.23145A19.99443,19.99443,0,0,0,682.77623-60.5538l.207-.00146a19.62811,19.62811,0,0,0,14.6416-6.56934,20.92922,20.92922,0,0,0,5.05273-16.10254,475.50152,475.50152,0,0,0-35.04883-136.11181,477.94266,477.94266,0,0,0-102.76855-152.417l-.40625-.40527a20.04849,20.04849,0,0,0-14.27637-5.91748,20.24872,20.24872,0,0,0-14.41211,5.9707,20.09612,20.09612,0,0,0-5.92773,14.40528,20.44685,20.44685,0,0,0,6.05664,14.45947l.22656.22607a438.21971,438.21971,0,0,1,81.27246,111.9795,34.96317,34.96317,0,0,1,1.62305,27.731,35.116,35.116,0,0,1-19.24316,20.20215,34.84163,34.84163,0,0,1-13.62989,2.76709A34.63558,34.63558,0,0,1,555.077-199.3331a367.38037,367.38037,0,0,0-35.46094-56.4541,26.67623,26.67623,0,0,0-21.36035-10.59668,26.35911,26.35911,0,0,0-18.69141,7.72461c-9.38281,9.32569-10.28516,24.55078-2.09961,35.41553a318.99874,318.99874,0,0,1,45,83.10645c6.42481,17.67871-1.75293,37.28564-18.61816,44.6372a34.90973,34.90973,0,0,1-14.02735,2.9419,35.08269,35.08269,0,0,1-32.63183-22.38135,6.85286,6.85286,0,0,1-.30762-.72314,246.47949,246.47949,0,0,0-127.89941-140.355c-3.99414-1.87548-8.2334-3.72363-12.59961-5.49267a7.01314,7.01314,0,0,1-1.11231-.56983,34.709,34.709,0,0,1-19.998-22.80615,35.06022,35.06022,0,0,1,19.69921-41.42822,34.90727,34.90727,0,0,1,14.00391-2.93262,34.89226,34.89226,0,0,1,9.60059,1.34815,6.89381,6.89381,0,0,1,1.14941.34277l.18262.07324a35.26469,35.26469,0,0,1,4.209,1.69629c5.06055,2.07276,9.97949,4.229,14.62305,6.41016a321.158,321.158,0,0,1,58.16992,35.2583,25.18144,25.18144,0,0,0,15.40137,5.19092,25.7202,25.7202,0,0,0,18.46679-7.74366c.02833-.0288.05665-.05712.08594-.08544a26.63488,26.63488,0,0,0,7.92383-20.70362,26.544,26.544,0,0,0-10.43359-19.47217c-64.25391-48.814-141.2041-74.61523-222.53223-74.61523A368.3371,368.3371,0,0,0,97.76061-378.81161a365.92093,365.92093,0,0,0-132.74316,85.292A365.763,365.763,0,0,0-120.881-159.11923a24.81081,24.81081,0,0,0,1.79,20.854,24.80918,24.80918,0,0,0,17.082,12.0957l1.05566.19385a24.919,24.919,0,0,0,4.48633.41015,25.10365,25.10365,0,0,0,23.42871-16.5581c1.52637-4.18506,3.16016-8.38281,4.86035-12.4834A35.13826,35.13826,0,0,1-34.6847-179.49325q.91552,0,1.84082.04736A34.92942,34.92942,0,0,1,.22741-146.76425a35.11746,35.11746,0,0,1-2.63965,15.75293,7.021,7.021,0,0,1-.49707,1.86572A246.8,246.8,0,0,0-22.28138-32.71688a7.0494,7.0494,0,0,1-.043.77734A35.02455,35.02455,0,0,1-57.299,2.26554c-.793,0-1.59863-.02686-2.39453-.08008C-78.0099.9589-92.32337-14.69638-92.28041-33.45468c.02149-9.81933.5-19.74853,1.42188-29.51172A24.70441,24.70441,0,0,0-111.1056-89.73056l-1.03516-.18994a25.22377,25.22377,0,0,0-4.541-.416,24.63221,24.63221,0,0,0-24.67481,22.36084c-1.09668,11.6333-1.65332,23.49658-1.65332,35.25879a7.0494,7.0494,0,0,1-.043.77734A35.02562,35.02562,0,0,1-178.02748,2.266c-.80273,0-1.61718-.02784-2.42187-.08252-18.28516-1.23877-32.58692-16.84522-32.55957-35.5293a436.09025,436.09025,0,0,1,34.499-170.19482A437.29522,437.29522,0,0,1-84.47865-343.01718C-59.42494-368.07138-36.42689-385.127-5.17-406.12069c14.9082-10.0127,7.96191-25.79834,6.418-28.86084q-.123-.2461-.22753-.50049c-3.09961-7.57568-9.46094-9.166-14.251-9.166a22.01388,22.01388,0,0,0-10.76856,2.76953c-32.84082,19.45508-59.52246,40.42627-89.21875,70.12256a478.06509,478.06509,0,0,0-99.625,145.16748q-.13329.301-.29.5835a34.99413,34.99413,0,0,1-32.6504,22.42236c-.53125,0-1.06738-.01172-1.60449-.03564a35.18714,35.18714,0,0,1-33.34472-33.41358,35.03853,35.03853,0,0,1,3.46191-16.78271,7.09447,7.09447,0,0,1,.32324-.89258A547.81281,547.81281,0,0,1-162.71595-421.25351,547.59281,547.59281,0,0,1,11.92956-538.99569a545.948,545.948,0,0,1,209.875-43.16455l.0498-.00293c.19043-.00635.38086-.01123.57324-.01123.10352,0,.39746.0039.39746.0039s.375-.0039.38282-.0039a7.02067,7.02067,0,0,1,.77246.04248A34.787,34.787,0,0,1,257.411-547.192a34.7835,34.7835,0,0,1-33.04785,34.92138,6.94987,6.94987,0,0,1-1.04492.09522C148.63952-510.99667,86.57506-492.82479,47.66-477.78768a20.95961,20.95961,0,0,0-12.14648,12.15722,20.9377,20.9377,0,0,0,.53125,16.49512,7.16439,7.16439,0,0,1,.499.83887c2.22754,4.41992,8.10157,9.58154,17.32032,9.58154a32.65825,32.65825,0,0,0,11.31152-2.22119l6.335-2.437c56.03125-23.68164,97.47168-28.17432,154.30957-28.17432a436.124,436.124,0,0,1,170.82324,34.49951,438.10923,438.10923,0,0,1,82.71,46.08594,20.69413,20.69413,0,0,0,12.03418,3.85107,20.28329,20.28329,0,0,0,14.36621-5.89941c.01954-.01953.04-.03858.05957-.05762a20.20864,20.20864,0,0,0,5.88477-15.98535,20.07724,20.07724,0,0,0-8.38379-14.769,478.8,478.8,0,0,0-88.418-49.64746,7.04445,7.04445,0,0,1-1.14453-.624A34.877,34.877,0,0,1,393.911-506.44052,35.119,35.119,0,0,1,426.94713-540.565q.97413-.05273,1.93653-.05273a35.082,35.082,0,0,1,15.77832,3.76318A547.66637,547.66637,0,0,1,614.35631-421.25351a547.59754,547.59754,0,0,1,117.74317,174.646A546.07483,546.07483,0,0,1,775.29381-32.71688a546.07182,546.07182,0,0,1-43.19433,213.88964q-1.04591,2.47413-2.12207,4.93457a7.11182,7.11182,0,0,1-.54395,1.01661A34.869,34.869,0,0,1,696.744,209.63956Z" style="fill: #a7cc6b"/>
            <path d="M223.208-575.17456v.01969a27.97706,27.97706,0,0,1,27.20251,27.963A27.97681,27.97681,0,0,1,223.208-519.229v.05451c-78.35608,1.23666-142.88831,21.26266-178.07141,34.857a28.1995,28.1995,0,0,0-15.02027,39l.17688.17167c3.4021,6.75015,11.57361,13.4307,23.57044,13.4307a39.44007,39.44007,0,0,0,13.75122-2.66L74.12743-436.88c53.25684-22.52533,93.40857-27.66732,151.69275-27.66732a429.15929,429.15929,0,0,1,168.09668,33.94665,429.70431,429.70431,0,0,1,81.386,45.34784,27.75624,27.75624,0,0,0,16.085,5.142A27.336,27.336,0,0,0,510.681-388.037l.01294-.01283a27.2005,27.2005,0,0,0-3.32251-41.47667,484.23927,484.23927,0,0,0-89.7124-50.37516l.03662-.0835a27.98285,27.98285,0,0,1-16.78711-26.297A28.14715,28.14715,0,0,1,427.328-533.575q.78333-.04269,1.5564-.04248a27.85171,27.85171,0,0,1,12.79077,3.09732A540.58809,540.58809,0,0,1,609.40709-416.30372,540.63937,540.63937,0,0,1,725.65221-243.88038a539.10077,539.10077,0,0,1,42.6416,211.1635,539.10158,539.10158,0,0,1-42.6416,211.16317q-1.03344,2.4435-2.095,4.87134l-.177-.07751a27.98976,27.98976,0,0,1-26.636,19.39981q-1.2799,0-2.58618-.11631a27.97816,27.97816,0,0,1-21.78418-41.613l-.11621-.05084q.91626-2.11025,1.81836-4.228A481.98071,481.98071,0,0,0,711.39391-2.86587a27.05952,27.05952,0,0,0-26.53223-28.641l-.34716-.00633c-.16993-.00314-.33887-.0047-.5083-.0047A27.05884,27.05884,0,0,0,657.02233-6.26638a435.37109,435.37109,0,0,1-7.02661,53.76965,27.97843,27.97843,0,1,1-55.5232-5.76648l-.41748-.08667a375.28054,375.28054,0,0,0,1.54-145.91034,28.04452,28.04452,0,0,1-1.26977-13.07016,28.02518,28.02518,0,0,1,24.74536-23.914,28.93644,28.93644,0,0,1,2.967-.153A27.98718,27.98718,0,0,1,649.566-118.41488l.23218-.046q4.00414,20.21352,6.04834,40.571A27.04949,27.04949,0,0,0,682.775-53.554c.09253,0,.18555-.00047.27808-.00141C699.34533-53.71922,711.327-67.74655,709.64-83.95222A481.48071,481.48071,0,0,0,674.076-222.066a484.90771,484.90771,0,0,0-104.2666-154.63966q-.23219-.23226-.46485-.46434a27.03864,27.03864,0,0,0-19.1665-7.90859,27.31742,27.31742,0,0,0-19.363,8.02093l-.00024.00016a27.37737,27.37737,0,0,0,.13379,38.768l.22217.222a430.57866,430.57866,0,0,1,79.97754,110.19284,27.93822,27.93822,0,0,1-14.09864,38.32183v.00017a27.9749,27.9749,0,0,1-10.90625,2.21541,27.78323,27.78323,0,0,1-24.82324-15.16292,373.32233,373.32233,0,0,0-36.13867-57.53266,33.763,33.763,0,0,0-26.92578-13.35067,33.34923,33.34923,0,0,0-23.62549,9.75933c-12.00562,11.932-12.94165,31.074-2.75586,44.59267a311.94908,311.94908,0,0,1,44.01123,81.28517c5.08838,13.99916-1.18164,29.87784-14.83594,35.8295A28.03671,28.03671,0,0,1,489.81945-99.558a27.99433,27.99433,0,0,1-26.323-18.49225l-.03272.01166a253.434,253.434,0,0,0-131.50756-144.315q-6.41913-3.015-12.94751-5.64483l.036-.106a27.92331,27.92331,0,0,1-17.033-18.66884,28.08825,28.08825,0,0,1,15.75061-33.12266,28.03,28.03,0,0,1,11.21142-2.35117,27.92662,27.92662,0,0,1,8.167,1.2235l.00818-.02316c.121.04766.24157.098.36267.14583a28.14808,28.14808,0,0,1,3.74853,1.509q7.303,2.9865,14.50269,6.35116A313.41,313.41,0,0,1,412.663-278.55288a32.2905,32.2905,0,0,0,19.64673,6.62569,32.87984,32.87984,0,0,0,23.45679-9.83486,33.618,33.618,0,0,0-3.1792-50.74416c-64.94336-49.33751-143.80261-76.04117-226.76709-76.04117A375.93911,375.93911,0,0,0,95.33471-385.37822,374.67426,374.67426,0,0,0-39.93177-298.46938a374.58233,374.58233,0,0,0-87.527,136.9565,31.86019,31.86019,0,0,0,24.18616,42.22849l1.05761.194a31.8155,31.8155,0,0,0,5.74878.52513,32.03035,32.03035,0,0,0,30.0044-21.16q2.30694-6.326,4.89245-12.54283a27.98775,27.98775,0,0,1,26.88489-20.22518q.73517,0,1.48.03818A28.10382,28.10382,0,0,1-6.75941-146.32121a27.90678,27.90678,0,0,1-2.90393,14.33649l.30371.119A254.63348,254.63348,0,0,0-29.2815-32.71688h-.03467A27.98218,27.98218,0,0,1-57.29872-4.7344q-.95617,0-1.92724-.06464c-14.84278-.994-26.08838-13.76333-26.05469-28.63934q.033-14.551,1.39136-28.87033a31.838,31.838,0,0,0-25.953-34.30684l-1.03479-.19a32.12758,32.12758,0,0,0-5.80529-.53084,31.782,31.782,0,0,0-31.64307,28.70367q-1.6778,17.79726-1.68457,35.91584h-.03455A27.982,27.982,0,0,1-178.02711-4.73437q-.96679,0-1.94946-.06619c-14.78577-1.00165-26.05335-13.71549-26.03284-28.535a429.12465,429.12465,0,0,1,33.94678-167.478,430.34,430.34,0,0,1,92.5332-137.254c25.55786-25.55783,48.657-42.35817,78.262-62.24217,16.78223-11.27167,13.25269-28.92216,8.76685-37.82266C3.41613-448.11364-5.06495-451.648-13.23109-451.648A29.03341,29.03341,0,0,0-27.568-447.90121C-62.46168-427.229-89.09413-405.78-118.1681-376.70571A484.873,484.873,0,0,0-219.24452-229.42l-.08032-.03516a27.98714,27.98714,0,0,1-26.45764,18.87289c-.42761,0-.85889-.00965-1.29077-.02906a28.14281,28.14281,0,0,1-26.66565-26.72133,27.89827,27.89827,0,0,1,3.31177-14.494l-.1167-.051a540.6071,540.6071,0,0,1,112.77807-164.426A540.62324,540.62324,0,0,1,14.656-532.54888a538.88583,538.88583,0,0,1,207.198-42.61118c.19153-.00382.3816-.0145.5741-.0145.07776,0,.1543.00534.23218.00583.18274-.001.365-.005.54773-.00583m-.77991-14c-.27637,0-.55066.00666-.82483.01593A552.88251,552.88251,0,0,0,9.20238-545.44287,554.55812,554.55812,0,0,0-167.66529-426.20321a554.761,554.761,0,0,0-115.68433,168.6675q-.24756.56019-.44385,1.136a42.05587,42.05587,0,0,0-3.93261,19.66782,42.235,42.235,0,0,0,40.02392,40.10634c.63281.02866,1.27966.04315,1.91968.04315a41.996,41.996,0,0,0,39.02856-26.51334q.16407-.32457.313-.66115a471.10909,471.10909,0,0,1,98.17224-143.04934c29.64807-29.64833,55.09607-49.65349,87.83655-69.05A15.09077,15.09077,0,0,1-13.231-437.648c5.80237,0,7.13318,3.253,7.77271,4.81633q.208.509.45569,1.00033a20.49688,20.49688,0,0,1,2.156,10.40517c-.22986,2.435-1.12536,6.06834-6.22668,9.49451-31.61524,21.23416-54.89893,38.508-80.35572,63.96466a444.27719,444.27719,0,0,0-95.52771,141.69983A443.06358,443.06358,0,0,0-220.00941-33.355c-.03088,22.3575,17.13794,41.0355,39.08643,42.5225.9613.06516,1.93567.09818,2.89587.09818a42.03106,42.03106,0,0,0,41.96533-40.77216q.05145-.59833.05176-1.21035c0-11.53817.546-23.18,1.62268-34.60184a17.87848,17.87848,0,0,1,17.70483-16.01766,18.19756,18.19756,0,0,1,3.27784.30083l1.03418.18984A17.74252,17.74252,0,0,1-97.82728-63.62455c-.94165,9.97416-1.43054,20.1195-1.45337,30.15434C-99.33131-11.03237-82.14808,7.69727-60.16151,9.16962c.95007.06366,1.91333.096,2.86267.096A42.031,42.031,0,0,0-15.33338-31.50653q.05163-.59833.05188-1.21035a239.84211,239.84211,0,0,1,18.8219-93.709,13.99185,13.99185,0,0,0,.82189-2.66317,42.126,42.126,0,0,0,2.85022-18.11683A41.8608,41.8608,0,0,0-5.20191-174.344a41.86506,41.86506,0,0,0-27.2826-12.0925c-.73181-.03767-1.47168-.05666-2.2-.05666a42.17618,42.17618,0,0,0-40.08838,29.51688c-1.69238,4.09522-3.3197,8.2816-4.84167,12.45445a18.07949,18.07949,0,0,1-16.85181,11.95667,17.89185,17.89185,0,0,1-3.22058-.295l-1.05994-.1945a17.82286,17.82286,0,0,1-12.26965-8.68933,17.82419,17.82419,0,0,1-1.28613-14.98184,358.80972,358.80972,0,0,1,84.27038-131.844A358.97642,358.97642,0,0,1,100.1859-372.24555a361.35474,361.35474,0,0,1,125.63428-22.30183A362.28388,362.28388,0,0,1,341.5006-375.75821a357.84553,357.84553,0,0,1,102.61768,54.39983,19.28937,19.28937,0,0,1,7.68139,14.34083,19.63973,19.63973,0,0,1-5.842,15.26633q-.08643.08477-.17114.17084a18.76955,18.76955,0,0,1-13.47681,5.65316,18.23878,18.23878,0,0,1-11.15576-3.75683,328.20073,328.20073,0,0,0-59.43945-36.0285c-4.68506-2.20079-9.65039-4.379-14.76343-6.47713a42.32116,42.32116,0,0,0-4.63892-1.86993l-.032-.01277a13.99424,13.99424,0,0,0-2.01489-.62312,41.87315,41.87315,0,0,0-11.29138-1.55155,41.863,41.863,0,0,0-16.79785,3.514,42.088,42.088,0,0,0-23.64612,49.7335,41.63082,41.63082,0,0,0,23.55066,27.16835,14.10564,14.10564,0,0,0,1.671.80832c4.25451,1.72367,8.37683,3.52066,12.25293,5.34116a239.52523,239.52523,0,0,1,124.29028,136.395q.20948.57994.46338,1.12934a42.10291,42.10291,0,0,0,39.06128,26.59948A41.86742,41.86742,0,0,0,506.64367-89.083c20.24633-8.825,30.08545-32.30133,22.39965-53.446a326.00989,326.00989,0,0,0-45.98754-84.92733c-6.09229-8.0855-5.47168-19.36534,1.44336-26.238a19.40121,19.40121,0,0,1,13.75659-5.68917,19.72892,19.72892,0,0,1,15.79467,7.84167,360.4066,360.4066,0,0,1,34.78443,55.37549,41.60176,41.60176,0,0,0,37.30859,22.829,41.80172,41.80172,0,0,0,16.35474-3.31917,42.14074,42.14074,0,0,0,23.0918-24.244,41.98566,41.98566,0,0,0-1.95215-33.30016A445.20752,445.20752,0,0,0,541.07018-347.967l-.14209-.14217-.08008-.07983a13.50234,13.50234,0,0,1-4.01074-9.546,13.1479,13.1479,0,0,1,3.8772-9.423,13.29613,13.29613,0,0,1,9.46362-3.92067,13.05042,13.05042,0,0,1,9.28027,3.82134l.44629.44583A470.983,470.983,0,0,1,661.182-216.61222,468.504,468.504,0,0,1,695.7152-82.50271a13.73039,13.73039,0,0,1-3.31372,10.71783,12.70974,12.70974,0,0,1-9.48926,4.23017l-.13721.00067a13.01493,13.01493,0,0,1-12.99878-11.73685c-1.40527-13.97316-3.50659-28.06715-6.24487-41.89049a14.00215,14.00215,0,0,0-.85571-2.77279,41.93572,41.93572,0,0,0-40.637-31.44321,43.16008,43.16008,0,0,0-4.40039.2265,42.01726,42.01726,0,0,0-24.772,11.571,42.03183,42.03183,0,0,0-12.40967,24.358,41.78709,41.78709,0,0,0,1.54908,18.47631A360.24861,360.24861,0,0,1,580.347,38.80594a13.97821,13.97821,0,0,0-.17749,4.66062c-.07618,1.02578-.11451,2.04913-.11451,3.06472a41.97908,41.97908,0,0,0,83.87427,2.65619,451.30135,451.30135,0,0,0,7.06128-54.51153,13.09433,13.09433,0,0,1,13.01563-12.19382l.24755.00217.35254.0065a12.9852,12.9852,0,0,1,9.37574,4.20483,12.884,12.884,0,0,1,3.437,9.59934A468.63944,468.63944,0,0,1,661.18175,151.1781c-.58032,1.3722-1.17236,2.73917-1.76587,4.10584q-.16809.38754-.31152.77942a42.01855,42.01855,0,0,0,33.80225,60.40427c1.27514.11431,2.56616.17233,3.83764.17233a41.84715,41.84715,0,0,0,39.00269-26.43662,14.0631,14.0631,0,0,0,.65063-1.30673q1.08362-2.49348,2.14868-4.99667A553.02269,553.02269,0,0,0,782.29381-32.71688a553.02406,553.02406,0,0,0-43.74756-216.61734,554.574,554.574,0,0,0-119.23974-176.869A554.67072,554.67072,0,0,0,447.63317-543.19589a42.12394,42.12394,0,0,0-18.74878-4.42166c-.76929,0-1.54956.02133-2.31934.06332a42.15269,42.15269,0,0,0-39.65307,40.956,41.84805,41.84805,0,0,0,23.41772,38.62467,13.98485,13.98485,0,0,0,1.80469.93567,471.77791,471.77791,0,0,1,87.12256,48.92,12.95818,12.95818,0,0,1,5.46435,9.63267,13.08167,13.08167,0,0,1-3.87988,10.48917,13.3385,13.3385,0,0,1-9.45361,3.88517,13.73323,13.73323,0,0,1-7.98413-2.56017,445.09562,445.09562,0,0,0-84.03321-46.82367,443.08189,443.08189,0,0,0-173.55029-35.05265c-33.24036,0-57.193,1.67082-80.09167,5.587-25.40076,4.34407-49.82361,11.68446-76.84131,23.09594l-6.225,2.39423a25.65647,25.65647,0,0,1-8.79846,1.755c-7.9502,0-10.77307-5.145-11.06873-5.73183q-.267-.52977-.57751-1.0343A14.01925,14.01925,0,0,1,42.046-463.115a14.04218,14.04218,0,0,1,8.13647-8.14351,508.83,508.83,0,0,1,70.889-21.46666,500.86642,500.86642,0,0,1,102.35755-12.451,14.13832,14.13832,0,0,0,1.68237-.12691,41.747,41.747,0,0,0,27.38147-12.59175,41.742,41.742,0,0,0,11.9176-29.297,41.74239,41.74239,0,0,0-11.9176-29.297,41.75117,41.75117,0,0,0-28.006-12.62674q-.63519-.05859-1.27918-.0589l-.0636.00016-.37146.00366c-.11535-.0025-.22973-.00385-.3446-.00385Z" style="fill: #516e7d"/>
          </g>
          <g>
            <path d="M222.64831,516.7421c-.19629,0-.39161-.00586-.58594-.0127l-.084-.00292a545.96152,545.96152,0,0,1-210.04882-43.165c-3.03809-1.28516-6.26075-2.68848-9.85059-4.29a6.97655,6.97655,0,0,1-2.38281-1.74219A34.98106,34.98106,0,0,1,13.63561,402.2089c1.06836-.09668,2.15137-.14551,3.21777-.14551A34.82742,34.82742,0,0,1,35.66,407.54972l.918.40234c.8711.38379,1.74317.76758,2.62207,1.13965,3.98242,1.68359,8.03614,3.334,12.04688,4.9043a20.00939,20.00939,0,0,0,7.32324,1.3916,20.35668,20.35668,0,0,0,7.30273-39.34375c-3.62988-1.42188-7.29-2.91309-10.877-4.42969A437.37141,437.37141,0,0,1-84.47962,277.58292a437.39415,437.39415,0,0,1-92.10059-135.05859,34.71462,34.71462,0,0,1-5.2041-21.9541,34.98021,34.98021,0,0,1,31.00586-31.42969,36.31366,36.31366,0,0,1,3.81933-.20313,34.7523,34.7523,0,0,1,31.63282,20.04,6.99236,6.99236,0,0,1,1.21093,1.91992,367.30375,367.30375,0,0,0,79.13282,117.1875,367.62553,367.62553,0,0,0,172.584,97.47168,24.85533,24.85533,0,0,0,5.88672.71387A24.28364,24.28364,0,0,0,167.66,304.72648l.2461-2.18262a24.23516,24.23516,0,0,0-18.18946-26.27832A313.70927,313.70927,0,0,1,43.55944,228.07218a34.98223,34.98223,0,0,1,13.09179-65.751c1.08594-.09961,2.18555-.15039,3.26856-.15039A34.6113,34.6113,0,0,1,79.244,167.995a6.98135,6.98135,0,0,1,2.09082,1.02832A245.83629,245.83629,0,0,0,225.8192,215.38468a262.97348,262.97348,0,0,0,51.32227-5.12012,232.86942,232.86942,0,0,0,83.42285-34.3623c46.20606-30.59961,80.293-73.44336,98.57715-123.90039a6.95809,6.95809,0,0,1,.78809-1.54493,35.21123,35.21123,0,0,1,33.48437-24.86132c.90039,0,1.81445.03418,2.7168.10351A34.98277,34.98277,0,0,1,524.786,76.05851a6.988,6.988,0,0,1-.32422,1.19629A314.91243,314.91243,0,0,1,501.455,126.27823a26.54344,26.54344,0,0,0,6.08593,33.76856l4.99024,4.15429A26.70286,26.70286,0,0,0,552.58581,157.29c2.30957-3.88574,4.55859-7.83594,6.68359-11.73926a6.95058,6.95058,0,0,1,1.26562-1.67089,34.75829,34.75829,0,0,1,30.1211-17.23536,35.66017,35.66017,0,0,1,7.57031.81934,35.21194,35.21194,0,0,1,27.40332,35.90039,34.83763,34.83763,0,0,1-7.03809,19.36719A435.92473,435.92473,0,0,1,515.72545,306.4628a35.07331,35.07331,0,0,1-27.76074,13.74512h-.001a35.60636,35.60636,0,0,1-6.18847-.54687,34.97149,34.97149,0,0,1-19.27442-58.44727,7.00235,7.00235,0,0,1,2.39063-3.624c9.69531-7.71582,19.08887-15.98145,27.91894-24.56836a26.065,26.065,0,0,0,7.94141-19.9375A26.83722,26.83722,0,0,0,491.12,193.52237l-4.0205-3.34668a26.7673,26.7673,0,0,0-36.12012,1.81153l-.22656.22851a316.02505,316.02505,0,0,1-224.93262,93.169H225.535a24.3958,24.3958,0,0,0-24.373,21.55664l-.24219,2.14746a24.3874,24.3874,0,0,0,6.01855,18.94141,23.80519,23.80519,0,0,0,17.92188,8.082l.96.001a368.3494,368.3494,0,0,0,128.06055-22.73535,6.96372,6.96372,0,0,1,4.13281-.22265,34.96912,34.96912,0,0,1,8.21-.97071c.959,0,1.93457.04,2.89648.11719a35.20821,35.20821,0,0,1,31.96583,31.96,34.98211,34.98211,0,0,1-31.43165,37.71289,437.20323,437.20323,0,0,1-143.834,24.13867,441.0029,441.0029,0,0,1-96.208-10.56347,20.78849,20.78849,0,0,0-4.53711-.50489,20.32581,20.32581,0,0,0-19.332,13.874,20.34372,20.34372,0,0,0,14.873,26.28515A482.04931,482.04931,0,0,0,223.244,446.74015a7.01646,7.01646,0,0,1,1.0498.084,34.97354,34.97354,0,0,1-.48047,69.88965c-.20019.01758-.40332.02637-.60546.02637-.01954,0-.28321-.00293-.28321-.00293C222.85729,516.74015,222.75377,516.7421,222.64831,516.7421Z" style="fill: #a7cc6b"/>
            <path d="M493.41442,32.59552c.72217,0,1.45264.02747,2.18652.0832a27.97822,27.97822,0,0,1,21.96216,42.032l.32813.12866a306.88234,306.88234,0,0,1-22.49341,47.92975,33.62454,33.62454,0,0,0,7.66455,42.65732l4.99023,4.15426a33.70137,33.70137,0,0,0,50.54932-8.71292q3.52-5.92039,6.81518-11.96908l.27076.14761a28.0076,28.0076,0,0,1,24.9663-15.40176,28.59782,28.59782,0,0,1,6.08374.65948,27.9855,27.9855,0,0,1,15.99,44.56854A428.69971,428.69971,0,0,1,510.61413,301.60752,27.99108,27.99108,0,0,1,487.965,313.20786a28.44651,28.44651,0,0,1-4.968-.43964,27.97332,27.97332,0,0,1-13.11914-48.914l-.62647-.787q14.93043-11.88236,28.439-25.02771a33.62737,33.62737,0,0,0-2.09156-49.89666l-4.02075-3.34708a33.44877,33.44877,0,0,0-21.47339-7.77069,33.97228,33.97228,0,0,0-24.07983,10.018q-.111.11118-.22217.22241a309.0679,309.0679,0,0,1-219.98242,91.1192l-.2854-.00012-.02991-.00006a31.37418,31.37418,0,0,0-31.2987,27.77081l-.24292,2.14923a31.25331,31.25331,0,0,0,30.87988,34.80731q.48834.0012.977.00122a375.94321,375.94321,0,0,0,130.48633-23.16931l.343.922a27.925,27.925,0,0,1,9.57226-1.68128q1.15577,0,2.333.09485a27.97991,27.97991,0,0,1-.36792,55.794,429.6318,429.6318,0,0,1-142.3667,24.03973A432.573,432.573,0,0,1,131.14184,388.719a27.74811,27.74811,0,0,0-6.06727-.67353A27.32,27.32,0,0,0,119.087,442.035a487.41028,487.41028,0,0,0,104.12109,11.70477v.051a27.97387,27.97387,0,0,1,0,55.93688v.01215c-.11255-.00055-.22485-.003-.3374-.0036-.07447.00055-.148.00562-.22254.00562-.18457,0-.36645-.01038-.55017-.01386A538.90138,538.90138,0,0,1,14.65612,467.11417q-4.89039-2.06837-9.72571-4.23505l.18835-.43a27.98346,27.98346,0,0,1,9.14478-53.2688q1.30683-.11765,2.58923-.11682a27.8489,27.8489,0,0,1,15.46912,4.666c1.38354.60211,2.7583,1.22,4.14966,1.80853q6.08641,2.5742,12.22387,4.97626a27.03647,27.03647,0,0,0,9.87574,1.87323,27.369,27.369,0,0,0,25.91577-18.71338l.00488-.01453a27.36973,27.36973,0,0,0-16.06555-34.13318q-5.37286-2.10561-10.70276-4.35962A430.372,430.372,0,0,1-79.52943,272.63273,430.29981,430.29981,0,0,1-170.3849,139.21766a27.90914,27.90914,0,0,1-4.43005-17.99308,28.04921,28.04921,0,0,1,24.77954-25.12344,28.96243,28.96243,0,0,1,3.07654-.16455,27.98823,27.98823,0,0,1,26.07214,17.82254l.32349-.13666A375.36911,375.36911,0,0,0-39.93177,233.03513a373.44511,373.44511,0,0,0,175.8717,99.32123,31.77723,31.77723,0,0,0,7.54834.91424,31.3031,31.3031,0,0,0,31.12732-27.758l.24707-2.18549a31.20834,31.20834,0,0,0-23.4834-33.8609A307.56822,307.56822,0,0,1,47.20556,222.079a27.98276,27.98276,0,0,1,10.08337-52.787q1.32825-.12154,2.63062-.12061a27.85526,27.85526,0,0,1,17.08935,5.83179l.23828-.29734a253.20728,253.20728,0,0,0,148.573,47.67878,269.19566,269.19566,0,0,0,52.69067-5.25544,241.14766,241.14766,0,0,0,85.919-35.3908C412.68615,149.78058,447.316,105.181,465.72252,54.387l.37159.14572a27.98563,27.98563,0,0,1,27.32031-21.9372m.001-14h-.001A41.984,41.984,0,0,0,453.5089,47.54358a13.99612,13.99612,0,0,0-.94873,2.07367c-17.7688,49.03427-50.91675,90.68482-95.86035,120.44867A225.90815,225.90815,0,0,1,275.772,203.39966a255.94755,255.94755,0,0,1-49.95178,4.98493A238.88264,238.88264,0,0,1,85.4237,163.34165a14.02181,14.02181,0,0,0-3.06885-1.6738,41.54474,41.54474,0,0,0-22.43433-6.49658c-1.29626,0-2.61084.06027-3.90808.17892A41.98235,41.98235,0,0,0,39.8806,234.04227a320.68182,320.68182,0,0,0,108.17322,49.02326,17.221,17.221,0,0,1,12.89734,18.68908l-.24695,2.18531a17.28961,17.28961,0,0,1-17.21606,15.33068,17.83421,17.83421,0,0,1-4.22644-.51452A360.62248,360.62248,0,0,1-30.03224,223.13565a360.36248,360.36248,0,0,1-77.63525-114.96279,14.03468,14.03468,0,0,0-1.7218-2.99027,41.91389,41.91389,0,0,0-13.60742-15.734,41.73415,41.73415,0,0,0-23.96131-7.512,43.1784,43.1784,0,0,0-4.56311.24359,42.00211,42.00211,0,0,0-37.23266,37.73709,41.63343,41.63343,0,0,0,5.96081,25.87122A444.31264,444.31264,0,0,0-89.42872,282.53232,444.30729,444.30729,0,0,0,52.26952,378.06089c3.647,1.54236,7.36389,3.05639,11.04846,4.50036a13.38306,13.38306,0,0,1,7.89575,16.66059l-.00708.02118a13.32422,13.32422,0,0,1-12.63537,9.14453,13.04921,13.04921,0,0,1-4.77307-.91016c-3.95655-1.54852-7.95117-3.17468-11.87317-4.83343-.84412-.35712-1.68225-.72657-2.52051-1.09552q-.2309-.10163-.46167-.20313a41.80717,41.80717,0,0,0-22.08984-6.2818c-1.27429,0-2.56763.05829-3.84424.17322a42.071,42.071,0,0,0-38.0022,38.39477,41.98411,41.98411,0,0,0,20.3772,39.49286,13.98029,13.98029,0,0,0,3.84473,2.541c3.64135,1.62378,6.9038,3.04443,9.974,4.343A552.89941,552.89941,0,0,0,221.85363,523.7266c.26391.00885.5282.0152.79455.0152q.16956,0,.33789-.00367l.15564.00153.06617.00018q.49457,0,.98474-.03467a41.97441,41.97441,0,0,0,.76049-83.8576,14.15235,14.15235,0,0,0-1.67224-.10767,475.01719,475.01719,0,0,1-101.13525-11.36664,13.32013,13.32013,0,0,1,2.929-26.32788,13.79371,13.79371,0,0,1,3.00806.33521,448.004,448.004,0,0,0,97.73755,10.73254,444.24692,444.24692,0,0,0,145.374-24.26367,41.9856,41.9856,0,0,0-1.50659-83.52417c-1.15014-.0932-2.31518-.14068-3.46362-.14081a42.066,42.066,0,0,0-8.38818.84009,13.92753,13.92753,0,0,0-6.38038.78656,361.36278,361.36278,0,0,1-125.63525,22.302l-.94263-.00122a16.89126,16.89126,0,0,1-12.7135-5.73907,17.14748,17.14748,0,0,1-4.2893-13.49573l.24292-2.14917a17.39257,17.39257,0,0,1,17.3872-15.34332h.16284l.15247.00012A322.97681,322.97681,0,0,0,455.702,197.16513l.178-.178.05323-.05347a19.90232,19.90232,0,0,1,14.17187-5.90854,19.3374,19.3374,0,0,1,12.51587,4.5304l4.02075,3.34719a19.564,19.564,0,0,1,7.11548,14.45243A19.14563,19.14563,0,0,1,487.93,228.00272c-8.66772,8.42883-17.88525,16.54065-27.39673,24.11017a14,14,0,0,0-4.13745,5.41028,41.96983,41.96983,0,0,0,24.157,69.03009,42.5838,42.5838,0,0,0,7.41211.65454,42.09485,42.09485,0,0,0,32.8125-15.842A442.84058,442.84058,0,0,0,624.47765,186.54868a42.02359,42.02359,0,0,0-24.76294-65.9245,42.6955,42.6955,0,0,0-9.06055-.97958,41.71328,41.71328,0,0,0-35.74316,20.001,13.98562,13.98562,0,0,0-1.78833,2.55655c-2.0979,3.85147-4.30322,7.72428-6.55444,11.511a19.61974,19.61974,0,0,1-17.01392,9.667,19.39793,19.39793,0,0,1-12.54468-4.55932l-4.99023-4.154a19.56052,19.56052,0,0,1-4.50684-24.88107,321.87051,321.87051,0,0,0,23.5188-50.11575q.23547-.64059.40528-1.28873A41.98336,41.98336,0,0,0,496.66149,18.719c-1.07813-.082-2.17017-.12345-3.24609-.12348Z" style="fill: #516e7d"/>
          </g>
        </g>
        <path d="M1141.44725,954.79254l.00084.00156-1.9188-3.33268c-4.95851-6.72336-9.36819-7.689-14.99784-7.05495-9.121,2.53413-15.207-.07979-19.66288-4.46425l-.00312.00168-16.6426-31.12126-.00271-.00717c-1.78874-7.65744,6.55764-12.92178,6.95385-13.16656a2.61566,2.61566,0,0,0-2.60378-4.53435c-.04784.02545-.09427.05244-.141.081-3.82547,2.35871-9.33225,7.80048-9.69168,14.78489a.023.023,0,0,1-.009.01749c-.60581.43775-1.25979.96553-1.98484,1.50337a.02654.02654,0,0,1-.039-.00835l-6.1913-11.57719a2.60926,2.60926,0,0,0-3.53545-1.06474l.00294.00546a2.60832,2.60832,0,0,0-1.04661,3.528l6.24838,11.54648a.02662.02662,0,0,1-.01452.03714c-.84837.3086-1.64918.56344-2.34815.82747a.022.022,0,0,1-.01949-.002c-6.02636-3.5491-13.60182-1.95325-17.67841-.0608-.04938.02311-.09749.047-.14531.073a2.61565,2.61565,0,0,0,2.3489,4.67146c.4226-.19571,9.41486-4.25891,14.81894,1.4536l.00449.00621,16.79669,31.03837-.0029.00156c1.2029,6.13444.03006,12.65332-7.11115,18.86769-3.63181,4.34829-5.25625,8.56-2.37847,16.40276l1.72339,3.43765-.00083-.00156c.00127-.00083,1.32742,2.68343,3.5852,3.42659,1.4494.47618,3.30874.10992,5.52628-1.09022l3.82515-2.07016a3.49533,3.49533,0,0,0,1.39682-4.71985l-.00756-.014a8.47029,8.47029,0,0,1-1.017-6.16992,8.16243,8.16243,0,0,1,4.36263-5.1608l9.33485-5.0517-.00216-.004,9.34546-4.99776a8.16132,8.16132,0,0,1,6.71046-.796,8.46929,8.46929,0,0,1,4.58811,4.24864l.00756.014a3.495,3.495,0,0,0,4.708,1.4357l3.83569-2.0511c2.22354-1.189,3.55385-2.53864,3.95528-4.0105C1142.95479,957.37893,1141.44579,954.793,1141.44725,954.79254Z" style="fill: #529e33"/>
        <path d="M1535.17346,254.83428l.00171,0-3.70223.20406c-7.94126,1.34783-10.68791,4.72423-12.5875,9.84562-1.78055,8.9521-6.67416,13.05545-12.3838,14.98657l.00009.00341-34.0181.8077-.00735-.00078c-7.36846-1.78644-8.27456-11.25763-8.31316-11.705a2.522,2.522,0,0,0-5.03415.27173c.00112.05223.00419.10393.0085.15657.36869,4.3175,2.661,11.42146,8.517,14.76469a.02211.02211,0,0,1,.01115.01533c.11367.71162.28391,1.50382.43194,2.36156a.0256.0256,0,0,1-.02413.02994l-12.65491.30064a2.51582,2.51582,0,0,0-2.45223,2.58081l.006-.00016a2.5149,2.5149,0,0,0,2.58227,2.43338l12.65327-.36312a.02567.02567,0,0,1,.02567.02863c-.10287.86432-.23135,1.66435-.30769,2.38071a.02119.02119,0,0,1-.0102.0159c-5.67272,3.64583-7.58959,10.86-7.73133,15.19108-.00156.05255-.00191.10433-.00029.1568a2.522,2.522,0,0,0,5.04148.00723c.01509-.44879.42349-9.95422,7.68817-12.12469l.0073-.00116,34.01368-.97634.00008.00317c5.803,1.62918,10.905,5.47037,13.15235,14.31683,2.16543,5.015,5.08529,8.2428,13.08628,9.17226l3.70771.00973-.00171,0c-.00016-.00146,2.88648.023,4.5069-1.59771,1.03948-1.0408,1.53184-2.8004,1.462-5.23056l-.12044-4.19189a3.37014,3.37014,0,0,0-3.45609-3.25254l-.01538.0004a8.1669,8.1669,0,0,1-5.75278-1.80463,7.87,7.87,0,0,1-2.54739-5.997l-.2937-10.2297-.00439.00011-.24264-10.21541a7.869,7.869,0,0,1,2.22966-6.12208,8.16594,8.16594,0,0,1,5.65015-2.10394l.01537-.0004a3.36987,3.36987,0,0,0,3.28086-3.429l-.09946-4.19268c-.05764-2.43048-.64157-4.16186-1.73417-5.14673C1538.05465,254.66005,1535.17325,254.83575,1535.17346,254.83428Z" style="fill: #529e33"/>
        <path d="M661.57668,1234.39419l.00084.00157-1.91879-3.33268c-4.95851-6.72336-9.36819-7.689-14.99785-7.05495-9.121,2.53413-15.207-.07979-19.66287-4.46426l-.00312.00168-16.6426-31.12125-.00271-.00717c-1.78874-7.65744,6.55763-12.92178,6.95385-13.16656a2.61566,2.61566,0,0,0-2.60378-4.53435c-.04784.02545-.09428.05244-.141.081-3.82547,2.35871-9.33225,7.80048-9.69168,14.78489a.023.023,0,0,1-.009.01749c-.60581.43775-1.25979.96553-1.98484,1.50337a.02654.02654,0,0,1-.039-.00835l-6.1913-11.57719a2.60927,2.60927,0,0,0-3.53545-1.06475l.00294.00547a2.60831,2.60831,0,0,0-1.04661,3.528l6.24838,11.54648a.02663.02663,0,0,1-.01452.03715c-.84837.3086-1.64918.56344-2.34816.82747a.022.022,0,0,1-.01949-.002c-6.02635-3.5491-13.60181-1.95325-17.6784-.06081-.04938.02312-.09749.047-.14532.073a2.61566,2.61566,0,0,0,2.3489,4.67147c.42261-.19572,9.41487-4.25891,14.819,1.4536l.00449.00621,16.79669,31.03837-.0029.00155c1.2029,6.13445.03006,12.65333-7.11115,18.8677-3.63182,4.34828-5.25625,8.56005-2.37847,16.40276l1.72339,3.43765-.00084-.00156c.00128-.00083,1.32743,2.68343,3.58521,3.42659,1.4494.47618,3.30874.10992,5.52628-1.09022l3.82515-2.07016a3.49533,3.49533,0,0,0,1.39682-4.71985l-.00756-.014a8.47029,8.47029,0,0,1-1.017-6.16992,8.16238,8.16238,0,0,1,4.36263-5.1608l9.33484-5.0517-.00216-.004,9.34547-4.99775a8.16128,8.16128,0,0,1,6.71046-.796,8.46932,8.46932,0,0,1,4.58811,4.24863l.00756.014a3.495,3.495,0,0,0,4.708,1.4357l3.83569-2.0511c2.22354-1.189,3.55385-2.53865,3.95527-4.0105C663.08423,1236.98059,661.57523,1234.39469,661.57668,1234.39419Z" style="fill: #529e33"/>
      </g>
    </g>
    <g>
      <circle cx="721.35986" cy="1418.05671" r="122.75862" style="fill: #f08271"/>
      <circle cx="721.35986" cy="1418.05671" r="108.91972" style="fill: #edaaa4"/>
      <g>
        <rect x="651.02141" y="1551.67732" width="55.27517" height="16.61816" rx="8.30907" transform="translate(-1010.70394 1760.45701) rotate(-73.25639)" style="fill: #ea5d4e"/>
        <path d="M708.422,1530.92084a2.52209,2.52209,0,0,1-1.30316,4.87029c-.54-.123-12.01685-2.61469-14.86382,6.84858a2.52208,2.52208,0,1,1-4.83031-1.45317c3.37961-11.23375,15.11337-11.65347,20.84571-10.30615C708.32173,1530.89238,708.37251,1530.90594,708.422,1530.92084Z" style="fill: #ea5d4e"/>
        <path d="M669.9408,1519.344c.05031.01514.09937.03161.14874.0499,5.52421,2.03915,15.07868,8.86331,11.69908,20.09706a2.52208,2.52208,0,0,1-4.83031-1.45316c2.87275-9.549-8.14491-13.73805-8.61471-13.912a2.522,2.522,0,0,1,1.5972-4.78183Z" style="fill: #ea5d4e"/>
        <g>
          <path d="M658.30882,1587.375l8.75207,2.633,4.70657,1.416,8.752,2.633c5.72507,1.72235,6.8673-3.69093,6.8673-3.69093s1.83776-5.1034-3.6265-6.74729-3.911-7.27687-3.911-7.27687l-11.20712-3.37159s-1.81254,5.555-7.2768,3.91109-6.74736,3.62638-6.74736,3.62638S652.58384,1585.6527,658.30882,1587.375Z" style="fill: #ea5d4e"/>
          <path d="M669.36865,1570.55538l13.56714,4.0816-.65554,2.37565a3.19057,3.19057,0,0,0,2.20628,4.19083,7.73015,7.73015,0,0,1,4.94875,3.86363,8.28886,8.28886,0,0,1,.37919,5.9894,8.16734,8.16734,0,0,1-3.52694,4.88972,7.87154,7.87154,0,0,1-6.49468.52553l-22.21043-6.68188a7.87153,7.87153,0,0,1-5.12666-4.02174,8.16734,8.16734,0,0,1-.24359-6.02406,8.28882,8.28882,0,0,1,3.62091-4.786,7.73012,7.73012,0,0,1,6.25906-.49182,3.19809,3.19809,0,0,0,4.16-2.30044l.795-2.28055Zm7.73887,7.59567-7.17705-2.15917a7.95041,7.95041,0,0,1-9.2915,3.30466,2.95294,2.95294,0,0,0-2.27938.02756,3.2639,3.2639,0,0,0-1.299,1.81l-.03675.1364-.06084.16517.00024-.00078a3.22585,3.22585,0,0,0,.0426,2.1553,3.1368,3.1368,0,0,0,2.02973,1.36937l22.21043,6.68188a3.10793,3.10793,0,0,0,2.46826-.03418,3.21614,3.21614,0,0,0,1.20459-1.76124l.036-.17092.05855-.16329a3.24925,3.24925,0,0,0-.09424-2.19741,2.95287,2.95287,0,0,0-1.88581-1.28064A7.95039,7.95039,0,0,1,677.10752,1578.15105Z" style="fill: #ea5d4e"/>
        </g>
        <path d="M691.06381,1518.75429a2.52167,2.52167,0,0,1,1.68856,3.14173l-5.50047,18.28345a2.52208,2.52208,0,1,1-4.8303-1.45317l5.50047-18.28345A2.52168,2.52168,0,0,1,691.06381,1518.75429Z" style="fill: #ea5d4e"/>
      </g>
      <rect x="598.39248" y="1434.5267" width="25.8133" height="10.58999" rx="5.29499" transform="translate(-267.52894 145.82233) rotate(-11.17822)" style="fill: #516e7d"/>
      <rect x="818.57752" y="1391.01586" width="25.8133" height="10.58999" rx="5.29499" transform="translate(-254.91672 187.68228) rotate(-11.17822)" style="fill: #516e7d"/>
      <rect x="596.30717" y="1415.90091" width="25.8133" height="10.58999" rx="5.29499" transform="translate(-39.39738 17.54253) rotate(-1.59807)" style="fill: #516e7d"/>
      <rect x="820.66283" y="1409.64165" width="25.8133" height="10.58999" rx="5.29499" transform="translate(-39.13556 23.79693) rotate(-1.59807)" style="fill: #516e7d"/>
      <rect x="615.25443" y="1350.30752" width="25.8133" height="10.58999" rx="5.29499" transform="translate(860.84571 -120.23704) rotate(33.82178)" style="fill: #516e7d"/>
      <rect x="801.71557" y="1475.23504" width="25.8133" height="10.58999" rx="5.29499" transform="translate(961.93606 -202.88233) rotate(33.82178)" style="fill: #516e7d"/>
      <rect x="626.95031" y="1335.66256" width="25.8133" height="10.58999" rx="5.29499" transform="translate(1096.35585 -72.97061) rotate(43.40193)" style="fill: #516e7d"/>
      <rect x="790.01969" y="1489.88" width="25.8133" height="10.58999" rx="5.29499" transform="translate(1246.91158 -142.84701) rotate(43.40193)" style="fill: #516e7d"/>
      <rect x="686.72958" y="1302.67876" width="25.8133" height="10.58999" rx="5.29499" transform="matrix(0.19386, 0.98103, -0.98103, 0.19386, 1847.1638, 368.04468)" style="fill: #516e7d"/>
      <rect x="730.24042" y="1522.8638" width="25.8133" height="10.58999" rx="5.29499" transform="translate(2098.24744 502.8589) rotate(78.82178)" style="fill: #516e7d"/>
      <rect x="705.35537" y="1300.59345" width="25.8133" height="10.58999" rx="5.29499" transform="translate(2003.61164 551.48715) rotate(88.40193)" style="fill: #516e7d"/>
      <rect x="711.61463" y="1524.94911" width="25.8133" height="10.58999" rx="5.29499" transform="translate(2233.96474 763.32914) rotate(88.40193)" style="fill: #516e7d"/>
      <rect x="770.94876" y="1319.54071" width="25.8133" height="10.58999" rx="5.29499" transform="translate(2320.79597 1411.04852) rotate(123.82178)" style="fill: #516e7d"/>
      <rect x="646.02124" y="1506.00185" width="25.8133" height="10.58999" rx="5.29499" transform="translate(2281.23924 1805.08248) rotate(123.82178)" style="fill: #516e7d"/>
      <rect x="785.59372" y="1331.23659" width="25.8133" height="10.58999" rx="5.29499" transform="translate(2318.21863 1674.72671) rotate(133.40193)" style="fill: #516e7d"/>
      <rect x="631.37628" y="1494.30597" width="25.8133" height="10.58999" rx="5.29499" transform="translate(2176.51485 2061.88995) rotate(133.40193)" style="fill: #516e7d"/>
      <path d="M804.08709,1385.9686a54.02842,54.02842,0,0,0-35.41093,3.7953c-3.66733,1.75269-7.51231,4.49055-7.93232,8.53343-.48372,4.656,3.7682,8.34445,7.7943,10.73259a75.40918,75.40918,0,0,0,40.52308,10.44853c2.16723-.06653,4.76435-.51969,5.59062-2.52433,1.19008-2.88729-2.37493-5.3642-5.32576-6.38659a131.81373,131.81373,0,0,0-45.81026-7.21614c-4.77262.1005-10.10449.73626-13.13535,4.42432-2.76268,3.36171-2.65975,8.41172-.7815,12.33672s5.22546,6.93275,8.64807,9.61961a107.976,107.976,0,0,0,37.10219,18.88991c3.67821,1.043,7.62979,1.885,11.27834.74258,1.02035-.3195,2.11435-.93882,2.30713-1.9905a3.241,3.241,0,0,0-1.15671-2.59762c-4.34365-4.67283-10.46405-7.2852-16.59731-9.04184a81.62529,81.62529,0,0,0-24.14466-3.13131c-5.11719.10751-10.454.77957-14.69239,3.649s-6.981,8.48647-5.13128,13.25885a16.80732,16.80732,0,0,0,4.51576,5.83854,145.44694,145.44694,0,0,0,31.3862,22.51659,6.07017,6.07017,0,0,0,3.55089,1.009c2.21047-.30327,3.41852-3.01341,2.89893-5.18324s-2.22353-3.8374-3.94109-5.26152c-9.7951-8.12164-22.18424-12.295-34.28787-16.2202-4.10276-1.33053-9.89106-1.93883-11.50917,2.05925-.94247,2.32868.2619,4.922,1.44015,7.14071,7.40154,13.93765,27.06244,42.49513,29.92869,35.60046,1.9722-5.98005-5.538-15.763-10.61384-19.48943-6.84414-5.02474-9.45047-7.95124-16.29461-12.976-4.54762-3.3387-12.3247-4.69992-17.82732-3.45535-6.84845,1.54895-9.99834,9.642-10.19949,16.66053a41.95513,41.95513,0,0,0,13.76711,32.0068c1.61109,1.441,3.74667,2.83564,5.79074,2.13287,3.19893-1.09983,2.835-5.73148,1.65225-8.9007a85.99079,85.99079,0,0,0-22.46948-33.27573c-3.0217-2.75985-7.43974-5.41783-10.92047-3.26563a9.30859,9.30859,0,0,0-2.62592,2.83189,59.98406,59.98406,0,0,0-9.76709,25.38917,12.19542,12.19542,0,0,0,.43131,6.59561c.90223,2.04241,3.19968,3.63042,5.34474,3.01062,2.25087-.65039,3.26835-3.21456,3.85661-5.48246a69.63145,69.63145,0,0,0,.633-32.15576c-.91436-4.19869-3.667-9.27643-7.89442-8.5059" style="fill: none;stroke: #f5edd1;stroke-linecap: round;stroke-miterlimit: 10;stroke-width: 6px"/>
      <path d="M694.058,1458.13126c-13.847-2.65157-26.31737,10.39676-36.10576,20.50363-1.50124,1.55008-3.04441,3.6564-2.26077,5.56589,1.12867,2.75023,5.37005,1.92331,8.17658.55419,13.96526-6.81275,22.71844-13.82856,33.58293-24.84086,3.3375-3.3829,6.70744-7.51093,6.344-12.07356-.3313-4.15889-3.8645-7.45146-7.89407-8.76113s-8.47916-.98772-12.76273-.39959a112.88136,112.88136,0,0,0-39.4223,13.1945c-3.3398,1.86077-6.737,4.04536-8.55841,7.34136-.50937.92176-.86589,2.09443-.283,2.92895a3.13206,3.13206,0,0,0,2.60519.92675c6.30153.09492,12.45956-2.41722,18.04051-5.50832a85.42545,85.42545,0,0,0,19.378-14.68946c3.57863-3.627,6.92726-7.78263,7.98647-12.63885s-.83149-10.50364-5.42125-12.3976a16.81493,16.81493,0,0,0-7.223-.75188,150.54037,150.54037,0,0,0-37.82726,6.80717,6.36535,6.36535,0,0,0-3.22566,1.79495c-1.3699,1.73782-.37541,4.38253,1.482,5.467s4.216,1.01143,6.41751.76678c12.55516-1.39523,24.25678-7.22294,35.58464-13.01758,3.83979-1.96421,8.38781-5.58062,6.80364-9.36821-.92271-2.20607-3.559-3.09683-5.92-3.75622-14.83133-4.14214-48.42851-9.50572-45.75072-2.92137,2.6893,5.3539,14.7518,6.65282,20.92755,5.60863,8.32729-1.408,12.19243-1.2693,20.51972-2.67727,5.5331-.93553,12.01638-5.43217,15.09111-10.08439,3.82675-5.79.53041-13.36976-4.13441-18.185a40.49517,40.49517,0,0,0-31.75373-11.75629c-2.1371.15943-4.61679.71416-5.59423,2.6025-1.52969,2.95524,1.9032,5.78777,4.91858,7.07721a85.26232,85.26232,0,0,0,38.83419,6.55531c4.04744-.26095,9.0217-1.55993,10.03152-5.412a8.69,8.69,0,0,0-.06591-3.71093,54.422,54.422,0,0,0-10.423-23.69917,11.27,11.27,0,0,0-4.82648-4.094c-2.04319-.7337-4.77089-.19532-5.87725,1.70792-1.16093,1.99713-.13044,4.4122,1.00344,6.33169a63.82816,63.82816,0,0,0,21.578,21.86054c3.52911,2.16168,8.97247,3.63177,11.46183.18131" style="fill: none;stroke: #f5edd1;stroke-linecap: round;stroke-miterlimit: 10;stroke-width: 6px"/>
      <line x1="653.15125" y1="1490.22362" x2="655.69144" y2="1484.20078" style="fill: none;stroke: #516e7d;stroke-linecap: round;stroke-miterlimit: 10;stroke-width: 3px"/>
      <line x1="623.04598" y1="1437.09697" x2="629.53848" y2="1433.38815" style="fill: none;stroke: #516e7d;stroke-linecap: round;stroke-miterlimit: 10;stroke-width: 3px"/>
      <line x1="620.74403" y1="1421.26601" x2="631.67564" y2="1422.92959" style="fill: none;stroke: #516e7d;stroke-linecap: round;stroke-miterlimit: 10;stroke-width: 3px"/>
      <line x1="665.0394" y1="1501.84675" x2="666.50958" y2="1486.05728" style="fill: none;stroke: #516e7d;stroke-linecap: round;stroke-miterlimit: 10;stroke-width: 3px"/>
      <line x1="637.56492" y1="1362.86717" x2="644.61691" y2="1365.3526" style="fill: none;stroke: #516e7d;stroke-linecap: round;stroke-miterlimit: 10;stroke-width: 3px"/>
      <line x1="647.59397" y1="1347.65304" x2="654.09189" y2="1364.07352" style="fill: none;stroke: #516e7d;stroke-linecap: round;stroke-miterlimit: 10;stroke-width: 3px"/>
      <line x1="740.90292" y1="1517.21331" x2="737.48201" y2="1510.56461" style="fill: none;stroke: #516e7d;stroke-linecap: round;stroke-miterlimit: 10;stroke-width: 3px"/>
      <line x1="823.05111" y1="1415.24033" x2="815.15947" y2="1414.50802" style="fill: none;stroke: #516e7d;stroke-linecap: round;stroke-miterlimit: 10;stroke-width: 3px"/>
      <line x1="820.22498" y1="1398.91526" x2="804.08033" y2="1407.85103" style="fill: none;stroke: #516e7d;stroke-linecap: round;stroke-miterlimit: 10;stroke-width: 3px"/>
      <line x1="804.96259" y1="1474.24952" x2="790.5776" y2="1471.74355" style="fill: none;stroke: #516e7d;stroke-linecap: round;stroke-miterlimit: 10;stroke-width: 3px"/>
      <line x1="724.15367" y1="1518.23279" x2="726.29443" y2="1507.38453" style="fill: none;stroke: #516e7d;stroke-linecap: round;stroke-miterlimit: 10;stroke-width: 3px"/>
      <line x1="795.7029" y1="1487.58716" x2="788.95334" y2="1478.82867" style="fill: none;stroke: #516e7d;stroke-linecap: round;stroke-miterlimit: 10;stroke-width: 3px"/>
      <path d="M700.34027,1330.55332c10.87359,4.11228,15.23422,4.59453,18.98842,4.53512,3.7182-.05883,10.17879-1.78477,16.28-4.35353,4.53541-1.90953,10.8937-2.13,14.52919,1.18657,5.21411,4.75309-3.6614,30.34135-16.36852,35.067-20.99786,8.34671,13.13519-26.33853,26.8931-29.823,2.52719-.64007,5.45589-.92726,7.51519.6714a6.89173,6.89173,0,0,1,2.15364,3.28262c2.1393,6.27416-.22906,14.00253-5.147,18.44719-9.56353,8.64309-14.54766,29.68309-20.92791,20.699-3.40451-6.575-.52487-10.49424,2.21624-12.95784s9.781-6.32172,13.22775-7.62664c10.01386-3.79119,15.51174-4.93653,26.05961-3.09454,3.99965.69846,7.97214,2.298,10.75551,5.254s4.15259,7.4336,2.71764,11.23175c-2.09881,5.55526-7.90541,6.72055-14.71333,8.37222-7.17614,1.741-15.41455,3.37808-22.77105,2.73785a3.68743,3.68743,0,0,1-2.46234-.857c-.87747-.9429-.54839-2.48427.09087-3.60247,2.89487-5.06374,13.13161-7.44561,18.9501-7.037a67.77339,67.77339,0,0,1,21.3443,4.57977c2.36728.88685,3.6476,1.16171,5.27857,3.09315.555.65729,1.20817,4.36643-1.00715,5.58418" style="fill: none;stroke: #f5edd1;stroke-linecap: round;stroke-miterlimit: 10;stroke-width: 6px"/>
      <line x1="702.31883" y1="1319.07737" x2="703.74999" y2="1330.40168" style="fill: none;stroke: #516e7d;stroke-linecap: round;stroke-miterlimit: 10;stroke-width: 3px"/>
      <line x1="719.48887" y1="1315.41502" x2="716.82789" y2="1332.8728" style="fill: none;stroke: #516e7d;stroke-linecap: round;stroke-miterlimit: 10;stroke-width: 3px"/>
      <line x1="776.83531" y1="1334.28022" x2="771.74763" y2="1342.27993" style="fill: none;stroke: #516e7d;stroke-linecap: round;stroke-miterlimit: 10;stroke-width: 3px"/>
      <line x1="790.60695" y1="1344.16904" x2="785.66888" y2="1355.55112" style="fill: none;stroke: #516e7d;stroke-linecap: round;stroke-miterlimit: 10;stroke-width: 3px"/>
      <g>
        <path d="M755.78249,1303.76926h0c-4.37623-1.31657-8.67954.00866-7.363-4.36758l12.93663-43.00108a8.3335,8.3335,0,0,1,10.35055-5.563h0a8.33349,8.33349,0,0,1,5.563,10.35055l-12.93662,43.00108C763.01653,1308.56543,760.15873,1305.08582,755.78249,1303.76926Z" style="fill: #ea5d4e"/>
        <path d="M733.98153,1306.369a2.52209,2.52209,0,0,1,1.30316-4.87029c.54.123,12.01686,2.61469,14.86383-6.84858a2.52208,2.52208,0,1,1,4.8303,1.45317c-3.37961,11.23375-15.11337,11.65347-20.84571,10.30616C734.08185,1306.39742,734.03106,1306.38386,733.98153,1306.369Z" style="fill: #ea5d4e"/>
        <path d="M772.46278,1317.94582c-.05032-.01514-.09938-.03161-.14874-.04989-5.52421-2.03916-15.07869-8.86332-11.69908-20.09707a2.52208,2.52208,0,0,1,4.8303,1.45316c-2.87275,9.549,8.14491,13.73805,8.61471,13.912a2.522,2.522,0,0,1-1.59719,4.78183Z" style="fill: #ea5d4e"/>
        <g>
          <path d="M784.09476,1249.91477l-8.75207-2.633-4.70658-1.416-8.752-2.633c-5.72508-1.72235-6.86731,3.69093-6.86731,3.69093s-1.83775,5.1034,3.62651,6.74729,3.911,7.27687,3.911,7.27687l11.20712,3.37159s1.81254-5.555,7.2768-3.91109,6.74736-3.62637,6.74736-3.62637S789.81974,1251.6371,784.09476,1249.91477Z" style="fill: #ea5d4e"/>
          <path d="M773.03492,1266.73442l-13.56714-4.08159.65555-2.37566a3.19058,3.19058,0,0,0-2.20629-4.19083,7.73018,7.73018,0,0,1-4.94875-3.86362,8.28881,8.28881,0,0,1-.37918-5.98941,8.16734,8.16734,0,0,1,3.52694-4.88972,7.87153,7.87153,0,0,1,6.49468-.52553l22.21042,6.68188a7.87153,7.87153,0,0,1,5.12666,4.02174,8.16734,8.16734,0,0,1,.24359,6.02406,8.28879,8.28879,0,0,1-3.6209,4.786,7.73016,7.73016,0,0,1-6.25906.49183,3.19808,3.19808,0,0,0-4.16,2.30043l-.795,2.28055Zm-7.73887-7.59567,7.17706,2.15917a7.95039,7.95039,0,0,1,9.29149-3.30466,2.95289,2.95289,0,0,0,2.27938-.02756,3.26387,3.26387,0,0,0,1.299-1.81l.03675-.1364.06083-.16517-.00023.00079a3.22592,3.22592,0,0,0-.04261-2.15531,3.13674,3.13674,0,0,0-2.02973-1.36937l-22.21042-6.68188a3.108,3.108,0,0,0-2.46827.03418,3.2161,3.2161,0,0,0-1.20458,1.76124l-.036.17092-.05856.16329a3.24925,3.24925,0,0,0,.09424,2.19741,2.95289,2.95289,0,0,0,1.88581,1.28064A7.95038,7.95038,0,0,1,765.29605,1259.13875Z" style="fill: #ea5d4e"/>
        </g>
        <path d="M751.33977,1318.53551a2.52168,2.52168,0,0,1-1.68857-3.14173l5.50047-18.28345a2.52208,2.52208,0,1,1,4.8303,1.45317L754.4815,1316.847A2.52167,2.52167,0,0,1,751.33977,1318.53551Z" style="fill: #ea5d4e"/>
      </g>
      <g>
        <rect x="563.53838" y="1480.19705" width="55.27517" height="16.61816" rx="8.30907" transform="translate(-634.23974 457.24677) rotate(-28.25639)" style="fill: #ea5d4e"/>
        <path d="M632.77406,1488.99934a2.52209,2.52209,0,0,1-4.36528,2.52234c-.29484-.46881-6.64834-10.34607-15.353-5.66764a2.52208,2.52208,0,0,1-2.388-4.44308c10.33321-5.55372,18.927,2.44651,22.0277,7.45259C632.72326,1488.90827,632.74958,1488.95378,632.77406,1488.99934Z" style="fill: #ea5d4e"/>
        <path d="M613.74979,1453.60291c.02487.04628.04791.09262.0699.14046,2.4643,5.3481,4.39493,16.92955-5.93828,22.48327a2.52208,2.52208,0,0,1-2.388-4.44309c8.78348-4.72079,3.95495-15.47359,3.74573-15.92876a2.522,2.522,0,0,1,4.51065-2.25188Z" style="fill: #ea5d4e"/>
        <g>
          <path d="M557.41952,1493.48307l4.32683,8.05047,2.32683,4.32928L568.4,1513.9132c2.83035,5.26613,7.46579,2.246,7.46579,2.246s4.90814-2.30916,2.20674-7.33538,2.38-7.911,2.38-7.911l-5.54056-10.30871s-5.20962,2.64631-7.911-2.37991-7.33534-2.20687-7.33534-2.20687S554.58922,1488.217,557.41952,1493.48307Z" style="fill: #ea5d4e"/>
          <path d="M577.13329,1489.41027l6.7073,12.47954-2.14338,1.2163a3.19058,3.19058,0,0,0-1.40329,4.52344,7.73016,7.73016,0,0,1,.7673,6.23129,8.28885,8.28885,0,0,1-3.967,4.50328,8.16735,8.16735,0,0,1-5.95147.96363,7.87154,7.87154,0,0,1-4.964-4.22083L555.19834,1494.677a7.8716,7.8716,0,0,1-.7813-6.4689,8.16737,8.16737,0,0,1,4.08741-4.4319,8.28884,8.28884,0,0,1,5.94459-.82384,7.73014,7.73014,0,0,1,4.77359,4.078,3.19809,3.19809,0,0,0,4.56822,1.31491l2.17472-1.05046Zm.10126,10.84316-3.54818-6.60171a7.95038,7.95038,0,0,1-8.90682-4.23334,2.9529,2.9529,0,0,0-1.63126-1.59227,3.26386,3.26386,0,0,0-2.19838.36134l-.12244.07047-.15981.07377.00073-.00039a3.22592,3.22592,0,0,0-1.49391,1.55416,3.1368,3.1368,0,0,0,.46694,2.40353l10.98034,20.42994a3.108,3.108,0,0,0,1.7695,1.72116,3.21619,3.21619,0,0,0,2.09715-.39361l.14631-.09542.15687-.07405a3.24928,3.24928,0,0,0,1.48717-1.62044,2.95292,2.95292,0,0,0-.42792-2.239A7.95038,7.95038,0,0,1,577.23455,1500.25343Z" style="fill: #ea5d4e"/>
        </g>
        <path d="M629.103,1468.12216a2.52169,2.52169,0,0,1-1.02755,3.41554l-16.81776,9.03893a2.52208,2.52208,0,0,1-2.388-4.44309l16.81777-9.03893A2.52168,2.52168,0,0,1,629.103,1468.12216Z" style="fill: #ea5d4e"/>
      </g>
      <g>
        <rect x="823.59003" y="1340.47459" width="55.27517" height="16.61816" rx="8.30907" transform="translate(-537.10433 563.71026) rotate(-28.25639)" style="fill: #ea5d4e"/>
        <path d="M809.62951,1348.29046a2.52209,2.52209,0,0,1,4.36529-2.52234c.29484.46881,6.64833,10.34607,15.353,5.66764a2.52208,2.52208,0,1,1,2.388,4.44308c-10.3332,5.55372-18.927-2.44651-22.02769-7.45259C809.68032,1348.38153,809.654,1348.336,809.62951,1348.29046Z" style="fill: #ea5d4e"/>
        <path d="M828.65379,1383.68689c-.02488-.04628-.04792-.09262-.0699-.14046-2.46431-5.3481-4.39493-16.92955,5.93828-22.48327a2.52208,2.52208,0,0,1,2.388,4.44309c-8.78348,4.7208-3.955,15.47359-3.74573,15.92876a2.522,2.522,0,0,1-4.51064,2.25188Z" style="fill: #ea5d4e"/>
        <g>
          <path d="M884.98405,1343.80673l-4.32683-8.05047-2.32682-4.32928-4.32679-8.05038c-2.83035-5.26612-7.46579-2.246-7.46579-2.246s-4.90814,2.30917-2.20673,7.33539-2.38,7.911-2.38,7.911l5.54055,10.30871s5.20962-2.64631,7.911,2.37991,7.33534,2.20687,7.33534,2.20687S887.81435,1349.07277,884.98405,1343.80673Z" style="fill: #ea5d4e"/>
          <path d="M865.27028,1347.87953,858.563,1335.4l2.14338-1.2163a3.19057,3.19057,0,0,0,1.40328-4.52344,7.73015,7.73015,0,0,1-.76729-6.23129,8.28884,8.28884,0,0,1,3.967-4.50328,8.16735,8.16735,0,0,1,5.95147-.96363,7.87155,7.87155,0,0,1,4.964,4.22083l10.98035,20.42994a7.87155,7.87155,0,0,1,.78129,6.4689,8.16737,8.16737,0,0,1-4.08741,4.4319,8.28885,8.28885,0,0,1-5.94458.82385,7.73023,7.73023,0,0,1-4.7736-4.07806,3.19809,3.19809,0,0,0-4.56821-1.31491L866.438,1349.995Zm-.10126-10.84316,3.54818,6.60172a7.95038,7.95038,0,0,1,8.90683,4.23333,2.9529,2.9529,0,0,0,1.63126,1.59227,3.26382,3.26382,0,0,0,2.19837-.36134l.12244-.07047.15981-.07377-.00072.00039a3.2259,3.2259,0,0,0,1.4939-1.55416,3.13672,3.13672,0,0,0-.46694-2.40352l-10.98034-20.42995a3.108,3.108,0,0,0-1.7695-1.72116,3.21621,3.21621,0,0,0-2.09715.39361l-.14631.09542-.15686.07405a3.24928,3.24928,0,0,0-1.48717,1.62044,2.95288,2.95288,0,0,0,.42792,2.239A7.95038,7.95038,0,0,1,865.169,1337.03637Z" style="fill: #ea5d4e"/>
        </g>
        <path d="M813.30058,1369.16764a2.52167,2.52167,0,0,1,1.02755-3.41553l16.81777-9.03893a2.52208,2.52208,0,1,1,2.388,4.44308l-16.81777,9.03893A2.52169,2.52169,0,0,1,813.30058,1369.16764Z" style="fill: #ea5d4e"/>
      </g>
      <g>
        <path d="M606.32614,1384.0642h0c-1.31657,4.37624.00866,8.67955-4.36758,7.363l-43.00108-12.93663a8.3335,8.3335,0,0,1-5.563-10.35055v0a8.3335,8.3335,0,0,1,10.35055-5.563l43.00108,12.93663C611.12231,1376.83015,607.64271,1379.688,606.32614,1384.0642Z" style="fill: #ea5d4e"/>
        <path d="M608.92584,1405.86516a2.52208,2.52208,0,0,1-4.87028-1.30316c.123-.54,2.61469-12.01686-6.84859-14.86383a2.52208,2.52208,0,0,1,1.45317-4.8303c11.23376,3.37961,11.65348,15.11336,10.30616,20.84571C608.95431,1405.76484,608.94074,1405.81563,608.92584,1405.86516Z" style="fill: #ea5d4e"/>
        <path d="M620.5027,1367.38391c-.01513.05032-.03161.09937-.04989.14874-2.03915,5.52421-8.86331,15.07869-20.09707,11.69908a2.52208,2.52208,0,0,1,1.45317-4.8303c9.549,2.87275,13.73805-8.14491,13.912-8.61471a2.522,2.522,0,0,1,4.78182,1.59719Z" style="fill: #ea5d4e"/>
        <g>
          <path d="M552.47166,1355.75193l-2.633,8.75207-1.416,4.70658-2.633,8.752c-1.72236,5.72508,3.69092,6.86731,3.69092,6.86731s5.10341,1.83775,6.7473-3.62651,7.27686-3.911,7.27686-3.911l3.3716-11.20713s-5.555-1.81253-3.91109-7.27679-3.62638-6.74737-3.62638-6.74737S554.194,1350.027,552.47166,1355.75193Z" style="fill: #ea5d4e"/>
          <path d="M569.29131,1366.81176l-4.0816,13.56714-2.37565-.65554a3.19057,3.19057,0,0,0-4.19083,2.20628,7.73013,7.73013,0,0,1-3.86363,4.94875,8.28883,8.28883,0,0,1-5.98941.37919,8.16735,8.16735,0,0,1-4.88971-3.52694,7.87154,7.87154,0,0,1-.52553-6.49468l6.68187-22.21042a7.87154,7.87154,0,0,1,4.02175-5.12666,8.16736,8.16736,0,0,1,6.02406-.2436,8.28886,8.28886,0,0,1,4.786,3.62091,7.73017,7.73017,0,0,1,.49182,6.25906,3.19809,3.19809,0,0,0,2.30044,4.16l2.28055.795Zm-7.59568,7.73887,2.15918-7.17705a7.9504,7.9504,0,0,1-3.30466-9.2915,2.95289,2.95289,0,0,0-.02757-2.27938,3.26385,3.26385,0,0,0-1.81-1.299l-.13641-.03675-.16516-.06083.00078.00023a3.22588,3.22588,0,0,0-2.1553.04261,3.13675,3.13675,0,0,0-1.36938,2.02972l-6.68187,22.21043a3.10791,3.10791,0,0,0,.03418,2.46827,3.21615,3.21615,0,0,0,1.76123,1.20458l.17093.036.16328.05855a3.24926,3.24926,0,0,0,2.19742-.09423,2.95293,2.95293,0,0,0,1.28064-1.88581A7.95039,7.95039,0,0,1,561.69563,1374.55063Z" style="fill: #ea5d4e"/>
        </g>
        <path d="M621.0924,1388.50692a2.52168,2.52168,0,0,1-3.14174,1.68857l-18.28344-5.50047a2.52208,2.52208,0,1,1,1.45317-4.8303l18.28344,5.50046A2.52169,2.52169,0,0,1,621.0924,1388.50692Z" style="fill: #ea5d4e"/>
      </g>
      <g>
        <path d="M836.07743,1453.2256h0c1.31656-4.37624-.00866-8.67955,4.36758-7.363l43.00107,12.93662a8.33349,8.33349,0,0,1,5.563,10.35055v0a8.33351,8.33351,0,0,1-10.35055,5.563l-43.00108-12.93663C831.28126,1460.45965,834.76087,1457.60184,836.07743,1453.2256Z" style="fill: #ea5d4e"/>
        <path d="M833.47773,1431.42464a2.52209,2.52209,0,0,1,4.87029,1.30316c-.123.54-2.61469,12.01686,6.84858,14.86383a2.52208,2.52208,0,1,1-1.45317,4.8303c-11.23375-3.37961-11.65347-15.11336-10.30616-20.84571C833.44926,1431.525,833.46283,1431.47417,833.47773,1431.42464Z" style="fill: #ea5d4e"/>
        <path d="M821.90087,1469.90589c.01514-.05032.03161-.09937.04989-.14874,2.03916-5.52421,8.86332-15.07869,20.09707-11.69908a2.52208,2.52208,0,1,1-1.45317,4.8303c-9.549-2.87275-13.738,8.14492-13.912,8.61471a2.522,2.522,0,0,1-4.78183-1.59719Z" style="fill: #ea5d4e"/>
        <g>
          <path d="M889.93192,1481.53787l2.633-8.75207,1.41594-4.70658,2.633-8.752c1.72236-5.72507-3.69092-6.8673-3.69092-6.8673s-5.1034-1.83776-6.74729,3.6265-7.27687,3.911-7.27687,3.911l-3.3716,11.20712s5.555,1.81253,3.9111,7.27679,3.62637,6.74737,3.62637,6.74737S888.20959,1487.26285,889.93192,1481.53787Z" style="fill: #ea5d4e"/>
          <path d="M873.11227,1470.478l4.08159-13.56714,2.37565.65554a3.19058,3.19058,0,0,0,4.19084-2.20628,7.73015,7.73015,0,0,1,3.86362-4.94875,8.28883,8.28883,0,0,1,5.98941-.37919,8.16734,8.16734,0,0,1,4.88972,3.52694,7.87158,7.87158,0,0,1,.52553,6.49468l-6.68188,22.21043a7.87156,7.87156,0,0,1-4.02174,5.12666,8.16734,8.16734,0,0,1-6.02406.24359,8.28891,8.28891,0,0,1-4.786-3.62091,7.7302,7.7302,0,0,1-.49182-6.25906,3.19809,3.19809,0,0,0-2.30043-4.16l-2.28055-.795Zm7.59567-7.73887-2.15918,7.17705a7.95038,7.95038,0,0,1,3.30466,9.2915,2.95294,2.95294,0,0,0,.02757,2.27938,3.26388,3.26388,0,0,0,1.81,1.299l.13641.03675.16517.06084-.00079-.00024a3.22593,3.22593,0,0,0,2.1553-.0426,3.13677,3.13677,0,0,0,1.36938-2.02973l6.68188-22.21043a3.1079,3.1079,0,0,0-.03419-2.46827,3.21615,3.21615,0,0,0-1.76123-1.20458l-.17093-.036-.16328-.05855a3.2493,3.2493,0,0,0-2.19741.09423,2.95289,2.95289,0,0,0-1.28064,1.88582A7.9504,7.9504,0,0,1,880.70794,1462.73917Z" style="fill: #ea5d4e"/>
        </g>
        <path d="M821.31117,1448.78288a2.52169,2.52169,0,0,1,3.14174-1.68857l18.28345,5.50047a2.52208,2.52208,0,0,1-1.45317,4.83031l-18.28345-5.50047A2.52169,2.52169,0,0,1,821.31117,1448.78288Z" style="fill: #ea5d4e"/>
      </g>
      <g>
        <rect x="643.03147" y="1260.98149" width="16.61816" height="55.27517" rx="8.30907" transform="translate(-532.44022 461.91071) rotate(-28.25639)" style="fill: #ea5d4e"/>
        <path d="M650.84735,1330.21718a2.52209,2.52209,0,0,1-2.52234-4.36529c.46881-.29484,10.34607-6.64834,5.66763-15.353a2.52208,2.52208,0,0,1,4.44309-2.388c5.55372,10.33321-2.44651,18.927-7.45259,22.0277C650.93841,1330.16637,650.89291,1330.19269,650.84735,1330.21718Z" style="fill: #ea5d4e"/>
        <path d="M686.24378,1311.1929c-.04629.02488-.09262.04792-.14046.0699-5.3481,2.46431-16.92955,4.39493-22.48327-5.93828a2.52208,2.52208,0,1,1,4.44308-2.388c4.7208,8.78348,15.4736,3.95494,15.92877,3.74572a2.522,2.522,0,0,1,2.25188,4.51065Z" style="fill: #ea5d4e"/>
        <g>
          <path d="M646.36361,1254.86263l-8.05046,4.32683-4.32928,2.32683-8.05038,4.32678c-5.26613,2.83035-2.246,7.4658-2.246,7.4658s2.30916,4.90814,7.33538,2.20673,7.911,2.38,7.911,2.38l10.30871-5.54055s-2.6463-5.20963,2.37992-7.911,2.20687-7.33535,2.20687-7.33535S651.62965,1252.03233,646.36361,1254.86263Z" style="fill: #ea5d4e"/>
          <path d="M650.43642,1274.57641l-12.47954,6.70729-1.2163-2.14338a3.19058,3.19058,0,0,0-4.52344-1.40329,7.73015,7.73015,0,0,1-6.2313.7673,8.28881,8.28881,0,0,1-4.50327-3.967,8.16733,8.16733,0,0,1-.96363-5.95148,7.87155,7.87155,0,0,1,4.22082-4.964l20.42995-10.98034a7.87155,7.87155,0,0,1,6.4689-.78129,8.16726,8.16726,0,0,1,4.43189,4.08741,8.28875,8.28875,0,0,1,.82385,5.94458,7.73014,7.73014,0,0,1-4.07805,4.77359,3.19809,3.19809,0,0,0-1.31491,4.56822l1.05046,2.17473Zm-10.84316.10125,6.60171-3.54817a7.95039,7.95039,0,0,1,4.23333-8.90683,2.95292,2.95292,0,0,0,1.59228-1.63126,3.26386,3.26386,0,0,0-.36134-2.19838l-.07047-.12243-.07377-.15981.00038.00072a3.22582,3.22582,0,0,0-1.55415-1.4939,3.13671,3.13671,0,0,0-2.40353.46694l-20.42994,10.98034a3.10786,3.10786,0,0,0-1.72116,1.7695,3.21614,3.21614,0,0,0,.39361,2.09715l.09542.14631.07405.15686a3.24928,3.24928,0,0,0,1.62044,1.48717,2.95288,2.95288,0,0,0,2.239-.42792A7.9504,7.9504,0,0,1,639.59326,1274.67766Z" style="fill: #ea5d4e"/>
        </g>
        <path d="M671.72453,1326.5461a2.52167,2.52167,0,0,1-3.41554-1.02754l-9.03893-16.81777a2.52208,2.52208,0,1,1,4.44309-2.388l9.03893,16.81776A2.52168,2.52168,0,0,1,671.72453,1326.5461Z" style="fill: #ea5d4e"/>
      </g>
      <g>
        <path d="M777.97889,1524.3265h0c4.02542-2.16351,6.13124-6.14349,8.29476-2.11807l21.25878,39.55393a8.33351,8.33351,0,0,1-3.38528,11.25261h0a8.3335,8.3335,0,0,1-11.25261-3.38528l-21.25878-39.55393C769.47224,1526.05033,773.95347,1526.49,777.97889,1524.3265Z" style="fill: #ea5d4e"/>
        <path d="M791.55622,1507.07262a2.52209,2.52209,0,0,1,2.52234,4.36529c-.4688.29484-10.34606,6.64834-5.66763,15.353a2.52208,2.52208,0,0,1-4.44309,2.388c-5.55371-10.33321,2.44652-18.927,7.45259-22.0277C791.46516,1507.12343,791.51067,1507.09711,791.55622,1507.07262Z" style="fill: #ea5d4e"/>
        <path d="M756.1598,1526.0969c.04628-.02488.09262-.04792.14045-.0699,5.34811-2.4643,16.92955-4.39493,22.48327,5.93828a2.52208,2.52208,0,1,1-4.44308,2.388c-4.7208-8.78348-15.47359-3.95494-15.92876-3.74572a2.522,2.522,0,0,1-2.25188-4.51065Z" style="fill: #ea5d4e"/>
        <g>
          <path d="M796.04,1582.42717l8.05047-4.32683,4.32928-2.32683,8.05037-4.32678c5.26613-2.83035,2.246-7.4658,2.246-7.4658s-2.30916-4.90814-7.33538-2.20673-7.911-2.38-7.911-2.38L793.161,1564.9347s2.64631,5.20963-2.37991,7.911-2.20687,7.33534-2.20687,7.33534S790.77392,1585.25747,796.04,1582.42717Z" style="fill: #ea5d4e"/>
          <path d="M791.96715,1562.71339l12.47955-6.70729,1.21629,2.14338a3.19059,3.19059,0,0,0,4.52345,1.40329,7.73012,7.73012,0,0,1,6.23129-.7673,8.28888,8.28888,0,0,1,4.50328,3.967,8.1674,8.1674,0,0,1,.96363,5.95148,7.87157,7.87157,0,0,1-4.22083,4.964l-20.42994,10.98034a7.87155,7.87155,0,0,1-6.4689.78129,8.16733,8.16733,0,0,1-4.4319-4.08741,8.28885,8.28885,0,0,1-.82385-5.94458,7.73016,7.73016,0,0,1,4.07806-4.77359,3.1981,3.1981,0,0,0,1.31491-4.56822l-1.05046-2.17472Zm10.84316-.10125-6.60171,3.54817a7.95039,7.95039,0,0,1-4.23333,8.90683,2.9529,2.9529,0,0,0-1.59227,1.63126,3.26386,3.26386,0,0,0,.36134,2.19838l.07046.12244.07378.1598-.00039-.00072a3.22586,3.22586,0,0,0,1.55415,1.49391,3.13678,3.13678,0,0,0,2.40353-.46694l20.42995-10.98035a3.10792,3.10792,0,0,0,1.72116-1.7695,3.21608,3.21608,0,0,0-.39362-2.09714l-.09541-.14632-.07406-.15686a3.24923,3.24923,0,0,0-1.62044-1.48717,2.95289,2.95289,0,0,0-2.239.42792A7.9504,7.9504,0,0,1,802.81031,1562.61214Z" style="fill: #ea5d4e"/>
        </g>
        <path d="M770.679,1510.7437a2.52167,2.52167,0,0,1,3.41554,1.02754l9.03893,16.81777a2.52208,2.52208,0,1,1-4.44308,2.388l-9.03893-16.81777A2.52167,2.52167,0,0,1,770.679,1510.7437Z" style="fill: #ea5d4e"/>
      </g>
    </g>
  </g>
</svg>
