<svg xmlns="http://www.w3.org/2000/svg" width="172.55362mm" height="171.35506mm" viewBox="0 0 489.12837 485.73087">
  <title>alle_figuren_v2</title>
  <g id="e4d62392-685d-4382-9bf6-cd98671ebda0" data-name="Ebene 1">
    <path d="M404.99259,307.68938V200.99862a68.03148,68.03148,0,0,0-34.01575-58.917L278.57993,88.73624a68.03147,68.03147,0,0,0-68.03149,0l-92.39691,53.34538a68.03148,68.03148,0,0,0-34.01575,58.917V307.68938a68.03148,68.03148,0,0,0,34.01575,58.917l92.39691,53.34538a68.03147,68.03147,0,0,0,68.03149,0l92.39691-53.34538A68.03148,68.03148,0,0,0,404.99259,307.68938Z" style="fill: #d1e2a4;stroke: #a7cc6b;stroke-miterlimit: 10;stroke-width: 18px"/>
    <g>
      <g>
        <g>
          <path d="M278.71658,326.06534a5.553,5.553,0,0,1-3.31153-10.01123,1.50322,1.50322,0,0,1,.59083-.54932,52.65026,52.65026,0,0,0,16.40917-13.14893,1.54374,1.54374,0,0,1,.2793-.25976,5.55432,5.55432,0,0,1,9.4961,5.08545,5.5333,5.5333,0,0,1-1.667,2.77588,63.63263,63.63263,0,0,1-18.165,14.7539,5.5385,5.5385,0,0,1-3.63183,1.354Z" style="fill: #a7cc6b"/>
          <path d="M296.791,301.78027a4.05416,4.05416,0,0,1,2.64832,7.12421,62.1,62.1,0,0,1-17.96,14.57193,4.053,4.053,0,1,1-4.728-6.50969l-.0669-.12943a54.34146,54.34146,0,0,0,16.874-13.52174l.0343.02856a4.06422,4.06422,0,0,1,3.19824-1.56384m0-3a7.10989,7.10989,0,0,0-5.13562,2.2202,2.84716,2.84716,0,0,0-.40307.39627,51.17017,51.17017,0,0,1-15.9452,12.77539,2.99978,2.99978,0,0,0-.999.83409A7.0527,7.0527,0,1,0,283.2,325.95553a65.10957,65.10957,0,0,0,18.39538-14.9551,7.02284,7.02284,0,0,0,2.03919-3.45292,7.05462,7.05462,0,0,0-6.84351-8.76724Z" style="fill: #516e7d"/>
        </g>
        <g>
          <path d="M308.60818,289.93692c-.167,0-.33691-.00733-.50781-.02246a5.55256,5.55256,0,0,1-4.458-8.01563c.01269-.03808.02734-.07519.04394-.1123l.25782-.59961a68.4128,68.4128,0,0,0,5.29-22.60889,2.42009,2.42009,0,0,0-2.374-2.55908h-.00293a2.44655,2.44655,0,0,0-2.50488,2.25732,64.86819,64.86819,0,0,1-1.02246,7.86621,5.55291,5.55291,0,0,1-11.09668-.31884c0-.16944.00781-.34033.02441-.51172a1.34528,1.34528,0,0,1,.00684-.5,52.7007,52.7007,0,0,0,.2373-20.4541,5.534,5.534,0,0,1-.21582-2.47461,5.59525,5.59525,0,0,1,4.918-4.75244,5.74848,5.74848,0,0,1,.584-.03028,5.54627,5.54627,0,0,1,5.38769,4.20948,1.41811,1.41811,0,0,1,.10449.32177c.39356,1.98877.69532,4.01367.89649,6.01856a2.41165,2.41165,0,0,0,2.40918,2.1748,2.37861,2.37861,0,0,0,1.78808-.78857,2.51023,2.51023,0,0,0,.61133-1.95947,68.73212,68.73212,0,0,0-19.82422-41.502,2.45452,2.45452,0,0,0-3.52734-.05127,2.43154,2.43154,0,0,0-.7168,1.74121,2.47764,2.47764,0,0,0,.73438,1.75244,64.01636,64.01636,0,0,1,11.89648,16.37842,5.54982,5.54982,0,0,1-9.89355,5.03174,52.75745,52.75745,0,0,0-5.08985-8.10254,3.38227,3.38227,0,0,0-2.708-1.34375,3.33292,3.33292,0,0,0-2.36426.97754,3.437,3.437,0,0,0-.25879,4.49317,46.70677,46.70677,0,0,1,6.58691,12.165,5.61278,5.61278,0,0,1-2.96,7.07764,5.55059,5.55059,0,0,1-7.39941-3.06738c-.02051-.04346-.03906-.08789-.05567-.13379a35.221,35.221,0,0,0-18.27636-20.05664q-.89209-.41895-1.79981-.78467a1.51116,1.51116,0,0,1-.207-.10205,5.51061,5.51061,0,0,1-3.13769-3.60352,5.55187,5.55187,0,0,1,6.85839-6.834,1.4567,1.4567,0,0,1,.21973.06641,5.53746,5.53746,0,0,1,.66309.26709q1.07079.43872,2.127.9331a47.00511,47.00511,0,0,1,8.51563,5.16016,3.16207,3.16207,0,0,0,1.93554.65283,3.24112,3.24112,0,0,0,2.32813-.97656,3.37147,3.37147,0,0,0-.29785-5.1045,53.01225,53.01225,0,0,0-81.708,24.08838A3.11483,3.11483,0,0,0,192.991,240.328l.15625.0293a3.11256,3.11256,0,0,0,3.4961-2.02881q.331-.90967.70312-1.80615a5.57752,5.57752,0,0,1,5.30957-3.92627c.09668,0,.19336.00244.291.00732a5.55276,5.55276,0,0,1,4.84765,7.65088,1.38686,1.38686,0,0,1-.08886.31006,35.27961,35.27961,0,0,0-2.76758,13.7793,1.37165,1.37165,0,0,1-.00684.14209,5.5599,5.5599,0,0,1-5.55176,5.41162c-.126,0-.25195-.00391-.37988-.0127a5.61314,5.61314,0,0,1-5.17383-5.64892c.00391-1.44629.07422-2.89942.209-4.32032a3.09508,3.09508,0,0,0-2.53711-3.352l-.15332-.02881a3.18635,3.18635,0,0,0-.56641-.05126,3.12257,3.12257,0,0,0-3.09082,2.79834c-.15723,1.67089-.2373,3.374-.2373,5.062a1.38081,1.38081,0,0,1-.00684.14257,5.56025,5.56025,0,0,1-5.55078,5.41114c-.12695,0-.25586-.0044-.38477-.01319a5.60873,5.60873,0,0,1-5.16992-5.63183,63.868,63.868,0,0,1,18.76172-45.20166A71.03916,71.03916,0,0,1,206.65994,199.85a2.64031,2.64031,0,0,0,.7666-3.55908c-.01758-.03515-.0332-.0708-.04883-.10693a1.558,1.558,0,0,0-1.61426-1.02588,2.71014,2.71014,0,0,0-1.3125.3335,61.18057,61.18057,0,0,0-12.82812,10.08349,68.75819,68.75819,0,0,0-14.33008,20.88184c-.01367.03125-.0293.062-.04492.09179A5.55554,5.55554,0,0,1,172.076,230.079c-.084,0-.16894-.002-.2539-.00586a5.55432,5.55432,0,0,1-4.75782-7.94043,1.4649,1.4649,0,0,1,.05372-.14209,80.00249,80.00249,0,0,1,72.68847-47.72412h.17578c.02442.001.04883.00244.07227.00488V174.268a5.55212,5.55212,0,0,1,.17773,11.09229,1.50518,1.50518,0,0,1-.19531.01611,74.2567,74.2567,0,0,0-25.27734,4.94873,2.58494,2.58494,0,0,0-1.42774,3.47022c.02832.043.05371.08691.07617.12939a2.2667,2.2667,0,0,0,2.07422,1.1211,4.25773,4.25773,0,0,0,1.46973-.291l.92773-.35693c8.1543-3.4502,14.209-4.10791,22.51172-4.10791a63.83648,63.83648,0,0,1,37.00782,11.76318,2.5152,2.5152,0,0,0,1.46191.46777,2.45876,2.45876,0,0,0,2.458-2.65332,2.42515,2.42515,0,0,0-1.01172-1.78222,68.8776,68.8776,0,0,0-12.71777-7.14161,1.4903,1.4903,0,0,1-.21094-.11132,5.55345,5.55345,0,0,1,2.12109-10.53955q.15528-.00879.30762-.00879a5.56768,5.56768,0,0,1,2.49219.59179A80.16154,80.16154,0,0,1,314.17849,285.517l-.30859.71631a1.41745,1.41745,0,0,1-.08789.17138A5.53572,5.53572,0,0,1,308.60818,289.93692Z" style="fill: #a7cc6b"/>
          <path d="M240.01345,175.76456v.00284a4.0522,4.0522,0,0,1,0,8.10132v.0079a76.30808,76.30808,0,0,0-25.79516,5.04931,4.085,4.085,0,0,0-2.17578,5.64942l.02563.0249a3.74752,3.74752,0,0,0,3.41443,1.94553,5.71337,5.71337,0,0,0,1.99194-.38532l.94336-.36285c7.71472-3.263,13.531-4.00784,21.97388-4.00784a62.33156,62.33156,0,0,1,36.13953,11.48643,4.02079,4.02079,0,0,0,2.33007.74486,3.95991,3.95991,0,0,0,2.7948-1.14815l.00183-.00187a3.94016,3.94016,0,0,0-.48132-6.00821,70.14265,70.14265,0,0,0-12.99548-7.29726l.00525-.01209a4.05366,4.05366,0,0,1,1.39538-7.76292q.11334-.00618.22534-.00615a4.03473,4.03473,0,0,1,1.85291.44868,78.66015,78.66015,0,0,1,41.13635,102.69937q-.14978.35394-.30346.70566l-.02564-.01124a4.05446,4.05446,0,0,1-3.85852,2.81024q-.18549,0-.37463-.01685a4.05276,4.05276,0,0,1-3.15552-6.028l-.01685-.00734q.13275-.30568.26343-.61247A69.81974,69.81974,0,0,0,310.731,258.668a3.91982,3.91982,0,0,0-3.84338-4.14889l-.05029-.00092-.07361-.00068a3.91975,3.91975,0,0,0-3.90894,3.65789,63.04425,63.04425,0,0,1-1.01782,7.78894,4.05287,4.05287,0,1,1-8.043-.83531l-.06042-.01256a54.36383,54.36383,0,0,0,.223-21.13623,4.0525,4.0525,0,0,1,3.40063-5.35744,4.19064,4.19064,0,0,1,.42981-.02217,4.05407,4.05407,0,0,1,3.98767,3.32917l.0337-.00664q.57989,2.92809.87609,5.877a3.91833,3.91833,0,0,0,3.90088,3.52527l.04016-.0002a3.92261,3.92261,0,0,0,3.85132-4.40323,70.22,70.22,0,0,0-20.25549-42.40763l-.06738-.06729a3.91682,3.91682,0,0,0-2.77637-1.14562,3.96018,3.96018,0,0,0-2.78552,6.77777l.0321.03216a62.37224,62.37224,0,0,1,11.58545,15.96229,4.05005,4.05005,0,0,1-7.218,3.67568,54.0819,54.0819,0,0,0-5.235-8.334,4.89058,4.89058,0,0,0-3.90039-1.934,4.83089,4.83089,0,0,0-3.42237,1.4137,4.93666,4.93666,0,0,0-.39917,6.45961,45.1922,45.1922,0,0,1,6.37537,11.77479,4.11419,4.11419,0,0,1-2.14917,5.19018,4.05089,4.05089,0,0,1-5.43982-2.337l-.00476.00171a36.71181,36.71181,0,0,0-19.04993-20.90518q-.9298-.43674-1.87549-.81769l.00525-.01537a4.05294,4.05294,0,0,1,2.62134-7.66576l.0011-.00337.05261.02116a4.07509,4.07509,0,0,1,.543.21857q1.058.43265,2.10083.92a45.4013,45.4013,0,0,1,8.24243,4.99584,4.67733,4.67733,0,0,0,2.84595.95979,4.76293,4.76293,0,0,0,3.398-1.42465,4.86985,4.86985,0,0,0-.46057-7.35069,54.51163,54.51163,0,0,0-84.02417,24.76974,4.61513,4.61513,0,0,0,3.50354,6.1171l.1532.02814a4.61207,4.61207,0,0,0,5.17907-2.98913q.33435-.91638.70874-1.81692a4.05444,4.05444,0,0,1,3.89454-2.9298q.10656,0,.21435.00553a4.05308,4.05308,0,0,1,3.41016,5.86245l.04394.01724a36.88613,36.88613,0,0,0-2.88586,14.36249h-.005a4.05347,4.05347,0,0,1-4.05346,4.0535q-.13862,0-.27918-.00937a4.11025,4.11025,0,0,1-3.77429-4.14865q.005-2.10781.20166-4.18208a4.612,4.612,0,0,0-3.75952-4.96963l-.1499-.02753a4.6544,4.6544,0,0,0-.84095-.07689,4.60383,4.60383,0,0,0-4.58374,4.15795q-.24317,2.57809-.244,5.2027h-.005a4.05348,4.05348,0,0,1-4.05359,4.05349q-.14007,0-.28235-.00959a4.10722,4.10722,0,0,1-3.771-4.13353,62.37,62.37,0,0,1,18.32153-44.14281,69.55907,69.55907,0,0,1,11.33691-9.01627,4.10453,4.10453,0,0,0,1.2699-5.47892,3.071,3.071,0,0,0-3.00293-1.95784,4.20522,4.20522,0,0,0-2.07678.54277,63.11073,63.11073,0,0,0-13.12415,10.31324,70.23794,70.23794,0,0,0-14.64172,21.33547l-.01172-.00511a4.05413,4.05413,0,0,1-3.83252,2.73389q-.093,0-.187-.0042a4.05427,4.05427,0,0,1-3.38293-5.97037l-.017-.0074a78.50158,78.50158,0,0,1,71.32776-46.83c.02771-.00055.05517-.00211.08313-.00211l.03357.00085.07946-.00085m-.00012-3-.01477,0-.04761.00046-.05053-.00049c-.0514,0-.1023.00116-.1532.0029a81.657,81.657,0,0,0-74.00183,48.61676q-.04156.0943-.07654.19065a7.05473,7.05473,0,0,0,6.08581,9.99651c.10755.00484.21509.00724.32166.00724a7.05565,7.05565,0,0,0,6.54163-4.41546q.024-.04922.04638-.09978a67.27527,67.27527,0,0,1,14.01941-20.42771,59.77021,59.77021,0,0,1,12.53186-9.85348,1.27011,1.27011,0,0,1,.54773-.12384.70839.70839,0,0,1,.19568.02273c.00256.00955.01538.0338.03064.071q.04467.1091.09766.21447c.55029,1.09153-.041,1.48866-.26368,1.63816a72.38025,72.38025,0,0,0-11.78552,9.38536,65.36942,65.36942,0,0,0-19.20019,46.26,7.11219,7.11219,0,0,0,6.56823,7.13079c.16272.011.32471.01645.48511.01645a7.0623,7.0623,0,0,0,7.04993-6.82391q.00861-.1137.00866-.22958c0-1.64178.07764-3.29744.23072-4.921a1.61008,1.61008,0,0,1,1.597-1.43966,1.662,1.662,0,0,1,.29944.02763l.14954.02744a1.60356,1.60356,0,0,1,1.3147,1.737c-.13916,1.47329-.21143,2.97287-.215,4.457a7.11643,7.11643,0,0,0,6.57385,7.149q.24169.01618.47949.01607a7.06238,7.06238,0,0,0,7.04993-6.82393q.00861-.11368.00867-.22957A33.77659,33.77659,0,0,1,209.0884,241.147a3.00188,3.00188,0,0,0,.15674-.48161,7.053,7.053,0,0,0-6.22082-9.55976c-.12317-.00637-.24634-.00951-.36865-.00951a7.0863,7.0863,0,0,0-6.72181,4.916c-.24414.59249-.47924,1.19817-.6997,1.80243a1.64425,1.64425,0,0,1-1.52808,1.09344,1.61868,1.61868,0,0,1-.29126-.02676l-.153-.02811a1.6151,1.6151,0,0,1-1.2262-2.14053,51.48581,51.48581,0,0,1,79.39026-23.40681,1.86988,1.86988,0,0,1,.17346,2.82137l-.03662.03656a1.75415,1.75415,0,0,1-1.2594.5286,1.68013,1.68013,0,0,1-1.02637-.345,48.51963,48.51963,0,0,0-8.78662-5.32605c-.6864-.32234-1.41247-.64115-2.15967-.94814a7.10243,7.10243,0,0,0-.73046-.29439,2.99864,2.99864,0,0,0-.39-.121,7.05283,7.05283,0,0,0-4.76038,13.23492,2.99954,2.99954,0,0,0,.31458.14924c.59985.24306,1.18079.49627,1.72644.75258a33.7314,33.7314,0,0,1,17.50354,19.20808q.03992.1106.0874.216a7.05394,7.05394,0,0,0,13.14783-5.114,48.19922,48.19922,0,0,0-6.79895-12.55529,1.93338,1.93338,0,0,1,.11792-2.52647,1.82116,1.82116,0,0,1,1.30762-.54156,1.89311,1.89311,0,0,1,1.51513.75345,51.23429,51.23429,0,0,1,4.94483,7.87187,7.04339,7.04339,0,0,0,9.01855,3.28173,7.04707,7.04707,0,0,0,3.55115-9.67031A65.463,65.463,0,0,0,286.74551,207.99a1.02775,1.02775,0,0,1-.32849-.73215.92783.92783,0,0,1,.277-.67316.96253.96253,0,0,1,.68359-.28326.914.914,0,0,1,.65784.26976l.06457.06445a67.21908,67.21908,0,0,1,19.39295,40.5969,1.0213,1.0213,0,0,1-.23853.80487.85786.85786,0,0,1-.65906.28794h-.00012a.91869.91869,0,0,1-.92578-.82545c-.20667-2.054-.5155-4.12637-.91821-6.15963a3.0187,3.0187,0,0,0-.15491-.52649,7.04614,7.04614,0,0,0-6.8092-5.2132h-.00147a7.2221,7.2221,0,0,0-.73535.0379,7.05261,7.05261,0,0,0-6.00745,9.08212,51.21888,51.21888,0,0,1-.24682,19.78639,3.0031,3.0031,0,0,0-.04969.8954q-.01281.21126-.01281.42111a7.053,7.053,0,0,0,14.08776.50856,66.304,66.304,0,0,0,1.02662-7.95486.9223.9223,0,0,1,.91577-.85975l.069.00111a.91976.91976,0,0,1,.66235.29713.8923.8923,0,0,1,.24133.67253,66.91819,66.91819,0,0,1-5.17419,22.11558c-.08276.19576-.16736.391-.25208.58611-.01635.03761-.03186.0755-.04663.1134a7.05335,7.05335,0,0,0,5.70252,10.10491c.21594.01942.43066.02887.64282.02887a7.031,7.031,0,0,0,6.53174-4.38892q.0564-.10512.10425-.21538.15856-.365.31445-.73137a81.6576,81.6576,0,0,0-42.62585-106.586,7.07921,7.07921,0,0,0-3.12623-.731q-.19335,0-.38916.01063a7.0537,7.0537,0,0,0-2.75976,13.35471,2.94248,2.94248,0,0,0,.33911.17234,67.37,67.37,0,0,1,12.44055,6.98542.91753.91753,0,0,1,.38611.68227.93513.93513,0,0,1-.27722.74987.96952.96952,0,0,1-.68543.28141,1.02167,1.02167,0,0,1-.59411-.19158,65.33142,65.33142,0,0,0-37.87549-12.03971c-8.28552,0-14.72522.69215-23.09668,4.22545l-.89746.34521a2.70856,2.70856,0,0,1-.915.18534.808.808,0,0,1-.73645-.29758q-.03626-.07207-.07629-.14188a1.08576,1.08576,0,0,1,.62976-1.382,73.86893,73.86893,0,0,1,24.76123-4.848,3.0341,3.0341,0,0,0,.32116-.02211,7.05239,7.05239,0,0,0-.11792-14.07906q-.1247-.01049-.25073-.01052Z" style="fill: #516e7d"/>
        </g>
        <g>
          <path d="M239.8367,334.42129a79.57086,79.57086,0,0,1-30.61817-6.2915q-.72216-.30542-1.43555-.62549a1.49034,1.49034,0,0,1-.45117-.31006,5.55321,5.55321,0,0,1,2.2793-10.332q.25781-.02271.50977-.02295a5.53716,5.53716,0,0,1,2.9541.85059l.47461.207c.57226.24219,1.15136.477,1.73144.7041a2.41,2.41,0,0,0,.88379.16846,2.4584,2.4584,0,0,0,2.33106-1.686l.00781-.02295a2.46678,2.46678,0,0,0-1.459-3.05224q-.79687-.312-1.58789-.64649A64.236,64.236,0,0,1,181.67068,279.956a5.55171,5.55171,0,0,1,4.11621-8.44336,5.7726,5.7726,0,0,1,.60547-.03222,5.51589,5.51589,0,0,1,5,3.13769,1.38214,1.38214,0,0,1,.20508.34033,53.184,53.184,0,0,0,36.12988,30.812,3.116,3.116,0,0,0,.73828.08936,3.03235,3.03235,0,0,0,3.01856-2.689l.03613-.31836a3.02339,3.02339,0,0,0-2.26856-3.27784,45.93844,45.93844,0,0,1-15.5166-7.03857,5.55338,5.55338,0,0,1,2.10645-10.42334c.17383-.01611.34668-.02393.51758-.02393a5.49835,5.49835,0,0,1,3.02832.89795,1.4082,1.4082,0,0,1,.3584.186,35.12439,35.12439,0,0,0,20.6455,6.62451,37.56548,37.56548,0,0,0,7.33887-.73242,33.25727,33.25727,0,0,0,11.91211-4.90576,35.82522,35.82522,0,0,0,14.09082-17.709,1.49107,1.49107,0,0,1,.126-.26416,5.59228,5.59228,0,0,1,5.29589-3.88135c.14161,0,.28516.00538.42969.01661a5.553,5.553,0,0,1,4.57715,7.93994,1.52108,1.52108,0,0,1-.05273.18066,46.06975,46.06975,0,0,1-3.36914,7.17725,3.35927,3.35927,0,0,0,.77246,4.27441l.72265.60254a3.38211,3.38211,0,0,0,5.07325-.87646q.49658-.83424.958-1.6836a1.52756,1.52756,0,0,1,.22168-.30762,5.52028,5.52028,0,0,1,4.75293-2.68554,5.65724,5.65724,0,0,1,1.19922.12939,5.59209,5.59209,0,0,1,4.35254,5.7002,5.529,5.529,0,0,1-1.09668,3.04638,63.61844,63.61844,0,0,1-14.958,17.99756,5.56557,5.56557,0,0,1-4.37207,2.1377,5.67132,5.67132,0,0,1-.98144-.08692,5.55051,5.55051,0,0,1-3.13672-9.19628,1.49226,1.49226,0,0,1,.47265-.65381c1.39356-1.10938,2.74219-2.2959,4.00782-3.52735a3.29555,3.29555,0,0,0,1.0039-2.52148,3.40024,3.40024,0,0,0-1.2207-2.478l-.582-.48437a3.32191,3.32191,0,0,0-2.15137-.7793,3.40806,3.40806,0,0,0-2.42676,1.01074,46.28817,46.28817,0,0,1-32.96,13.67236h-.001a3.05862,3.05862,0,0,0-3.08789,2.69092l-.03516.311a3.04535,3.04535,0,0,0,.75195,2.36572,2.96757,2.96757,0,0,0,2.23438,1.0083h.13769a52.87213,52.87213,0,0,0,18.38282-3.26318,1.4917,1.4917,0,0,1,.75976-.07373,5.55991,5.55991,0,0,1,1.19531-.12891c.15235,0,.30567.00586.46094.01856a5.58771,5.58771,0,0,1,5.07422,5.07519,5.55405,5.55405,0,0,1-4.93164,5.97949,64.47308,64.47308,0,0,1-34.98438,1.96289,2.52079,2.52079,0,0,0-.5498-.06152,2.46,2.46,0,0,0-2.33984,1.67773,2.46057,2.46057,0,0,0,1.7998,3.1792,69.33911,69.33911,0,0,0,14.7627,1.65967,1.52257,1.52257,0,0,1,.19628.01367,5.55226,5.55226,0,0,1-.1748,11.0962c-.02539.001-.0752.00146-.07715.00146l-.0332-1.499v1.5C239.9158,334.42325,239.8533,334.42178,239.8367,334.42129Z" style="fill: #a7cc6b"/>
          <path d="M279.15493,263.80484c.10462,0,.21045.004.31678.012a4.05274,4.05274,0,0,1,3.18127,6.08867l.04761.01865a44.45164,44.45164,0,0,1-3.25843,6.943,4.87078,4.87078,0,0,0,1.11036,6.17926l.7229.60176a4.88179,4.88179,0,0,0,7.32238-1.26213q.51-.85761.98731-1.7338l.03918.02139a4.05724,4.05724,0,0,1,3.61658-2.23108,4.14209,4.14209,0,0,1,.88123.09554,4.05392,4.05392,0,0,1,2.31628,6.4561,62.09861,62.09861,0,0,1-14.792,17.77911,4.05453,4.05453,0,0,1-3.28089,1.68041,4.11938,4.11938,0,0,1-.7196-.06369,4.05215,4.05215,0,0,1-1.90039-7.08557l-.09082-.114q2.16284-1.72128,4.11963-3.62547a4.87124,4.87124,0,0,0-.303-7.22794l-.5824-.48482a4.84527,4.84527,0,0,0-3.11059-1.12567,4.92126,4.92126,0,0,0-3.48816,1.45119l-.03223.03221a44.77107,44.77107,0,0,1-31.86621,13.19933h-.04565a4.54475,4.54475,0,0,0-4.53382,4.02282l-.03528.31133a4.52741,4.52741,0,0,0,4.47327,5.04211l.14148.00017a54.45834,54.45834,0,0,0,18.902-3.35626l.04968.13354a4.04707,4.04707,0,0,1,1.38672-.24351q.16736,0,.33789.01373a4.05311,4.05311,0,0,1-.05335,8.0822,62.967,62.967,0,0,1-34.33776,1.97667,4.01886,4.01886,0,0,0-.87891-.09757,3.95751,3.95751,0,0,0-.86731,7.82082,70.604,70.604,0,0,0,15.08276,1.69551v.0074a4.05224,4.05224,0,0,1,0,8.10291v.00177l-.049-.00054-.03222.00081c-.02674,0-.0531-.00149-.07972-.002A78.06424,78.06424,0,0,1,209.803,326.7483q-.70843-.29964-1.40881-.61351l.02722-.06227a4.05365,4.05365,0,0,1,1.32471-7.7164q.18933-.017.37512-.01692a4.03449,4.03449,0,0,1,2.24085.6759c.20031.08724.39953.17672.60107.262q.88165.37289,1.77075.72085a3.91583,3.91583,0,0,0,1.43054.27135,3.96464,3.96464,0,0,0,3.75415-2.71075l.00062-.00214a3.96467,3.96467,0,0,0-2.32715-4.94444q-.77838-.305-1.55042-.6315a62.73478,62.73478,0,0,1-33.04333-32.73055,4.05277,4.05277,0,0,1,2.94787-6.24577,4.19438,4.19438,0,0,1,.44568-.02382,4.05431,4.05431,0,0,1,3.77673,2.58171l.04676-.01978A54.689,54.689,0,0,0,227.372,307.22755a4.60324,4.60324,0,0,0,1.09339.13245,4.53452,4.53452,0,0,0,4.509-4.021l.03577-.31659a4.52074,4.52074,0,0,0-3.40174-4.905,44.55252,44.55252,0,0,1-15.09033-6.86439,4.05353,4.05353,0,0,1,1.46057-7.64664q.19245-.01759.38111-.01747a4.03569,4.03569,0,0,1,2.47558.84477l.03443-.043a36.6792,36.6792,0,0,0,21.522,6.90664,38.99548,38.99548,0,0,0,7.63269-.76131,34.93286,34.93286,0,0,0,12.446-5.12662,37.38178,37.38178,0,0,0,14.6731-18.44784l.05371.0211a4.054,4.054,0,0,1,3.95764-3.17778m.00025-3h-.00025a7.10308,7.10308,0,0,0-6.676,4.7783,3.03029,3.03029,0,0,0-.15589.35627,34.33519,34.33519,0,0,1-13.509,16.96872,31.7563,31.7563,0,0,1-11.37646,4.68582,36.10231,36.10231,0,0,1-7.04578.70332,33.638,33.638,0,0,1-19.7699-6.3418,3.00488,3.00488,0,0,0-.56518-.3206,6.97994,6.97994,0,0,0-3.69678-1.046q-.32447,0-.65466.02995a7.05348,7.05348,0,0,0-2.76233,13.19373,47.42251,47.42251,0,0,0,15.953,7.219,1.5206,1.5206,0,0,1,1.1333,1.65384l-.03589.31691a1.5354,1.5354,0,0,1-1.528,1.3577,1.61136,1.61136,0,0,1-.38159-.04678,51.68959,51.68959,0,0,1-35.10511-29.93879,3.00129,3.00129,0,0,0-.30774-.55569,7.006,7.006,0,0,0-6.27893-3.83844h-.0011a7.22335,7.22335,0,0,0-.76293.04076,7.05322,7.05322,0,0,0-5.29163,10.62944A65.73519,65.73519,0,0,0,214.873,314.74344q.809.34215,1.62463.66173a.967.967,0,0,1,.57593,1.20155l-.00451.01369a.9604.9604,0,0,1-.90455.64886.923.923,0,0,1-.33715-.065q-.85163-.33326-1.69544-.69026c-.11938-.05046-.23767-.10268-.35608-.15479l-.00268-.00116a7.02553,7.02553,0,0,0-3.65186-1.0189q-.31916,0-.64429.02905a7.024,7.024,0,0,0-6.38635,6.45257,7.0966,7.0966,0,0,0,3.33472,6.57848,2.99824,2.99824,0,0,0,.74695.4754q.72765.32447,1.462.63662a81.06282,81.06282,0,0,0,31.16321,6.4096c.04724.00147.09082.00232.13477.00232l.07165-.00087h.00086q.07836,0,.15637-.00406a7.05223,7.05223,0,0,0,.19177-14.0883,3.01332,3.01332,0,0,0-.32385-.01907,67.83208,67.83208,0,0,1-14.44287-1.62308.95753.95753,0,0,1,.21179-1.8933,1.0229,1.0229,0,0,1,.22351.02512,65.97578,65.97578,0,0,0,35.6499-1.95674,7.05417,7.05417,0,0,0,6.08838-7.57173,7.10312,7.10312,0,0,0-6.449-6.44809q-.293-.02379-.58069-.02359a7.069,7.069,0,0,0-1.26758.114q-.08423-.0048-.16919-.00481a2.99271,2.99271,0,0,0-1.03918.18668,51.37752,51.37752,0,0,1-17.86243,3.17038l-.13318-.00015a1.49212,1.49212,0,0,1-1.11926-.506,1.52749,1.52749,0,0,1-.38123-1.19922l.03516-.3104a1.54831,1.54831,0,0,1,1.55286-1.36065,47.77888,47.77888,0,0,0,34.0332-14.078,1.94917,1.94917,0,0,1,1.39917-.60473h.00012a1.84175,1.84175,0,0,1,1.191.43132l.5824.48483a1.87816,1.87816,0,0,1,.68127,1.384,1.81989,1.81989,0,0,1-.55041,1.38755c-1.23267,1.19857-2.54358,2.35223-3.89637,3.42884a2.99891,2.99891,0,0,0-.81835,1.01218,7.05254,7.05254,0,1,0,10.84594,9.01717,65.104,65.104,0,0,0,15.14575-18.24027,7.02121,7.02121,0,0,0,1.33082-3.78339,7.05235,7.05235,0,0,0-7.04969-7.40626,7.00855,7.00855,0,0,0-5.97827,3.31538,2.84865,2.84865,0,0,0-.31225.4594c-.29749.5464-.61084,1.09666-.93128,1.63548a1.87819,1.87819,0,0,1-1.629.9252,1.84838,1.84838,0,0,1-1.19543-.43548l-.7229-.60178a1.8638,1.8638,0,0,1-.4336-2.37,47.61249,47.61249,0,0,0,3.47815-7.41135q.03369-.092.06128-.18477a7.05393,7.05393,0,0,0-5.87866-9.94913q-.27411-.02077-.54382-.02067Z" style="fill: #516e7d"/>
        </g>
      </g>
      <path d="M262.6742,254.03148v0a23.23929,23.23929,0,0,0-11.61964-20.12582h0a23.23929,23.23929,0,0,0-23.23929,0h0a23.23928,23.23928,0,0,0-11.61965,20.12582v0a23.23928,23.23928,0,0,0,11.61965,20.12582h0a23.23929,23.23929,0,0,0,23.23929,0h0A23.23929,23.23929,0,0,0,262.6742,254.03148Z" style="fill: #f5edd1;stroke: #529e33;stroke-miterlimit: 10;stroke-width: 6px"/>
    </g>
  </g>
</svg>
