<svg width="100%" height="100%" className="logo-svg" version="1.1" xmlns="http://www.w3.org/2000/svg"
                    xmlnsXlink="http://www.w3.org/1999/xlink" viewBox="0 0 312.857 89">
                    <title>VIRUSIM</title>
                    <path fill="#F08370" d="M86,41.5h-6.599c-0.529-7.481-3.398-14.316-7.895-19.764l4.459-4.459c1.171-1.171,1.171-3.071,0-4.243
	c-1.171-1.171-3.071-1.171-4.242,0L67.3,17.458c-5.415-4.655-12.265-7.681-19.8-8.321V3c0-1.657-1.343-3-3-3s-3,1.343-3,3v6.137
	c-7.535,0.64-14.386,3.666-19.801,8.321l-4.423-4.423c-1.171-1.172-3.071-1.172-4.242,0c-1.172,1.171-1.172,3.071,0,4.242
	l4.458,4.458c-4.496,5.448-7.365,12.283-7.894,19.764H3c-1.657,0-3,1.343-3,3c0,1.657,1.343,3,3,3h6.675
	c0.729,7.339,3.73,14.006,8.283,19.301l-4.924,4.924c-1.171,1.171-1.171,3.071,0,4.242c0.585,0.586,1.354,0.879,2.121,0.879
	s1.536-0.293,2.121-0.879l4.959-4.96c5.327,4.396,11.979,7.237,19.264,7.856V86c0,1.657,1.343,3,3,3s3-1.343,3-3v-7.137
	c7.286-0.619,13.938-3.46,19.264-7.856l4.959,4.96c0.585,0.586,1.354,0.879,2.121,0.879s1.536-0.293,2.121-0.879
	c1.172-1.171,1.172-3.071,0-4.242l-4.924-4.924c4.553-5.295,7.555-11.962,8.283-19.301H86c1.657,0,3-1.343,3-3
	C89,42.843,87.656,41.5,86,41.5z"/>
                    <path id="a9a63e39-4e48-47ba-bb93-ed3c5fd77fb4" fill="#516E7D" d="M58.911,42.822c0.927,0.601,1.191,1.839,0.591,2.766
	c-0.153,0.236-0.354,0.438-0.591,0.592L37.588,60c-0.927,0.602-2.165,0.337-2.766-0.59c-0.211-0.324-0.322-0.703-0.322-1.09V30.68
	c-0.001-1.105,0.894-2.001,1.998-2.002c0.387,0,0.766,0.111,1.09,0.322L58.911,42.822z"/>
                    <g id="bda44f98-32e8-44ef-91e3-53749fcd100c">
                        <g>
                            <path fill="#516E7D" d="M120.47,62.559l-11.99-37.453l-0.056-0.221c0-0.256,0.165-0.385,0.495-0.385h2.971
			c0.295-0.023,0.567,0.159,0.659,0.44L122.56,57.17c0.026,0.067,0.092,0.111,0.165,0.109c0.072,0.002,0.138-0.043,0.165-0.109
			L132.9,24.94c0.092-0.282,0.364-0.464,0.66-0.44h2.915c0.402,0,0.549,0.202,0.439,0.605l-12.1,37.453
			c-0.092,0.282-0.365,0.465-0.66,0.441h-3.025C120.835,63.023,120.561,62.841,120.47,62.559z"/>
                            <path fill="#516E7D" d="M145.274,62.449V25.05c-0.038-0.266,0.147-0.512,0.413-0.55c0.046-0.006,0.092-0.006,0.138,0h2.805
			c0.266-0.038,0.512,0.147,0.55,0.414c0.007,0.045,0.007,0.091,0,0.136v37.399c0.038,0.267-0.146,0.513-0.412,0.551
			c-0.046,0.006-0.093,0.006-0.138,0h-2.805c-0.266,0.038-0.512-0.146-0.551-0.412C145.268,62.543,145.267,62.496,145.274,62.449z"
                            />
                            <path fill="#516E7D" d="M182.51,62.615l-8.085-17.05c-0.024-0.101-0.117-0.17-0.221-0.165h-9.351
			c-0.105-0.016-0.204,0.059-0.22,0.164c-0.003,0.019-0.003,0.037,0,0.056v16.829c0.038,0.267-0.146,0.513-0.413,0.551
			c-0.045,0.006-0.092,0.006-0.137,0h-2.805c-0.266,0.038-0.512-0.146-0.551-0.412c-0.007-0.045-0.007-0.092,0-0.139V25.05
			c-0.038-0.266,0.147-0.512,0.413-0.55c0.046-0.006,0.092-0.006,0.138,0h14.245c2.846-0.12,5.613,0.946,7.645,2.942
			c1.979,2.052,3.032,4.825,2.915,7.673c0.068,2.356-0.669,4.665-2.09,6.545c-1.405,1.805-3.419,3.036-5.665,3.465
			c-0.146,0.074-0.184,0.165-0.109,0.275l8.25,16.939c0.039,0.086,0.058,0.18,0.055,0.275c0,0.256-0.147,0.385-0.44,0.385h-2.915
			C182.888,63.029,182.621,62.873,182.51,62.615z M164.634,28.13v13.915c-0.016,0.106,0.058,0.204,0.164,0.22
			c0.019,0.003,0.037,0.003,0.056,0h10.23c3.746,0.203,6.947-2.671,7.15-6.417c0.013-0.244,0.013-0.488,0-0.732
			c0.075-1.93-0.64-3.807-1.98-5.197c-1.369-1.359-3.243-2.086-5.17-2.008h-10.23c-0.106-0.015-0.204,0.059-0.22,0.166
			C164.632,28.094,164.632,28.112,164.634,28.13z"/>
                            <path fill="#516E7D" d="M201.429,61.9c-1.92-0.971-3.523-2.469-4.62-4.318c-1.13-1.963-1.701-4.198-1.65-6.463V25.05
			c-0.038-0.266,0.146-0.512,0.413-0.55c0.045-0.006,0.091-0.006,0.137,0h2.806c0.266-0.038,0.512,0.147,0.55,0.413
			c0.006,0.045,0.006,0.091,0,0.137V51.23c-0.091,2.379,0.828,4.686,2.53,6.352c3.836,3.264,9.474,3.264,13.31,0
			c1.701-1.666,2.62-3.973,2.53-6.352V25.05c-0.038-0.266,0.146-0.512,0.412-0.55c0.045-0.006,0.092-0.006,0.138,0h2.805
			c0.266-0.038,0.513,0.147,0.551,0.414c0.006,0.045,0.006,0.091,0,0.136v26.069c0.05,2.262-0.512,4.494-1.623,6.463
			c-1.082,1.853-2.677,3.352-4.593,4.318C210.79,63.953,205.763,63.953,201.429,61.9L201.429,61.9z"/>
                            <path fill="#516E7D" d="M236.134,62.037c-2.051-0.814-3.818-2.211-5.087-4.016c-1.208-1.793-1.833-3.915-1.788-6.076v-1.211
			c-0.002-0.362,0.29-0.658,0.653-0.66c0.002,0,0.004,0,0.007,0h6.271c0.362,0,0.657,0.293,0.659,0.655c0,0.002,0,0.003,0,0.005
			v0.824c0.016,1.5,0.779,2.893,2.035,3.713c1.621,1.086,3.551,1.617,5.5,1.514c1.55,0.119,3.091-0.32,4.346-1.238
			c0.916-0.746,1.442-1.87,1.43-3.053c0.019-0.83-0.299-1.634-0.88-2.227c-0.691-0.676-1.503-1.217-2.393-1.596
			c-1.009-0.457-2.613-1.09-4.812-1.896c-2.141-0.711-4.227-1.574-6.242-2.585c-1.684-0.862-3.15-2.093-4.29-3.603
			c-1.191-1.633-1.802-3.618-1.733-5.638c-0.043-2.055,0.553-4.073,1.705-5.775c1.185-1.688,2.825-3.004,4.73-3.795
			c2.212-0.918,4.591-1.368,6.985-1.32c2.562-0.045,5.104,0.461,7.452,1.485c2.054,0.888,3.824,2.324,5.115,4.152
			c1.24,1.822,1.884,3.984,1.842,6.188v0.825c0.002,0.363-0.291,0.659-0.653,0.66c-0.002,0-0.004,0-0.006,0h-6.325
			c-0.363,0.002-0.658-0.291-0.66-0.653c0-0.002,0-0.004,0-0.007v-0.44c0.003-1.532-0.696-2.981-1.897-3.932
			c-1.479-1.152-3.326-1.729-5.197-1.623c-1.432-0.083-2.852,0.303-4.043,1.101c-0.958,0.704-1.504,1.837-1.457,3.024
			c-0.025,0.852,0.28,1.68,0.853,2.311c0.72,0.726,1.58,1.297,2.529,1.677c1.118,0.495,2.851,1.165,5.198,2.008
			c2.086,0.739,4.132,1.583,6.132,2.53c1.557,0.792,2.926,1.907,4.016,3.272c1.244,1.608,1.877,3.606,1.787,5.638
			c0.127,3.175-1.286,6.217-3.795,8.167c-2.53,1.999-5.959,2.998-10.285,2.997C241.198,63.496,238.579,63.019,236.134,62.037z"/>
                            <path fill="#516E7D" d="M264.76,62.807c-0.127-0.122-0.196-0.291-0.192-0.467V25.16c-0.002-0.363,0.291-0.658,0.653-0.66
			c0.002,0,0.004,0,0.007,0h6.435c0.362-0.001,0.658,0.291,0.66,0.654c0,0.002,0,0.004,0,0.006v37.18
			c0.002,0.362-0.291,0.658-0.653,0.66c-0.003,0-0.005,0-0.007,0h-6.435C265.052,63.004,264.883,62.934,264.76,62.807z"/>
                            <path fill="#516E7D" d="M305.762,24.5h6.435c0.362-0.001,0.658,0.291,0.66,0.654c0,0.002,0,0.004,0,0.006v37.18
			c0.002,0.362-0.291,0.658-0.653,0.66c-0.003,0-0.005,0-0.007,0h-6.435c-0.363,0.002-0.658-0.291-0.66-0.654
			c0-0.002,0-0.004,0-0.006V38.085c0-0.146-0.037-0.22-0.11-0.22s-0.146,0.055-0.22,0.165l-5.83,9.13
			c-0.155,0.277-0.452,0.446-0.77,0.439h-3.245c-0.318,0.007-0.615-0.162-0.771-0.439l-5.83-9.13
			c-0.073-0.11-0.146-0.156-0.22-0.138c-0.074,0.019-0.11,0.102-0.11,0.247v24.2c0.002,0.362-0.291,0.658-0.653,0.66
			c-0.002,0-0.004,0-0.006,0h-6.436c-0.363,0.002-0.658-0.291-0.66-0.654c0-0.002,0-0.004,0-0.006V25.16
			c-0.002-0.363,0.291-0.658,0.653-0.66c0.002,0,0.004,0,0.007,0h6.436c0.318-0.006,0.614,0.163,0.77,0.44l8.25,12.814
			c0.11,0.22,0.22,0.22,0.33,0l8.305-12.814C305.147,24.663,305.444,24.493,305.762,24.5z"/>
                        </g>
                    </g>
</svg>