<svg xmlns="http://www.w3.org/2000/svg" width="160.30679mm" height="167.03315mm" viewBox="0 0 454.41296 473.47979">
  <title>alle_figuren_v2</title>
  <g id="aa947fee-676a-464d-a6aa-8359b54632e9" data-name="Ebene 1">
    <g>
      <circle cx="219.96552" cy="227.13793" r="122.75862" style="fill: #f08271"/>
      <circle cx="219.96552" cy="227.13793" r="108.91972" style="fill: #edaaa4"/>
      <g>
        <path d="M219.96346,347.71438h0c4.57,0,8.30907-2.50878,8.30907,2.06121v44.90489a8.3335,8.3335,0,0,1-8.30907,8.30907h0a8.3335,8.3335,0,0,1-8.30907-8.30907V349.77559C211.65439,345.2056,215.39347,347.71438,219.96346,347.71438Z" style="fill: #ea5d4e"/>
        <path d="M240.09119,338.94427a2.52209,2.52209,0,0,1,.15517,5.03923c-.55253.03776-12.26065.95809-12.26065,10.84034a2.52208,2.52208,0,1,1-5.04416,0c0-11.73111,11.11537-15.51341,16.99283-15.87465C239.98692,338.94591,240.03947,338.94427,240.09119,338.94427Z" style="fill: #ea5d4e"/>
        <path d="M199.90624,338.94427c.05254,0,.10427.00164.15681.00492,5.87746.36124,16.99283,4.14354,16.99283,15.87465a2.52208,2.52208,0,1,1-5.04416,0c0-9.97173-11.75738-10.80914-12.25736-10.84034a2.522,2.522,0,0,1,.15188-5.03923Z" style="fill: #ea5d4e"/>
        <g>
          <path d="M208.36644,407.44209h23.194c5.97854,0,5.51283-5.51284,5.51283-5.51284s.28961-5.41647-5.41657-5.41647-5.84154-5.84165-5.84154-5.84165H214.11182s-.13536,5.84165-5.84154,5.84165-5.41657,5.41647-5.41657,5.41647S202.388,407.44209,208.36644,407.44209Z" style="fill: #ea5d4e"/>
          <path d="M214.11181,388.14931h14.16781l.05665,2.46379a3.19058,3.19058,0,0,0,3.32008,3.37755,7.73018,7.73018,0,0,1,5.852,2.27414A8.28876,8.28876,0,0,1,239.597,401.891a8.16736,8.16736,0,0,1-1.96873,5.69849,7.87157,7.87157,0,0,1-6.06793,2.3743H208.36653a7.87157,7.87157,0,0,1-6.06793-2.3743,8.16736,8.16736,0,0,1-1.96873-5.69849,8.28884,8.28884,0,0,1,2.0886-5.62623,7.73016,7.73016,0,0,1,5.852-2.27414,3.1981,3.1981,0,0,0,3.3209-3.40136l.10426-2.41289Zm9.599,5.04416H216.216a7.9504,7.9504,0,0,1-7.94553,5.84133,2.95287,2.95287,0,0,0-2.1748.68307,3.26379,3.26379,0,0,0-.72247,2.10747l.0041.14121-.01067.1757v-.00082a3.22584,3.22584,0,0,0,.66172,2.05165,3.13673,3.13673,0,0,0,2.33817.72657h23.19376a3.10794,3.10794,0,0,0,2.35378-.74381,3.21618,3.21618,0,0,0,.64612-2.03359l-.01478-.174.009-.17323a3.24925,3.24925,0,0,0-.72329-2.0771,2.95289,2.95289,0,0,0-2.1748-.68307A7.95039,7.95039,0,0,1,223.71082,393.19347Z" style="fill: #ea5d4e"/>
        </g>
        <path d="M219.96382,332.29426a2.52168,2.52168,0,0,1,2.52208,2.52208v19.09292a2.52208,2.52208,0,0,1-5.04416,0V334.81634A2.52168,2.52168,0,0,1,219.96382,332.29426Z" style="fill: #ea5d4e"/>
      </g>
      <rect x="107.93459" y="274.3925" width="25.8133" height="10.58999" rx="5.29499" transform="translate(-116.90083 89.14509) rotate(-27.92183)" style="fill: #516e7d"/>
      <rect x="306.24954" y="169.29338" width="25.8133" height="10.58999" rx="5.29499" transform="translate(-44.60004 169.77446) rotate(-27.92183)" style="fill: #516e7d"/>
      <rect x="100.57179" y="257.15714" width="25.8133" height="10.58999" rx="5.29499" transform="translate(-76.82417 49.04315) rotate(-18.34168)" style="fill: #516e7d"/>
      <rect x="313.61234" y="186.52874" width="25.8133" height="10.58999" rx="5.29499" transform="translate(-43.77547 112.49526) rotate(-18.34168)" style="fill: #516e7d"/>
      <rect x="99.81899" y="188.88617" width="25.8133" height="10.58999" rx="5.29499" transform="translate(61.99701 -24.54241) rotate(17.07817)" style="fill: #516e7d"/>
      <rect x="314.36514" y="254.79971" width="25.8133" height="10.58999" rx="5.29499" transform="translate(90.81466 -84.64303) rotate(17.07817)" style="fill: #516e7d"/>
      <rect x="106.79995" y="171.49264" width="25.8133" height="10.58999" rx="5.29499" transform="translate(92.04417 -34.91576) rotate(26.65832)" style="fill: #516e7d"/>
      <rect x="307.38418" y="272.19323" width="25.8133" height="10.58999" rx="5.29499" transform="translate(158.5479 -114.20701) rotate(26.65832)" style="fill: #516e7d"/>
      <rect x="154.5425" y="122.68546" width="25.8133" height="10.58999" rx="5.29499" transform="translate(202.12023 -79.90445) rotate(62.07817)" style="fill: #516e7d"/>
      <rect x="259.64163" y="321.00041" width="25.8133" height="10.58999" rx="5.29499" transform="translate(433.23352 -67.318) rotate(62.07817)" style="fill: #516e7d"/>
      <rect x="171.77787" y="115.32267" width="25.8133" height="10.58999" rx="5.29499" transform="translate(241.05732 -92.64063) rotate(71.65832)" style="fill: #516e7d"/>
      <rect x="242.40627" y="328.36321" width="25.8133" height="10.58999" rx="5.29499" transform="translate(491.67757 -13.68059) rotate(71.65832)" style="fill: #516e7d"/>
      <rect x="240.04884" y="114.56986" width="25.8133" height="10.58999" rx="5.29499" transform="translate(441.82189 -86.73511) rotate(107.07817)" style="fill: #516e7d"/>
      <rect x="174.1353" y="329.11601" width="25.8133" height="10.58999" rx="5.29499" transform="translate(561.63685 253.8252) rotate(107.07817)" style="fill: #516e7d"/>
      <rect x="257.44236" y="121.55082" width="25.8133" height="10.58999" rx="5.29499" transform="translate(505.00808 -57.85279) rotate(116.65832)" style="fill: #516e7d"/>
      <rect x="156.74177" y="322.13505" width="25.8133" height="10.58999" rx="5.29499" transform="translate(538.38799 322.72329) rotate(116.65832)" style="fill: #516e7d"/>
      <path d="M289.94116,172.5774a54.02841,54.02841,0,0,0-32.81624,13.83591c-3.00692,2.7349-5.90014,6.46439-5.13764,10.45686.87816,4.598,6.01239,6.9051,10.5558,8.03211a75.40927,75.40927,0,0,0,41.81516-1.66872c2.05618-.68806,4.41264-1.87022,4.62636-4.02791.30783-3.10773-3.81961-4.45258-6.93988-4.58153a131.8139,131.8139,0,0,0-45.947,6.28726c-4.54131,1.47118-9.464,3.616-11.30385,8.0209-1.67708,4.01508-.12366,8.82133,2.80571,12.03882s7.00117,5.13343,11.05273,6.72036a107.97593,107.97593,0,0,0,40.97117,7.40029c3.82275-.06088,7.84936-.393,11.01411-2.53807a3.0286,3.0286,0,0,0,1.63588-2.57077,3.24106,3.24106,0,0,0-1.856-2.15426c-5.50569-3.22335-12.1192-3.96174-18.4985-3.877a81.62561,81.62561,0,0,0-24.02312,3.95727c-4.86926,1.57716-9.78622,3.75821-13.01824,7.727s-4.2402,10.13784-1.094,14.175A16.80719,16.80719,0,0,0,259.79,254.101a145.44645,145.44645,0,0,0,36.54233,12.51993,6.07011,6.07011,0,0,0,3.691-.05673c2.02938-.92721,2.40545-3.87048,1.28278-5.79863s-3.23476-3.03413-5.28978-3.90306c-11.71958-4.95545-24.78576-5.38269-37.50706-5.65455-4.31212-.09216-10.03027.99288-10.428,5.28761-.23165,2.50147,1.66877,4.63786,3.43625,6.42308,11.103,11.21444,38.15749,32.89708,38.916,25.469.16579-6.29469-9.84439-13.49921-15.77856-15.60542-8.00155-2.84-11.34047-4.89155-19.342-7.73152-5.31666-1.887-13.15618-.95-18.067,1.827-6.11186,3.45625-6.79669,12.11361-4.96734,18.89255a41.95513,41.95513,0,0,0,22.40425,26.68366c1.95792.91577,4.40475,1.636,6.15969.3742,2.74647-1.97478,1.06362-6.30522-.982-8.99934A85.99089,85.99089,0,0,0,228.75733,278.437c-3.68867-1.77232-8.68515-3.04482-11.39828.0189a9.30847,9.30847,0,0,0-1.69875,3.46832,59.98414,59.98414,0,0,0-2.03865,27.12656,12.19555,12.19555,0,0,0,2.31315,6.19173c1.45237,1.69589,4.10991,2.55471,5.98547,1.34321,1.96807-1.27126,2.20371-4.01985,2.11367-6.36107a69.63151,69.63151,0,0,0-8.65757-30.97484c-2.08519-3.75725-6.18394-7.82672-10.01018-5.871" style="fill: none;stroke: #f5edd1;stroke-linecap: round;stroke-miterlimit: 10;stroke-width: 6px"/>
      <path d="M205.36619,273.37885c-14.02384,1.45-22.20641,17.53773-28.66813,30.036-.991,1.91686-1.862,4.37845-.56144,5.98122,1.87313,2.30847,5.69646.29472,7.98957-1.82489,11.4105-10.54716,17.7714-19.78722,25.00275-33.46259,2.22142-4.201,4.25925-9.12483,2.59676-13.38931-1.51539-3.88712-5.84736-6.02222-10.08339-6.11549s-8.40422,1.49692-12.33675,3.29416a112.88159,112.88159,0,0,0-33.94974,23.99225c-2.66213,2.744-5.286,5.81471-6.08059,9.4957-.22222,1.02942-.2258,2.25509.57281,2.8863a3.13212,3.13212,0,0,0,2.76174.13693c6.0617-1.72451,11.23494-5.90421,15.68876-10.47207a85.42546,85.42546,0,0,0,14.32454-19.64927c2.382-4.50417,4.39147-9.44834,4.00676-14.40383s-3.82223-9.81877-8.763-10.31018a16.815,16.815,0,0,0-7.13338,1.36087,150.54079,150.54079,0,0,0-34.26244,17.4162,6.36541,6.36541,0,0,0-2.57179,2.64813c-.81118,2.0588.90306,4.30488,2.99412,4.80824s4.32862-.246,6.36633-1.11454c11.62091-4.95309,21.14753-13.90484,30.32575-22.71725,3.11113-2.98713,6.42448-7.76046,3.81631-10.93108-1.51914-1.84672-4.30025-1.94024-6.7511-1.89149-15.39584.30621-49.11381,4.849-44.65267,10.38278,4.11768,4.35215,16.043,2.12092,21.65608-.65816,7.56862-3.74728,11.30984-4.728,18.87846-8.47528,5.029-2.48989,9.942-8.66365,11.5461-14.00443,1.99645-6.647-3.34377-12.95574-9.198-16.22291a40.49519,40.49519,0,0,0-33.79435-2.10995c-2.00056.76835-4.21531,2.01393-4.6073,4.10381-.61346,3.27062,3.48991,4.99409,6.74892,5.36017a85.26242,85.26242,0,0,0,39.07627-4.91034c3.80067-1.41591,8.18982-4.09285,8.04709-8.07252a8.69,8.69,0,0,0-1.13221-3.53461,54.42208,54.42208,0,0,0-16.80857-19.69165,11.27,11.27,0,0,0-5.8013-2.53c-2.16793-.114-4.62489,1.1874-5.136,3.32869-.53636,2.24691,1.1462,4.26271,2.785,5.77416A63.828,63.828,0,0,0,185.219,192.61c4.00225,1.05334,9.63834.89293,11.02812-3.12841" style="fill: none;stroke: #f5edd1;stroke-linecap: round;stroke-miterlimit: 10;stroke-width: 6px"/>
      <line x1="175.43924" y1="315.8954" x2="176.13662" y2="309.3961" style="fill: none;stroke: #516e7d;stroke-linecap: round;stroke-miterlimit: 10;stroke-width: 3px"/>
      <line x1="131.3051" y1="273.69414" x2="136.45387" y2="268.27215" style="fill: none;stroke: #516e7d;stroke-linecap: round;stroke-miterlimit: 10;stroke-width: 3px"/>
      <line x1="124.54001" y1="259.19753" x2="135.48743" y2="257.64129" style="fill: none;stroke: #516e7d;stroke-linecap: round;stroke-miterlimit: 10;stroke-width: 3px"/>
      <line x1="190.17188" y1="323.60089" x2="187.03095" y2="308.0573" style="fill: none;stroke: #516e7d;stroke-linecap: round;stroke-miterlimit: 10;stroke-width: 3px"/>
      <line x1="123.82367" y1="198.42868" x2="131.2927" y2="198.77713" style="fill: none;stroke: #516e7d;stroke-linecap: round;stroke-miterlimit: 10;stroke-width: 3px"/>
      <line x1="129.04449" y1="180.97031" x2="139.99748" y2="194.82263" style="fill: none;stroke: #516e7d;stroke-linecap: round;stroke-miterlimit: 10;stroke-width: 3px"/>
      <line x1="267.24599" y1="316.46049" x2="262.0547" y2="311.0792" style="fill: none;stroke: #516e7d;stroke-linecap: round;stroke-miterlimit: 10;stroke-width: 3px"/>
      <line x1="316.53404" y1="195.14478" x2="308.76601" y2="196.71701" style="fill: none;stroke: #516e7d;stroke-linecap: round;stroke-miterlimit: 10;stroke-width: 3px"/>
      <line x1="309.12466" y1="180.32601" x2="296.23878" y2="193.53404" style="fill: none;stroke: #516e7d;stroke-linecap: round;stroke-miterlimit: 10;stroke-width: 3px"/>
      <line x1="316.21234" y1="256.8633" x2="301.71528" y2="258.60774" style="fill: none;stroke: #516e7d;stroke-linecap: round;stroke-miterlimit: 10;stroke-width: 3px"/>
      <line x1="251.50056" y1="322.26203" x2="250.42528" y2="311.25697" style="fill: none;stroke: #516e7d;stroke-linecap: round;stroke-miterlimit: 10;stroke-width: 3px"/>
      <line x1="311.18766" y1="272.30309" x2="302.20104" y2="265.8604" style="fill: none;stroke: #516e7d;stroke-linecap: round;stroke-miterlimit: 10;stroke-width: 3px"/>
      <path d="M174.62829,149.3999c11.59729.80537,15.912.01092,19.48989-1.12751,3.54362-1.12752,9.23307-4.64151,14.33554-8.859,3.793-3.13517,9.81822-5.178,14.255-3.04944,6.36237,3.04944,5.23486,30.10979-5.57213,38.29584-17.703,14.0421,4.99045-29.006,17.16123-36.30625,2.23565-1.341,4.95745-2.45974,7.39-1.52212a6.89176,6.89176,0,0,1,3.008,2.523c3.85612,5.39185,3.81464,13.47486.38561,19.1479-6.66809,11.03181-5.3795,32.61566-14.07747,25.85057-5.15435-5.31542-3.5259-9.89811-1.61073-13.04695s7.54507-8.87149,10.46977-11.11407c8.49711-6.51534,13.43194-9.196,24.06328-10.47084,4.0313-.48341,8.29619-.09608,11.81315,1.93273s6.11807,5.92213,5.83816,9.97264c-.4094,5.92439-5.63412,8.7131-11.67759,12.256-6.37033,3.73455-13.78783,7.67563-21.01688,9.18187a3.6874,3.6874,0,0,1-2.60485-.11134c-1.11191-.65013-1.24084-2.221-.95082-3.47591,1.31332-5.683,10.42988-10.913,16.1194-12.198a67.77344,67.77344,0,0,1,21.75876-1.76346c2.52241.16727,3.82763.06163,5.94589,1.44131.72085.46952,2.41486,3.83325.64429,5.63758" style="fill: none;stroke: #f5edd1;stroke-linecap: round;stroke-miterlimit: 10;stroke-width: 6px"/>
      <line x1="173.21686" y1="137.84049" x2="177.84976" y2="148.27239" style="fill: none;stroke: #516e7d;stroke-linecap: round;stroke-miterlimit: 10;stroke-width: 3px"/>
      <line x1="188.60387" y1="129.3869" x2="191.08511" y2="146.87113" style="fill: none;stroke: #516e7d;stroke-linecap: round;stroke-miterlimit: 10;stroke-width: 3px"/>
      <line x1="248.95388" y1="130.93138" x2="246.38653" y2="140.05764" style="fill: none;stroke: #516e7d;stroke-linecap: round;stroke-miterlimit: 10;stroke-width: 3px"/>
      <line x1="264.99052" y1="136.43348" x2="263.54086" y2="148.75561" style="fill: none;stroke: #516e7d;stroke-linecap: round;stroke-miterlimit: 10;stroke-width: 3px"/>
      <g>
        <path d="M220.00374,107.77907h0c-4.57,0-8.30907,2.50878-8.30907-2.06121V60.813a8.3335,8.3335,0,0,1,8.30907-8.30907h0a8.3335,8.3335,0,0,1,8.30907,8.30907v44.90489C228.31281,110.28785,224.57373,107.77907,220.00374,107.77907Z" style="fill: #ea5d4e"/>
        <path d="M199.876,116.54918a2.52209,2.52209,0,0,1-.15517-5.03923c.55253-.03777,12.26065-.9581,12.26065-10.84034a2.52208,2.52208,0,0,1,5.04416,0c0,11.73111-11.11537,15.51341-16.99283,15.87464C199.98028,116.54754,199.92773,116.54918,199.876,116.54918Z" style="fill: #ea5d4e"/>
        <path d="M240.061,116.54918c-.05254,0-.10427-.00164-.15681-.00493-5.87746-.36123-16.99283-4.14353-16.99283-15.87464a2.52208,2.52208,0,1,1,5.04416,0c0,9.97173,11.75738,10.80914,12.25736,10.84034a2.522,2.522,0,0,1-.15188,5.03923Z" style="fill: #ea5d4e"/>
        <g>
          <path d="M231.60076,48.05136h-23.194c-5.97854,0-5.51284,5.51284-5.51284,5.51284s-.2896,5.41647,5.41658,5.41647,5.84154,5.84165,5.84154,5.84165h11.7033s.13536-5.84165,5.84155-5.84165,5.41657-5.41647,5.41657-5.41647S237.5792,48.05136,231.60076,48.05136Z" style="fill: #ea5d4e"/>
          <path d="M225.85539,67.34414H211.68758l-.05665-2.46379a3.19058,3.19058,0,0,0-3.32008-3.37755,7.73018,7.73018,0,0,1-5.852-2.27414,8.28876,8.28876,0,0,1-2.08859-5.62624,8.16729,8.16729,0,0,1,1.96873-5.69848,7.87153,7.87153,0,0,1,6.06793-2.3743h23.19376a7.87153,7.87153,0,0,1,6.06793,2.3743,8.16734,8.16734,0,0,1,1.96873,5.69848,8.28884,8.28884,0,0,1-2.0886,5.62624,7.73016,7.73016,0,0,1-5.852,2.27414,3.1981,3.1981,0,0,0-3.3209,3.40136l-.10426,2.41288ZM216.25638,62.3h7.49481a7.9504,7.9504,0,0,1,7.94553-5.84134,2.95287,2.95287,0,0,0,2.1748-.68306,3.26385,3.26385,0,0,0,.72247-2.10748l-.0041-.14121.01067-.17569V53.352a3.22583,3.22583,0,0,0-.66172-2.05165,3.13674,3.13674,0,0,0-2.33817-.72658H208.40691a3.10794,3.10794,0,0,0-2.35378.74382,3.21618,3.21618,0,0,0-.64612,2.03359l.01478.17405-.009.17323a3.24925,3.24925,0,0,0,.72329,2.0771,2.95287,2.95287,0,0,0,2.1748.68306A7.95039,7.95039,0,0,1,216.25638,62.3Z" style="fill: #ea5d4e"/>
        </g>
        <path d="M220.00338,123.19919a2.52168,2.52168,0,0,1-2.52208-2.52208V101.58419a2.52208,2.52208,0,1,1,5.04415,0v19.09292A2.52168,2.52168,0,0,1,220.00338,123.19919Z" style="fill: #ea5d4e"/>
      </g>
      <g>
        <rect x="87.95911" y="323.79608" width="55.27517" height="16.61816" rx="8.30907" transform="translate(-200.97631 179.01054) rotate(-45)" style="fill: #ea5d4e"/>
        <path d="M155.57327,320.59347a2.52209,2.52209,0,0,1-3.45355,3.673c-.4174-.364-9.34706-7.99212-16.33487-1.00431a2.52208,2.52208,0,1,1-3.56675-3.56676c8.29515-8.29515,18.82939-3.10988,23.24081.79068C155.49839,320.52091,155.5367,320.5569,155.57327,320.59347Z" style="fill: #ea5d4e"/>
        <path d="M127.15822,292.17842c.03716.03716.07257.07489.1074.11437,3.90056,4.41142,9.08583,14.94566.79068,23.24081a2.52208,2.52208,0,1,1-3.56676-3.56676c7.05108-7.05107-.67051-15.95694-1.002-16.33254a2.522,2.522,0,0,1,3.67067-3.45588Z" style="fill: #ea5d4e"/>
        <g>
          <path d="M84.70522,346.596l6.46264,6.46265,3.4754,3.47539,6.46257,6.46257c4.22747,4.22747,7.79633,0,7.79633,0s4.0348-3.62524-.00007-7.66012.00007-8.26126.00007-8.26126l-8.27549-8.27548s-4.22638,4.03495-8.26126.00007-7.66012-.00007-7.66012-.00007S80.47782,342.36857,84.70522,346.596Z" style="fill: #ea5d4e"/>
          <path d="M102.40986,337.0165,112.428,347.03465l-1.70211,1.78222a3.19059,3.19059,0,0,0-.04064,4.73594,7.73019,7.73019,0,0,1,2.52994,5.746,8.28879,8.28879,0,0,1-2.50149,5.45521,8.16731,8.16731,0,0,1-5.42154,2.63734,7.87157,7.87157,0,0,1-5.96956-2.61179L82.92216,348.37915a7.8715,7.8715,0,0,1-2.61179-5.96956,8.16737,8.16737,0,0,1,2.63733-5.42154,8.28884,8.28884,0,0,1,5.45521-2.50149A7.73021,7.73021,0,0,1,94.149,337.0165a3.19809,3.19809,0,0,0,4.75335-.05689l1.77989-1.63244Zm3.22077,10.35428-5.29963-5.29963a7.9504,7.9504,0,0,1-9.74879-1.48789,2.95286,2.95286,0,0,0-2.02082-1.05482,3.26384,3.26384,0,0,0-2.00107.97935l-.097.10275-.13178.11669.00058-.00058a3.22587,3.22587,0,0,0-.98283,1.91864,3.13677,3.13677,0,0,0,1.13957,2.16711l16.40047,16.40046a3.10789,3.10789,0,0,0,2.19033,1.13841,3.21616,3.21616,0,0,0,1.89484-.98109l.11262-.13352.12887-.1161a3.24925,3.24925,0,0,0,.95729-1.98018,2.95288,2.95288,0,0,0-1.05481-2.02081A7.95038,7.95038,0,0,1,105.63063,347.37078Z" style="fill: #ea5d4e"/>
        </g>
        <path d="M146.04334,301.659a2.52167,2.52167,0,0,1,0,3.56676L132.54261,318.7265a2.52208,2.52208,0,1,1-3.56676-3.56676L142.47659,301.659A2.52168,2.52168,0,0,1,146.04334,301.659Z" style="fill: #ea5d4e"/>
      </g>
      <g>
        <rect x="296.73292" y="115.07921" width="55.27517" height="16.61816" rx="8.30907" transform="translate(7.75722 265.50416) rotate(-45)" style="fill: #ea5d4e"/>
        <path d="M284.39393,134.9a2.52208,2.52208,0,0,1,3.45355-3.673c.4174.364,9.34706,7.99211,16.33487,1.00431a2.52208,2.52208,0,1,1,3.56675,3.56676c-8.29515,8.29515-18.82939,3.10988-23.24081-.79068C284.46881,134.97254,284.4305,134.93655,284.39393,134.9Z" style="fill: #ea5d4e"/>
        <path d="M312.809,163.315c-.03715-.03715-.07256-.07489-.10739-.11436-3.90056-4.41143-9.08583-14.94567-.79068-23.24082a2.52208,2.52208,0,1,1,3.56676,3.56676c-7.05108,7.05108.67051,15.95694,1.002,16.33255A2.522,2.522,0,0,1,312.809,163.315Z" style="fill: #ea5d4e"/>
        <g>
          <path d="M355.262,108.89748l-6.46264-6.46264-3.4754-3.4754-6.46257-6.46257c-4.22747-4.22747-7.79633,0-7.79633,0s-4.03481,3.62525.00007,7.66013-.00007,8.26126-.00007,8.26126l8.27548,8.27548s4.22639-4.035,8.26127-.00007,7.66012.00007,7.66012.00007S359.48938,113.12488,355.262,108.89748Z" style="fill: #ea5d4e"/>
          <path d="M337.55734,118.477l-10.01816-10.01816,1.70211-1.78221a3.19059,3.19059,0,0,0,.04064-4.73594,7.73016,7.73016,0,0,1-2.52994-5.74606,8.28885,8.28885,0,0,1,2.50149-5.45521A8.16736,8.16736,0,0,1,334.675,88.102a7.87155,7.87155,0,0,1,5.96956,2.61179L357.045,107.11429a7.87156,7.87156,0,0,1,2.61179,5.96956,8.16731,8.16731,0,0,1-2.63733,5.42154,8.28879,8.28879,0,0,1-5.45521,2.50149,7.73014,7.73014,0,0,1-5.74606-2.52993,3.19809,3.19809,0,0,0-4.75335.05689l-1.7799,1.63244Zm-3.22077-10.35428,5.29963,5.29963a7.9504,7.9504,0,0,1,9.74879,1.48789,2.95294,2.95294,0,0,0,2.02082,1.05482,3.26387,3.26387,0,0,0,2.00107-.97935l.09695-.10276.13178-.11668-.00058.00058a3.22587,3.22587,0,0,0,.98283-1.91864,3.13675,3.13675,0,0,0-1.13957-2.16711L337.07782,94.28059a3.108,3.108,0,0,0-2.19033-1.13842,3.21618,3.21618,0,0,0-1.89484.98109l-.11262.13352-.12888.11611a3.24927,3.24927,0,0,0-.95728,1.98018,2.95288,2.95288,0,0,0,1.05481,2.02081A7.95038,7.95038,0,0,1,334.33657,108.12267Z" style="fill: #ea5d4e"/>
        </g>
        <path d="M293.92385,153.83444a2.52169,2.52169,0,0,1,0-3.56676L307.42459,136.767a2.52207,2.52207,0,1,1,3.56675,3.56675l-13.50073,13.50074A2.52169,2.52169,0,0,1,293.92385,153.83444Z" style="fill: #ea5d4e"/>
      </g>
      <g>
        <path d="M100.01594,227.72658v0c0,4.57,2.50878,8.30907-2.06121,8.30907H53.04984a8.3335,8.3335,0,0,1-8.30907-8.30907v0a8.3335,8.3335,0,0,1,8.30908-8.30907H97.95473C102.52472,219.41751,100.01594,223.15659,100.01594,227.72658Z" style="fill: #ea5d4e"/>
        <path d="M108.78605,247.85431a2.52209,2.52209,0,0,1-5.03923.15517c-.03776-.55253-.95809-12.26065-10.84033-12.26065a2.52208,2.52208,0,0,1,0-5.04416c11.73111,0,15.5134,11.11537,15.87464,16.99283C108.78441,247.75005,108.78605,247.80259,108.78605,247.85431Z" style="fill: #ea5d4e"/>
        <path d="M108.78605,207.66936c0,.05255-.00164.10427-.00492.15681-.36124,5.87746-4.14353,16.99283-15.87464,16.99283a2.52208,2.52208,0,1,1,0-5.04415c9.97173,0,10.80914-11.75739,10.84033-12.25737a2.522,2.522,0,0,1,5.03923.15188Z" style="fill: #ea5d4e"/>
        <g>
          <path d="M40.28823,216.12957v23.194c0,5.97854,5.51284,5.51284,5.51284,5.51284s5.41648.2896,5.41648-5.41658,5.84164-5.84154,5.84164-5.84154V221.875s-5.84164-.13536-5.84164-5.84154-5.41648-5.41658-5.41648-5.41658S40.28823,210.15112,40.28823,216.12957Z" style="fill: #ea5d4e"/>
          <path d="M59.581,221.87494v14.1678l-2.46379.05665a3.19057,3.19057,0,0,0-3.37754,3.32008,7.73016,7.73016,0,0,1-2.27414,5.852,8.28887,8.28887,0,0,1-5.62624,2.0886,8.16741,8.16741,0,0,1-5.69849-1.96873,7.87159,7.87159,0,0,1-2.3743-6.06793V216.12966a7.87157,7.87157,0,0,1,2.3743-6.06793A8.16739,8.16739,0,0,1,45.8393,208.093a8.28887,8.28887,0,0,1,5.62624,2.0886,7.73018,7.73018,0,0,1,2.27414,5.852,3.19809,3.19809,0,0,0,3.40135,3.3209l2.41289.10427Zm-5.04415,9.599v-7.49481a7.95038,7.95038,0,0,1-5.84134-7.94553,2.95292,2.95292,0,0,0-.68306-2.1748,3.26387,3.26387,0,0,0-2.10748-.72247l-.14121.0041-.17569-.01067h.00082a3.22583,3.22583,0,0,0-2.05165.66172,3.13677,3.13677,0,0,0-.72658,2.33818v23.19376a3.10788,3.10788,0,0,0,.74382,2.35377,3.21608,3.21608,0,0,0,2.03359.64612l.17405-.01478.17322.009a3.24928,3.24928,0,0,0,2.07711-.72329,2.95292,2.95292,0,0,0,.68306-2.1748A7.95038,7.95038,0,0,1,54.53686,231.47394Z" style="fill: #ea5d4e"/>
        </g>
        <path d="M115.43607,227.727A2.52168,2.52168,0,0,1,112.914,230.249H93.82107a2.52208,2.52208,0,1,1,0-5.04415H112.914A2.52168,2.52168,0,0,1,115.43607,227.727Z" style="fill: #ea5d4e"/>
      </g>
      <g>
        <path d="M339.95126,227.76686h0c0-4.57-2.50878-8.30907,2.06121-8.30907h44.90488a8.3335,8.3335,0,0,1,8.30908,8.30907h0a8.3335,8.3335,0,0,1-8.30908,8.30907H342.01247C337.44248,236.07593,339.95126,232.33685,339.95126,227.76686Z" style="fill: #ea5d4e"/>
        <path d="M331.18114,207.63913a2.52209,2.52209,0,0,1,5.03924-.15516c.03776.55252.95809,12.26065,10.84033,12.26065a2.52208,2.52208,0,1,1,0,5.04415c-11.73111,0-15.5134-11.11537-15.87464-16.99283C331.18279,207.7434,331.18114,207.69086,331.18114,207.63913Z" style="fill: #ea5d4e"/>
        <path d="M331.18114,247.82408c0-.05254.00165-.10426.00493-.15681.36124-5.87746,4.14353-16.99283,15.87464-16.99283a2.52208,2.52208,0,1,1,0,5.04416c-9.97173,0-10.80914,11.75738-10.84033,12.25737a2.522,2.522,0,0,1-5.03924-.15189Z" style="fill: #ea5d4e"/>
        <g>
          <path d="M399.679,239.36388v-23.194c0-5.97855-5.51283-5.51284-5.51283-5.51284s-5.41648-.28961-5.41648,5.41658-5.84164,5.84154-5.84164,5.84154v11.7033s5.84164.13536,5.84164,5.84154,5.41648,5.41658,5.41648,5.41658S399.679,245.34232,399.679,239.36388Z" style="fill: #ea5d4e"/>
          <path d="M380.38619,233.61851V219.4507l2.46378-.05665a3.19057,3.19057,0,0,0,3.37755-3.32007,7.73016,7.73016,0,0,1,2.27414-5.852,8.28886,8.28886,0,0,1,5.62624-2.0886,8.16733,8.16733,0,0,1,5.69848,1.96873,7.87153,7.87153,0,0,1,2.3743,6.06793v23.19376a7.87153,7.87153,0,0,1-2.3743,6.06793,8.16733,8.16733,0,0,1-5.69848,1.96873,8.28878,8.28878,0,0,1-5.62624-2.08859,7.73018,7.73018,0,0,1-2.27414-5.852,3.19809,3.19809,0,0,0-3.40135-3.3209l-2.41289-.10427Zm5.04415-9.599v7.49481a7.95037,7.95037,0,0,1,5.84134,7.94553,2.953,2.953,0,0,0,.68306,2.1748,3.26387,3.26387,0,0,0,2.10748.72247l.14121-.00411.17569.01067h-.00082A3.22586,3.22586,0,0,0,396.43,241.702a3.13677,3.13677,0,0,0,.72658-2.33818V216.17a3.10788,3.10788,0,0,0-.74382-2.35377,3.21609,3.21609,0,0,0-2.03359-.64612l-.17405.01477-.17323-.009a3.24929,3.24929,0,0,0-2.0771.7233,2.95292,2.95292,0,0,0-.68306,2.1748A7.95039,7.95039,0,0,1,385.43034,224.01951Z" style="fill: #ea5d4e"/>
        </g>
        <path d="M324.53113,227.7665a2.52168,2.52168,0,0,1,2.52208-2.52208h19.09292a2.52208,2.52208,0,0,1,0,5.04416H327.05321A2.52168,2.52168,0,0,1,324.53113,227.7665Z" style="fill: #ea5d4e"/>
      </g>
      <g>
        <path d="M135.1679,142.90254h0c-3.23147,3.23147-4.10143,7.64938-7.3329,4.41791L96.08244,115.5679a8.3335,8.3335,0,0,1,0-11.7508h0a8.3335,8.3335,0,0,1,11.7508,0l31.75255,31.75255C142.81727,138.80111,138.39937,139.67107,135.1679,142.90254Z" style="fill: #ea5d4e"/>
        <path d="M127.13685,163.3364a2.52209,2.52209,0,0,1-3.673-3.45356c.364-.4174,7.99211-9.34706,1.00431-16.33486a2.52208,2.52208,0,1,1,3.56675-3.56676c8.29515,8.29515,3.10989,18.82939-.79067,23.24081C127.20941,163.26151,127.17342,163.29982,127.13685,163.3364Z" style="fill: #ea5d4e"/>
        <path d="M155.5519,134.92135c-.03716.03715-.07489.07256-.11437.1074-4.41142,3.90056-14.94566,9.08582-23.24081.79067a2.52208,2.52208,0,0,1,3.56676-3.56675c7.05108,7.05108,15.95694-.67051,16.33254-1.002a2.522,2.522,0,0,1,3.45588,3.67067Z" style="fill: #ea5d4e"/>
        <g>
          <path d="M101.13436,92.46834,94.67172,98.931l-3.4754,3.4754L84.73375,108.869c-4.22747,4.22747,0,7.79633,0,7.79633s3.62524,4.03481,7.66012-.00007,8.26126.00007,8.26126.00007l8.27549-8.27548s-4.035-4.22638-.00007-8.26126.00007-7.66013.00007-7.66013S105.36176,88.24094,101.13436,92.46834Z" style="fill: #ea5d4e"/>
          <path d="M110.71382,110.173l-10.01815,10.01815L98.91345,118.489a3.19058,3.19058,0,0,0-4.73594-.04063,7.73012,7.73012,0,0,1-5.746,2.52993,8.28879,8.28879,0,0,1-5.45521-2.50149,8.16735,8.16735,0,0,1-2.63734-5.42154,7.87158,7.87158,0,0,1,2.6118-5.96956L99.35117,90.68528a7.87154,7.87154,0,0,1,5.96956-2.61179,8.16736,8.16736,0,0,1,5.42154,2.63733,8.28885,8.28885,0,0,1,2.50149,5.45521,7.7302,7.7302,0,0,1-2.52994,5.74606,3.19809,3.19809,0,0,0,.05689,4.75335l1.63245,1.7799Zm-10.35427,3.22076,5.29963-5.29963a7.95038,7.95038,0,0,1,1.48789-9.74879,2.95288,2.95288,0,0,0,1.05481-2.02081,3.26382,3.26382,0,0,0-.97935-2.00108l-.10275-.097-.11668-.13178.00058.00058a3.226,3.226,0,0,0-1.91865-.98283,3.13675,3.13675,0,0,0-2.1671,1.13958L86.51746,110.6525a3.10789,3.10789,0,0,0-1.13841,2.19033,3.21612,3.21612,0,0,0,.98109,1.89484l.13352.11262.11611.12888a3.24924,3.24924,0,0,0,1.98017.95729,2.953,2.953,0,0,0,2.02082-1.05482A7.9504,7.9504,0,0,1,100.35955,113.39375Z" style="fill: #ea5d4e"/>
        </g>
        <path d="M146.07131,153.80647a2.52168,2.52168,0,0,1-3.56675,0l-13.50074-13.50073a2.52208,2.52208,0,1,1,3.56676-3.56676l13.50073,13.50073A2.52167,2.52167,0,0,1,146.07131,153.80647Z" style="fill: #ea5d4e"/>
      </g>
      <g>
        <path d="M304.7993,312.59091h0c3.23147-3.23147,4.10143-7.64938,7.3329-4.41791l31.75255,31.75255a8.3335,8.3335,0,0,1,0,11.7508v0a8.3335,8.3335,0,0,1-11.7508,0L300.3814,319.9238C297.14993,316.69233,301.56783,315.82238,304.7993,312.59091Z" style="fill: #ea5d4e"/>
        <path d="M312.83035,292.15705a2.52208,2.52208,0,0,1,3.673,3.45355c-.364.4174-7.99211,9.34707-1.00431,16.33487a2.52208,2.52208,0,0,1-3.56675,3.56676c-8.29515-8.29515-3.10989-18.82939.79067-23.24082C312.75778,292.23194,312.79378,292.19362,312.83035,292.15705Z" style="fill: #ea5d4e"/>
        <path d="M284.4153,320.5721c.03715-.03716.07489-.07257.11436-.1074,4.41143-3.90056,14.94567-9.08583,23.24082-.79068a2.52208,2.52208,0,1,1-3.56676,3.56676c-7.05108-7.05108-15.95694.67051-16.33254,1.002a2.522,2.522,0,0,1-3.45588-3.67067Z" style="fill: #ea5d4e"/>
        <g>
          <path d="M338.83284,363.02511l6.46264-6.46265,3.4754-3.47539,6.46257-6.46257c4.22747-4.22747,0-7.79633,0-7.79633s-3.62525-4.03481-7.66013.00007-8.26126-.00007-8.26126-.00007l-8.27548,8.27548s4.03495,4.22638.00007,8.26126-.00007,7.66012-.00007,7.66012S334.60544,367.2525,338.83284,363.02511Z" style="fill: #ea5d4e"/>
          <path d="M329.25338,345.32046l10.01815-10.01815,1.78222,1.7021a3.19056,3.19056,0,0,0,4.73593.04064,7.7302,7.7302,0,0,1,5.74606-2.52994,8.28879,8.28879,0,0,1,5.45521,2.50149,8.16737,8.16737,0,0,1,2.63733,5.42154,7.87154,7.87154,0,0,1-2.61179,5.96956L340.616,364.80817a7.87159,7.87159,0,0,1-5.96956,2.61179,8.16731,8.16731,0,0,1-5.42154-2.63734,8.28879,8.28879,0,0,1-2.50149-5.45521,7.73019,7.73019,0,0,1,2.52994-5.746,3.1981,3.1981,0,0,0-.0569-4.75336l-1.63244-1.77989Zm10.35427-3.22076-5.29963,5.29963a7.95037,7.95037,0,0,1-1.48789,9.74878,2.9529,2.9529,0,0,0-1.05481,2.02082,3.2639,3.2639,0,0,0,.97934,2.00108l.10276.09694.11668.13178-.00058-.00058a3.22585,3.22585,0,0,0,1.91864.98283,3.13673,3.13673,0,0,0,2.16711-1.13957l16.40047-16.40047a3.10789,3.10789,0,0,0,1.13841-2.19032,3.21608,3.21608,0,0,0-.98109-1.89484l-.13352-.11262-.11611-.12888a3.24919,3.24919,0,0,0-1.98017-.95729,2.95286,2.95286,0,0,0-2.02082,1.05482A7.9504,7.9504,0,0,1,339.60765,342.0997Z" style="fill: #ea5d4e"/>
        </g>
        <path d="M293.89589,301.687a2.52166,2.52166,0,0,1,3.56675,0l13.50074,13.50073a2.52208,2.52208,0,0,1-3.56676,3.56676l-13.50073-13.50073A2.52167,2.52167,0,0,1,293.89589,301.687Z" style="fill: #ea5d4e"/>
      </g>
    </g>
  </g>
</svg>
