<svg xmlns="http://www.w3.org/2000/svg" xmlns:xlink="http://www.w3.org/1999/xlink" width="1008.54511mm" height="1050.86291mm" viewBox="0 0 2858.86802 2978.82399">
  <defs>
    <clipPath id="a1881c39-fcf9-40c6-9e76-9a4db77a4c40">
      <rect x="3090.67834" width="1756.98975" height="1756.98975" style="fill: none"/>
    </clipPath>
  </defs>
  <title>zelle_full_Zeichenfläche</title>
  <g id="bdd0122f-47f5-4fff-8001-edc06ee7ad62" data-name="Ebene 1">
    <g>
      <path d="M2669.46686,1879.30388V1082.29031a574.74207,574.74207,0,0,0-287.371-497.74124l-690.234-398.50679a574.74208,574.74208,0,0,0-574.74207,0l-690.234,398.50679a574.74208,574.74208,0,0,0-287.371,497.74124v797.01357a574.74208,574.74208,0,0,0,287.371,497.74124l690.234,398.50679a574.74208,574.74208,0,0,0,574.74207,0l690.234-398.50679A574.74207,574.74207,0,0,0,2669.46686,1879.30388Z" style="fill: #d1e2a4;stroke: #a7cc6b;stroke-miterlimit: 10;stroke-width: 18px"/>
      <path d="M1583.2563,1489.41209v-.00019a160.42823,160.42823,0,0,0-80.21412-138.93493l-.00016-.0001a160.42826,160.42826,0,0,0-160.42824,0l-.00016.0001a160.42823,160.42823,0,0,0-80.21412,138.93493v.00019a160.42824,160.42824,0,0,0,80.21412,138.93493l.00016.00009a160.42822,160.42822,0,0,0,160.42824,0l.00016-.00009A160.42824,160.42824,0,0,0,1583.2563,1489.41209Z" style="fill: #f5edd1;stroke: #529e33;stroke-miterlimit: 10;stroke-width: 18px"/>
      <g>
        <g>
          <path d="M1694.002,1983.329a34.97827,34.97827,0,0,1-20.29-63.47754,6.99774,6.99774,0,0,1,3.04786-3.08985,366.87531,366.87531,0,0,0,114.31933-91.60351,6.98212,6.98212,0,0,1,1.5752-1.39942,34.98514,34.98514,0,0,1,60.06836,31.75,34.84481,34.84481,0,0,1-10.66016,17.63086,435.94522,435.94522,0,0,1-124.91406,101.42676,34.89433,34.89433,0,0,1-23.14551,8.7627Z" style="fill: #a7cc6b"/>
          <path d="M1818.77569,1819.03717a27.98683,27.98683,0,0,1,18.282,49.18072,428.70212,428.70212,0,0,1-123.98291,100.59467,27.97932,27.97932,0,1,1-32.63892-44.93848l-.46191-.89349A375.13894,375.13894,0,0,0,1796.46,1829.63568l.23706.19726a28.05591,28.05591,0,0,1,22.07861-10.79577m0-14a42.31812,42.31812,0,0,0-30.78247,13.44506,14.036,14.036,0,0,0-2.29516,2.1991,359.92469,359.92469,0,0,1-112.15161,89.86188,13.999,13.999,0,0,0-5.10816,4.5047,41.9775,41.9775,0,1,0,52.71753,65.30719,442.82821,442.82821,0,0,0,125.9397-102.32788,41.98943,41.98943,0,0,0-28.31983-72.99Z" style="fill: #516e7d"/>
        </g>
        <g>
          <path d="M1900.35748,1733.92474c-1.06445,0-2.14453-.04883-3.21191-.14453a34.978,34.978,0,0,1-27.959-50.71387,6.92787,6.92787,0,0,1,.2627-.70605q.90381-2.083,1.79394-4.17188a475.61144,475.61144,0,0,0,36.77637-157.18848,20.05875,20.05875,0,0,0-19.67187-21.22265l-.72852-.01026a20.11329,20.11329,0,0,0-19.999,18.72266,444.45765,444.45765,0,0,1-7.03907,54.11768,34.9789,34.9789,0,0,1-69.9121-1.791c0-1.11133.05566-2.23437.165-3.36133a6.98622,6.98622,0,0,1-.01953-2.9414,367.18,367.18,0,0,0,1.6045-142.71631,34.86572,34.86572,0,0,1-1.415-15.79785,35.22075,35.22075,0,0,1,30.96386-29.92188,36.27241,36.27241,0,0,1,3.68457-.18994,34.937,34.937,0,0,1,34.00293,26.77344,6.9512,6.9512,0,0,1,.62207,1.80273c2.69629,13.60791,4.76465,27.48,6.14746,41.23145a19.99444,19.99444,0,0,0,19.96485,18.03613l.207-.00147a19.628,19.628,0,0,0,14.6416-6.56933,20.92927,20.92927,0,0,0,5.05274-16.10254,477.7684,477.7684,0,0,0-137.81739-288.52881l-.40625-.40527a20.29874,20.29874,0,0,0-34.61621,14.45849,20.44692,20.44692,0,0,0,6.05664,14.45948l.22656.22607a438.21946,438.21946,0,0,1,81.27247,111.97949,34.95918,34.95918,0,0,1-62.31641,31.70459,367.37912,367.37912,0,0,0-35.46094-56.4541,26.67623,26.67623,0,0,0-21.36035-10.59668,26.35907,26.35907,0,0,0-18.69141,7.72461c-9.38281,9.32568-10.28515,24.55078-2.09961,35.41553a318.99884,318.99884,0,0,1,45,83.10644c6.42481,17.67871-1.75292,37.28565-18.61816,44.63721a34.96367,34.96367,0,0,1-46.65918-19.43945,6.85722,6.85722,0,0,1-.30762-.72315,246.47944,246.47944,0,0,0-127.89941-140.355c-3.99414-1.87549-8.2334-3.72363-12.59961-5.49267a7.013,7.013,0,0,1-1.1123-.56983,34.709,34.709,0,0,1-19.99805-22.80615,34.97137,34.97137,0,0,1,43.30371-43.0127,6.89357,6.89357,0,0,1,1.14941.34278l.18262.07324a35.26551,35.26551,0,0,1,4.209,1.69629c5.06054,2.07275,9.97949,4.229,14.623,6.41016a321.1574,321.1574,0,0,1,58.16992,35.2583,25.18137,25.18137,0,0,0,15.40137,5.19091,25.72017,25.72017,0,0,0,18.4668-7.74365c.02832-.02881.05664-.05713.08594-.08545a26.61758,26.61758,0,0,0-2.50977-40.17578c-64.25391-48.814-141.2041-74.61523-222.53223-74.61523A369.55461,369.55461,0,0,0,1082.73248,1365.166a24.86013,24.86013,0,0,0,18.87207,32.94971l1.05567.19384a24.84117,24.84117,0,0,0,27.915-16.14794c1.52636-4.18506,3.16015-8.38282,4.86035-12.4834a35.13824,35.13824,0,0,1,33.49316-24.88623q.91552,0,1.84082.04736a34.97836,34.97836,0,0,1,30.43164,48.43457,7.02061,7.02061,0,0,1-.49707,1.86572,246.8,246.8,0,0,0-19.37207,96.42871,7.04944,7.04944,0,0,1-.043.77735,35.02455,35.02455,0,0,1-34.97461,34.20508c-.793,0-1.59863-.02686-2.39453-.08008-18.3164-1.22656-32.62988-16.88184-32.58691-35.64014.02148-9.81934.5-19.74853,1.42187-29.51172a24.7044,24.7044,0,0,0-20.24707-26.76416l-1.03515-.18994a25.22381,25.22381,0,0,0-4.541-.416,24.63221,24.63221,0,0,0-24.6748,22.36084c-1.09668,11.63331-1.65332,23.49659-1.65332,35.25879a7.04944,7.04944,0,0,1-.043.77735,35.02561,35.02561,0,0,1-34.97461,34.20556c-.80274,0-1.61719-.02783-2.42188-.08252-18.28515-1.23877-32.58691-16.84521-32.55957-35.52929A437.55578,437.55578,0,0,1,1119.13483,1181.268c25.05371-25.0542,48.05175-42.10986,79.30859-63.10351,14.9082-10.0127,7.96191-25.79834,6.418-28.86084q-.123-.2461-.22754-.50049c-3.09961-7.57569-9.46094-9.166-14.251-9.166a22.01387,22.01387,0,0,0-10.76855,2.76953c-32.84082,19.45508-59.52246,40.42627-89.21875,70.12256a478.06474,478.06474,0,0,0-99.625,145.16748q-.13331.301-.29.5835a34.99411,34.99411,0,0,1-32.65039,22.42236c-.53125,0-1.06738-.01172-1.60449-.03564a34.98864,34.98864,0,0,1-29.88282-50.19629,7.095,7.095,0,0,1,.32325-.89258,548.927,548.927,0,0,1,498.752-327.45313l.0498-.00293c.19043-.00634.38086-.01123.57325-.01123.10351,0,.39746.00391.39746.00391s.375-.00391.38281-.00391a7.02053,7.02053,0,0,1,.77246.04248,34.97425,34.97425,0,0,1,.38281,69.86133,6.94987,6.94987,0,0,1-1.04492.09522c-74.67871,1.17871-136.74316,19.35058-175.6582,34.38769a21.19938,21.19938,0,0,0-11.61524,28.65235,7.16516,7.16516,0,0,1,.499.83886c2.22754,4.41993,8.10156,9.58155,17.32031,9.58155a32.6582,32.6582,0,0,0,11.31152-2.22119l6.335-2.437c56.03125-23.68164,97.47168-28.17431,154.30957-28.17431a437.29871,437.29871,0,0,1,253.53321,80.58545,20.69413,20.69413,0,0,0,12.03418,3.85107,20.28332,20.28332,0,0,0,14.36621-5.89941c.01953-.01953.04-.03858.05957-.05762a20.20126,20.20126,0,0,0-2.499-30.75439,478.8,478.8,0,0,0-88.418-49.64747,7.04408,7.04408,0,0,1-1.14454-.624,34.98386,34.98386,0,0,1,13.19532-66.47119q.97411-.05274,1.93652-.05274a35.082,35.082,0,0,1,15.77832,3.76319,550.017,550.017,0,0,1,287.4375,718.02734q-1.04591,2.47413-2.12207,4.93457a7.1117,7.1117,0,0,1-.54395,1.0166A34.869,34.869,0,0,1,1900.35748,1733.92474Z" style="fill: #a7cc6b"/>
          <path d="M1426.82147,949.11062v.01969a27.97354,27.97354,0,0,1,0,55.92582v.05451c-78.35608,1.23666-142.8883,21.26266-178.07141,34.857a28.1995,28.1995,0,0,0-15.02026,39l.17688.17166c3.4021,6.75016,11.5736,13.43071,23.57043,13.43071a39.44025,39.44025,0,0,0,13.75122-2.66l6.51257-2.50484c53.25684-22.52533,93.40857-27.66733,151.69275-27.66733a430.29851,430.29851,0,0,1,249.48267,79.2945,27.75634,27.75634,0,0,0,16.085,5.14195,27.33594,27.33594,0,0,0,19.29321-7.92612l.01294-.01284a27.20049,27.20049,0,0,0-3.32251-41.47666,484.23924,484.23924,0,0,0-89.7124-50.37517l.03662-.08349a27.98376,27.98376,0,0,1,9.63233-53.58985q.78332-.04267,1.55639-.04248a27.85178,27.85178,0,0,1,12.79077,3.09732,543.01689,543.01689,0,0,1,283.977,708.96651q-1.03344,2.4435-2.095,4.87134l-.177-.07752a27.98976,27.98976,0,0,1-26.636,19.39982q-1.27992,0-2.58619-.11631a27.97817,27.97817,0,0,1-21.78418-41.613l-.11621-.05085q.91626-2.11025,1.81836-4.228a481.98022,481.98022,0,0,0,37.31787-159.49765,27.05952,27.05952,0,0,0-26.53222-28.641l-.34717-.00633c-.16992-.00315-.33887-.0047-.5083-.0047a27.05886,27.05886,0,0,0-26.98389,25.25152,435.36909,435.36909,0,0,1-7.02661,53.76966,27.97843,27.97843,0,1,1-55.52319-5.76648l-.41748-.08667a375.28073,375.28073,0,0,0,1.54-145.91034,27.97616,27.97616,0,0,1,23.47558-36.98416,28.93659,28.93659,0,0,1,2.967-.153,27.98717,27.98717,0,0,1,27.52832,22.98252l.23218-.046q4.00415,20.21352,6.04834,40.571a27.0495,27.0495,0,0,0,26.92847,24.33591c.09253,0,.18554-.00048.27807-.00141,16.29224-.16383,28.27393-14.19116,26.58692-30.39683a484.76117,484.76117,0,0,0-139.83057-292.7535q-.23217-.23224-.46484-.46433a27.03866,27.03866,0,0,0-19.16651-7.90859,27.31741,27.31741,0,0,0-19.363,8.02093l-.00025.00016a27.37737,27.37737,0,0,0,.13379,38.768l.22217.222a430.5783,430.5783,0,0,1,79.97754,110.19283,27.93823,27.93823,0,0,1-14.09863,38.32184v.00016a27.9136,27.9136,0,0,1-35.7295-12.9475,373.32157,373.32157,0,0,0-36.13867-57.53266,33.763,33.763,0,0,0-26.92578-13.35067,33.34923,33.34923,0,0,0-23.62549,9.75933c-12.00561,11.932-12.94165,31.074-2.75586,44.59267a311.94849,311.94849,0,0,1,44.01123,81.28517c5.08838,13.99916-1.18164,29.87784-14.83593,35.8295a27.96507,27.96507,0,0,1-37.55323-16.13333l-.03271.01165a253.434,253.434,0,0,0-131.50757-144.315q-6.41913-3.015-12.94751-5.64483l.036-.106a27.97877,27.97877,0,0,1,18.09607-52.91917l.00818-.02317c.121.04767.24158.098.36267.14584a28.149,28.149,0,0,1,3.74854,1.509q7.303,2.98652,14.50268,6.35117a313.41039,313.41039,0,0,1,56.90015,34.48784,32.29047,32.29047,0,0,0,19.64673,6.62569,32.8798,32.8798,0,0,0,23.45678-9.83486,33.618,33.618,0,0,0-3.1792-50.74417c-64.94336-49.3375-143.80261-76.04116-226.76709-76.04116a376.55527,376.55527,0,0,0-353.27893,247.0345,31.86019,31.86019,0,0,0,24.18616,42.22849l1.05762.194a31.83865,31.83865,0,0,0,35.75317-20.63483q2.307-6.326,4.89246-12.54283A27.98773,27.98773,0,0,1,1168.929,1351.792q.73518,0,1.48.03818a27.97957,27.97957,0,0,1,23.54113,40.47033l.30371.119a254.63347,254.63347,0,0,0-19.92187,99.14883h-.03467a27.98218,27.98218,0,0,1-27.98254,27.98249q-.95618,0-1.92725-.06464c-14.84277-.994-26.08838-13.76334-26.05469-28.63934q.033-14.551,1.39136-28.87033a31.838,31.838,0,0,0-25.953-34.30684l-1.03479-.19a32.12857,32.12857,0,0,0-5.8053-.53083,31.782,31.782,0,0,0-31.64307,28.70367q-1.6778,17.79726-1.68457,35.91583h-.03454a27.98206,27.98206,0,0,1-27.98255,27.98252q-.9668,0-1.94946-.0662c-14.78577-1.00164-26.05334-13.71548-26.03284-28.535a430.56556,430.56556,0,0,1,126.48-304.732c25.55787-25.55784,48.657-42.35817,78.262-62.24217,16.78222-11.27167,13.25268-28.92217,8.76684-37.82266-4.08325-9.98127-12.56433-13.51566-20.73047-13.51566a29.03341,29.03341,0,0,0-14.33691,3.74683c-34.89368,20.67216-61.52612,42.12116-90.6001,71.19549A484.87311,484.87311,0,0,0,984.369,1294.86513l-.08033-.03517a27.98712,27.98712,0,0,1-26.45764,18.87289c-.42761,0-.85888-.00964-1.29077-.02906a27.98788,27.98788,0,0,1-23.35388-41.21533l-.1167-.051a541.92131,541.92131,0,0,1,492.39783-323.28234c.19153-.00382.38159-.0145.57409-.0145.07776,0,.1543.00534.23218.00583.18274-.001.365-.005.54773-.00583m-.77991-14c-.27636,0-.55066.00665-.82483.01593a556.99991,556.99991,0,0,0-504.95288,331.62291q-.24756.56019-.44384,1.136a41.98971,41.98971,0,0,0,36.0913,59.77415c.63282.02867,1.27967.04316,1.91968.04316a41.996,41.996,0,0,0,39.02857-26.51334q.16406-.32457.313-.66115a471.10873,471.10873,0,0,1,98.17224-143.04934c29.64807-29.64833,55.09607-49.65349,87.83654-69.05a15.09078,15.09078,0,0,1,7.20118-1.79184c5.80236,0,7.13317,3.253,7.7727,4.81633q.208.509.45569,1.00033a20.497,20.497,0,0,1,2.156,10.40517c-.22986,2.435-1.12537,6.06834-6.22669,9.49451-31.61523,21.23416-54.89892,38.508-80.35571,63.96466a444.56625,444.56625,0,0,0-130.58045,314.612c-.03088,22.35749,17.13794,41.0355,39.08643,42.5225.9613.06516,1.93567.09818,2.89587.09818a42.03108,42.03108,0,0,0,41.96534-40.77216q.05145-.59833.05175-1.21036c0-11.53816.546-23.18,1.62268-34.60183a17.87849,17.87849,0,0,1,17.70484-16.01766,18.19745,18.19745,0,0,1,3.27783.30083l1.03418.18983a17.74253,17.74253,0,0,1,14.54321,19.22116c-.94165,9.97417-1.43054,20.11951-1.45337,30.15435-.05066,22.43783,17.13257,41.16748,39.11914,42.63983.95008.06366,1.91333.096,2.86268.096a42.031,42.031,0,0,0,41.96545-40.77216q.05163-.59833.05188-1.21036a239.84218,239.84218,0,0,1,18.8219-93.709,13.99228,13.99228,0,0,0,.8219-2.66316,42.04175,42.04175,0,0,0-36.8468-57.3475c-.73182-.03767-1.47168-.05667-2.2-.05667a42.17619,42.17619,0,0,0-40.08837,29.51689c-1.69239,4.09521-3.31971,8.2816-4.84168,12.45445a18.07947,18.07947,0,0,1-16.85181,11.95667,17.89193,17.89193,0,0,1-3.22058-.295l-1.05993-.19451a17.8601,17.8601,0,0,1-13.55579-23.67116,361.67463,361.67463,0,0,1,558.4209-164.6325,19.28942,19.28942,0,0,1,7.6814,14.34083,19.63974,19.63974,0,0,1-5.84205,15.26633q-.08641.08475-.17114.17084a18.76952,18.76952,0,0,1-13.4768,5.65316,18.23887,18.23887,0,0,1-11.15577-3.75683,328.19982,328.19982,0,0,0-59.43945-36.0285c-4.68506-2.2008-9.65039-4.379-14.76343-6.47713a42.319,42.319,0,0,0-4.63891-1.86993l-.032-.01278a13.99545,13.99545,0,0,0-2.01489-.62311,41.97993,41.97993,0,0,0-28.18469,78.8643,14.108,14.108,0,0,0,1.671.80832c4.25452,1.72366,8.37683,3.52066,12.25293,5.34116a239.5252,239.5252,0,0,1,124.29028,136.395q.20948.57994.46338,1.12933a41.96394,41.96394,0,0,0,55.8855,23.07433c20.24634-8.825,30.08545-32.30133,22.39966-53.446a326.00992,326.00992,0,0,0-45.98755-84.92733c-6.09229-8.0855-5.47168-19.36534,1.44336-26.238a19.40121,19.40121,0,0,1,13.75659-5.68917,19.729,19.729,0,0,1,15.79468,7.84167,360.4073,360.4073,0,0,1,34.78442,55.37549,41.91344,41.91344,0,0,0,53.66333,19.50984,41.9384,41.9384,0,0,0,21.13965-57.54417,445.20741,445.20741,0,0,0-82.56763-113.76633l-.14209-.14217-.08007-.07983a13.50235,13.50235,0,0,1-4.01075-9.546,13.1479,13.1479,0,0,1,3.8772-9.423,13.29613,13.29613,0,0,1,9.46362-3.92067,13.05045,13.05045,0,0,1,9.28028,3.82134l.44629.44583a470.7614,470.7614,0,0,1,135.81054,284.30884,13.73035,13.73035,0,0,1-3.31372,10.71783,12.70968,12.70968,0,0,1-9.48926,4.23016l-.1372.00068a13.01492,13.01492,0,0,1-12.99878-11.73685c-1.40528-13.97316-3.50659-28.06716-6.24487-41.89049a14.00226,14.00226,0,0,0-.85572-2.7728,41.93572,41.93572,0,0,0-40.637-31.4432,43.16008,43.16008,0,0,0-4.40039.2265,41.97687,41.97687,0,0,0-35.63257,54.4053,360.24827,360.24827,0,0,1-1.65869,139.57152,13.97841,13.97841,0,0,0-.17749,4.66061c-.07617,1.02579-.1145,2.04914-.1145,3.06473a41.97907,41.97907,0,0,0,83.87426,2.65619,451.30161,451.30161,0,0,0,7.06128-54.51153,13.09434,13.09434,0,0,1,13.01563-12.19382l.24756.00217.35254.0065a13.05933,13.05933,0,0,1,12.81274,13.80416,468.63942,468.63942,0,0,1-36.2373,154.88315c-.58033,1.3722-1.17237,2.73917-1.76587,4.10584q-.16809.38754-.31153.77942a42.01853,42.01853,0,0,0,33.80225,60.40426c1.27515.11432,2.56616.17234,3.83765.17234a41.84714,41.84714,0,0,0,39.00268-26.43662,14.06317,14.06317,0,0,0,.65064-1.30673q1.08361-2.49348,2.14868-4.99667a557.00025,557.00025,0,0,0-290.91309-727.09583,42.12377,42.12377,0,0,0-18.74878-4.42166c-.76928,0-1.54956.02133-2.31933.06332a41.98381,41.98381,0,0,0-16.23535,79.58068,13.98406,13.98406,0,0,0,1.80468.93566,471.77763,471.77763,0,0,1,87.12256,48.92,13.20053,13.20053,0,0,1,1.58447,20.12184,13.33848,13.33848,0,0,1-9.45361,3.88517,13.73323,13.73323,0,0,1-7.98413-2.56017,444.29958,444.29958,0,0,0-257.5835-81.87633c-33.24035,0-57.193,1.67083-80.09167,5.587-25.40076,4.34407-49.82361,11.68447-76.84131,23.096l-6.225,2.39423a25.65671,25.65671,0,0,1-8.79846,1.755c-7.95019,0-10.77307-5.145-11.06872-5.73183q-.267-.52977-.57752-1.0343a14.20148,14.20148,0,0,1,7.965-18.77721,508.82955,508.82955,0,0,1,70.889-21.46666,500.86624,500.86624,0,0,1,102.35754-12.451,14.13816,14.13816,0,0,0,1.68237-.12691,41.97407,41.97407,0,0,0-.62451-83.8125q-.63519-.05859-1.27917-.0589l-.0636.00015-.37146.00367c-.11536-.00251-.22974-.00385-.34461-.00385Z" style="fill: #516e7d"/>
        </g>
        <g>
          <path d="M1426.26178,2041.02728c-.19629,0-.3916-.00586-.58594-.0127l-.084-.00293a545.9612,545.9612,0,0,1-210.04883-43.165c-3.03809-1.28515-6.26074-2.68847-9.85059-4.29a6.97668,6.97668,0,0,1-2.38281-1.74219,34.98107,34.98107,0,0,1,13.93945-65.32031c1.06836-.09668,2.15137-.14551,3.21778-.14551a34.82742,34.82742,0,0,1,18.80664,5.48633l.918.40234c.87109.38379,1.74316.76758,2.62207,1.13965,3.98242,1.68359,8.03613,3.334,12.04687,4.90429a20.00924,20.00924,0,0,0,7.32324,1.39161,20.35668,20.35668,0,0,0,7.30274-39.34375c-3.62988-1.42188-7.29-2.91309-10.877-4.42969a440.07689,440.07689,0,0,1-231.57617-229.08985,34.9784,34.9784,0,0,1,25.80176-53.38378,36.3137,36.3137,0,0,1,3.81934-.20313,34.75229,34.75229,0,0,1,31.63281,20.04,6.9924,6.9924,0,0,1,1.21094,1.91992,370.53368,370.53368,0,0,0,251.71679,214.65918,24.85585,24.85585,0,0,0,5.88672.71387,24.28365,24.28365,0,0,0,24.17188-21.54395l.24609-2.18261a24.23514,24.23514,0,0,0-18.18945-26.27832,313.70923,313.70923,0,0,1-106.15723-48.19336,34.98223,34.98223,0,0,1,13.0918-65.751c1.08594-.09961,2.18555-.15039,3.26855-.15039a34.6113,34.6113,0,0,1,19.32422,5.82422,6.98112,6.98112,0,0,1,2.09082,1.02832,245.83632,245.83632,0,0,0,144.48438,46.36133,262.97345,262.97345,0,0,0,51.32226-5.12012,232.86919,232.86919,0,0,0,83.42285-34.36231c46.20606-30.5996,80.293-73.44335,98.57715-123.90039a6.95866,6.95866,0,0,1,.78809-1.54492,35.21126,35.21126,0,0,1,33.48437-24.86133c.90039,0,1.81446.03418,2.7168.10352a34.98276,34.98276,0,0,1,28.65527,50.35937,6.98837,6.98837,0,0,1-.32421,1.19629,314.91216,314.91216,0,0,1-23.00684,49.02344,26.54345,26.54345,0,0,0,6.08594,33.76856l4.99023,4.15429a26.70288,26.70288,0,0,0,40.05469-6.91113c2.30957-3.88574,4.55859-7.83594,6.68359-11.73926a6.95061,6.95061,0,0,1,1.26563-1.6709,34.7583,34.7583,0,0,1,30.12109-17.23535,35.6601,35.6601,0,0,1,7.57031.81934,35.21194,35.21194,0,0,1,27.40332,35.90039,34.83765,34.83765,0,0,1-7.03808,19.36719A435.925,435.925,0,0,1,1719.33893,1830.748a35.07335,35.07335,0,0,1-27.76075,13.74512h-.001a35.60559,35.60559,0,0,1-6.18848-.54688,34.97147,34.97147,0,0,1-19.27441-58.44726,7.00234,7.00234,0,0,1,2.39062-3.624c9.69532-7.71582,19.08887-15.98144,27.91895-24.56835a26.065,26.065,0,0,0,7.9414-19.9375,26.83719,26.83719,0,0,0-9.63183-19.56153l-4.02051-3.34668a26.7673,26.7673,0,0,0-36.12012,1.81153l-.22656.22851a316.025,316.025,0,0,1-224.93262,93.169h-.28515a24.3958,24.3958,0,0,0-24.373,21.55664l-.24219,2.14746a24.38737,24.38737,0,0,0,6.01856,18.9414,23.80514,23.80514,0,0,0,17.92187,8.082l.96.001A368.3494,368.3494,0,0,0,1557.4942,1837.663a6.96363,6.96363,0,0,1,4.13281-.22266,34.9697,34.9697,0,0,1,8.21-.9707c.959,0,1.93457.04,2.89649.11719a35.20819,35.20819,0,0,1,31.96582,31.96,34.98209,34.98209,0,0,1-31.43164,37.71289,441.7039,441.7039,0,0,1-240.042,13.5752,20.788,20.788,0,0,0-4.53711-.50489,20.32579,20.32579,0,0,0-19.332,13.874,20.34371,20.34371,0,0,0,14.873,26.28515,482.04931,482.04931,0,0,0,102.62793,11.53614,7.0167,7.0167,0,0,1,1.04981.084,34.97354,34.97354,0,0,1-.48047,69.88965c-.2002.01758-.40332.02637-.60547.02637-.01953,0-.2832-.00293-.2832-.00293C1426.47076,2041.02533,1426.36725,2041.02728,1426.26178,2041.02728Z" style="fill: #a7cc6b"/>
          <path d="M1697.02789,1556.8807c.72217,0,1.45264.02747,2.18653.08319a27.97822,27.97822,0,0,1,21.96215,42.032l.32813.12866a306.88234,306.88234,0,0,1-22.49341,47.92975,33.62452,33.62452,0,0,0,7.66455,42.65731l4.99024,4.15427a33.70135,33.70135,0,0,0,50.54931-8.71292q3.52-5.9204,6.81519-11.96909l.27075.14762a28.00763,28.00763,0,0,1,24.96631-15.40177,28.59856,28.59856,0,0,1,6.08374.65949,27.98551,27.98551,0,0,1,15.99,44.56854A428.69952,428.69952,0,0,1,1714.2276,1825.8927a27.99106,27.99106,0,0,1-22.64917,11.60034,28.44659,28.44659,0,0,1-4.968-.43964,27.97333,27.97333,0,0,1-13.11914-48.914l-.62646-.787q14.93042-11.88235,28.439-25.02771a33.62737,33.62737,0,0,0-2.09155-49.89666l-4.02075-3.34708a33.44874,33.44874,0,0,0-21.47339-7.77069,33.97231,33.97231,0,0,0-24.07984,10.018q-.111.1112-.22216.22242a309.068,309.068,0,0,1-219.98243,91.1192l-.2854-.00012-.0299-.00007a31.3742,31.3742,0,0,0-31.29871,27.77082l-.24292,2.14923a31.25331,31.25331,0,0,0,30.87988,34.80731q.48834.00119.977.00122A375.94321,375.94321,0,0,0,1559.92,1844.229l.343.922a27.925,27.925,0,0,1,9.57226-1.68128q1.15576,0,2.333.09485a27.97991,27.97991,0,0,1-.36792,55.794,434.68984,434.68984,0,0,1-237.045,13.64557,27.74809,27.74809,0,0,0-6.06726-.67353,27.32,27.32,0,0,0-5.98755,53.98957,487.41028,487.41028,0,0,0,104.12109,11.70477v.051a27.97388,27.97388,0,0,1,0,55.93689v.01215c-.11255-.00055-.22485-.00305-.3374-.0036-.07446.00055-.14795.00561-.22253.00561-.18457,0-.36646-.01037-.55017-.01385a538.90161,538.90161,0,0,1-207.4419-42.61377q-4.89038-2.06836-9.72571-4.23505l.18836-.43a27.98346,27.98346,0,0,1,9.14477-53.2688q1.30683-.11765,2.58924-.11682a27.849,27.849,0,0,1,15.46911,4.666c1.38355.60212,2.7583,1.22,4.14966,1.80854q6.08643,2.57418,12.22388,4.97625a27.03621,27.03621,0,0,0,9.87573,1.87323,27.369,27.369,0,0,0,25.91577-18.71337l.00488-.01453a27.36973,27.36973,0,0,0-16.06555-34.13318q-5.37286-2.10562-10.70276-4.35962a433.07778,433.07778,0,0,1-228.10839-225.94919,27.97762,27.97762,0,0,1,20.34948-43.11651,28.96243,28.96243,0,0,1,3.07654-.16455,27.98821,27.98821,0,0,1,26.07214,17.82254l.32349-.13666a377.53345,377.53345,0,0,0,256.50317,218.73389,31.77775,31.77775,0,0,0,7.54834.91424,31.30309,31.30309,0,0,0,31.12732-27.758l.24707-2.18549a31.20834,31.20834,0,0,0-23.48339-33.8609,307.56827,307.56827,0,0,1-104.17371-47.38724,27.98277,27.98277,0,0,1,10.08337-52.78705q1.32825-.12153,2.63062-.1206a27.85517,27.85517,0,0,1,17.08935,5.83179l.23829-.29734a253.20727,253.20727,0,0,0,148.573,47.67877,269.19582,269.19582,0,0,0,52.69068-5.25543,241.14745,241.14745,0,0,0,85.91894-35.39081c48.25635-31.95773,82.88623-76.55731,101.29273-127.35131l.37158.14572a27.98563,27.98563,0,0,1,27.32031-21.9372m.001-14h-.001a41.984,41.984,0,0,0-39.90552,28.94806,13.99715,13.99715,0,0,0-.94873,2.07367c-17.76879,49.03427-50.91674,90.68482-95.86035,120.44867a225.9081,225.9081,0,0,1-80.92785,33.33374,255.94764,255.94764,0,0,1-49.95179,4.98492,238.88263,238.88263,0,0,1-140.39648-45.04293,14.02159,14.02159,0,0,0-3.06885-1.6738,41.54462,41.54462,0,0,0-22.43432-6.49658c-1.29627,0-2.61084.06027-3.90809.17892a41.98235,41.98235,0,0,0-16.13183,78.69208,320.68163,320.68163,0,0,0,108.17322,49.02325,17.221,17.221,0,0,1,12.89734,18.68909l-.24695,2.1853a17.28963,17.28963,0,0,1-17.21607,15.33069,17.83427,17.83427,0,0,1-4.22644-.51452A363.5342,363.5342,0,0,1,1095.946,1632.458a14.03485,14.03485,0,0,0-1.7218-2.99026,41.9913,41.9913,0,0,0-37.56872-23.246,43.17812,43.17812,0,0,0-4.56311.24359,41.97911,41.97911,0,0,0-31.27186,63.6083,447.08383,447.08383,0,0,0,235.0625,232.2724c3.647,1.54236,7.3639,3.0564,11.04847,4.50037a13.38306,13.38306,0,0,1,7.89575,16.66058l-.00708.02118a13.32421,13.32421,0,0,1-12.63538,9.14453,13.0492,13.0492,0,0,1-4.77307-.91015c-3.95654-1.54852-7.95117-3.17468-11.87317-4.83344-.84411-.35711-1.68225-.72656-2.52051-1.09552q-.23089-.10163-.46167-.20312a41.80717,41.80717,0,0,0-22.08984-6.2818c-1.27429,0-2.56763.05829-3.84424.17322a41.98377,41.98377,0,0,0-17.625,77.88763,13.98044,13.98044,0,0,0,3.84473,2.541c3.64136,1.62378,6.90381,3.04443,9.974,4.34295a552.89922,552.89922,0,0,0,212.65112,43.71827c.26392.00885.5282.01519.79456.01519q.16955,0,.33789-.00366l.15564.00153.06616.00018q.49456,0,.98474-.03467a41.97441,41.97441,0,0,0,.7605-83.8576,14.15235,14.15235,0,0,0-1.67224-.10767,475.01785,475.01785,0,0,1-101.13526-11.36664,13.32013,13.32013,0,0,1,2.929-26.32788,13.79307,13.79307,0,0,1,3.008.33521,448.72874,448.72874,0,0,0,243.11158-13.53113,41.9856,41.9856,0,0,0-1.50659-83.52417c-1.15015-.0932-2.31519-.14069-3.46363-.14081a42.066,42.066,0,0,0-8.38818.84009,13.92748,13.92748,0,0,0-6.38037.78656,361.36283,361.36283,0,0,1-125.63526,22.302l-.94262-.00122a16.89125,16.89125,0,0,1-12.7135-5.73907,17.14745,17.14745,0,0,1-4.28931-13.49573l.24292-2.14917a17.39258,17.39258,0,0,1,17.38721-15.34332h.16284l.15246.00012a322.97685,322.97685,0,0,0,229.88184-95.21961l.178-.178.05322-.05346a19.90233,19.90233,0,0,1,14.17188-5.90854,19.33735,19.33735,0,0,1,12.51586,4.53039l4.02076,3.3472a19.564,19.564,0,0,1,7.11548,14.45243,19.14568,19.14568,0,0,1-5.82715,14.64758c-8.66773,8.42883-17.88526,16.54065-27.39673,24.11017a13.99994,13.99994,0,0,0-4.13745,5.41028,41.96982,41.96982,0,0,0,24.157,69.03009,42.58388,42.58388,0,0,0,7.41211.65454,42.09483,42.09483,0,0,0,32.8125-15.842,442.84041,442.84041,0,0,0,103.70019-124.81714,42.02358,42.02358,0,0,0-24.76294-65.9245,42.69484,42.69484,0,0,0-9.06054-.97959,41.71332,41.71332,0,0,0-35.74317,20.001,13.98611,13.98611,0,0,0-1.78833,2.55655c-2.0979,3.85147-4.30322,7.72427-6.55444,11.511a19.61972,19.61972,0,0,1-17.01392,9.66705,19.39787,19.39787,0,0,1-12.54467-4.55933l-4.99024-4.154a19.56051,19.56051,0,0,1-4.50683-24.88107,321.87234,321.87234,0,0,0,23.5188-50.11575q.23547-.64061.40527-1.28873a41.98336,41.98336,0,0,0-34.77515-59.66232c-1.07812-.082-2.17016-.12345-3.24609-.12348Z" style="fill: #516e7d"/>
        </g>
      </g>
      <path d="M2343.52405,2478.56791l.00081.00151-1.85007-3.21331c-4.7809-6.48254-9.03264-7.41359-14.46065-6.80226-8.79435,2.44336-14.66231-.07693-18.9586-4.30435l-.003.00162-16.04649-30.00657-.00261-.00691c-1.72467-7.38316,6.32275-12.45895,6.70477-12.695a2.522,2.522,0,0,0-2.51051-4.37194c-.04613.02454-.0909.05056-.13595.07813-3.68845,2.27422-8.998,7.52108-9.34455,14.25533a.02213.02213,0,0,1-.00867.01686c-.58411.42207-1.21466.93095-1.91374,1.44952a.02559.02559,0,0,1-.0376-.00805L2278.98764,2421.8a2.51581,2.51581,0,0,0-3.40881-1.02661l.00283.00527a2.5149,2.5149,0,0,0-1.00913,3.40163l6.02458,11.13291a.02566.02566,0,0,1-.014.03581c-.818.29755-1.59011.54327-2.26405.79784a.0212.0212,0,0,1-.01879-.00195c-5.8105-3.422-13.11463-1.88329-17.0452-.05863-.04761.02229-.094.04531-.14011.07039a2.522,2.522,0,0,0,2.26476,4.50415c.40747-.18871,9.07765-4.10637,14.28817,1.40153l.00433.006,16.19507,29.92664-.0028.0015c1.15981,5.91472.029,12.20011-6.85645,18.19189-3.50172,4.19254-5.068,8.25345-2.29327,15.81525l1.66166,3.31452-.00081-.0015c.00124-.0008,1.27988,2.58731,3.45679,3.30385,1.39749.45913,3.19023.106,5.32834-1.05117l3.68815-1.996a3.37016,3.37016,0,0,0,1.34679-4.55081l-.00729-.01354a8.16684,8.16684,0,0,1-.98055-5.94893,7.87006,7.87006,0,0,1,4.20638-4.976l9.00048-4.87076-.00208-.00387,9.01073-4.81874a7.869,7.869,0,0,1,6.47011-.76747,8.16594,8.16594,0,0,1,4.42377,4.09646l.00729.01355a3.36986,3.36986,0,0,0,4.53936,1.38427l3.6983-1.97763c2.1439-1.14641,3.42657-2.44772,3.81361-3.86686C2344.9776,2481.06166,2343.52264,2478.56839,2343.52405,2478.56791Z" style="fill: #529e33"/>
      <path d="M2738.78693,1779.11946l.00171,0-3.70222.20407c-7.94127,1.34783-10.68792,4.72423-12.5875,9.84561-1.78056,8.95211-6.67417,13.05545-12.3838,14.98657l.00009.00342-34.01811.8077-.00735-.00079c-7.36846-1.78643-8.27456-11.25763-8.31315-11.705a2.522,2.522,0,0,0-5.03416.27173c.00112.05223.00419.10393.0085.15657.3687,4.3175,2.661,11.42146,8.517,14.76468a.02215.02215,0,0,1,.01115.01534c.11367.71162.28391,1.50382.43194,2.36156a.0256.0256,0,0,1-.02413.02994l-12.65491.30064a2.5158,2.5158,0,0,0-2.45222,2.58081l.006-.00016a2.51489,2.51489,0,0,0,2.58226,2.43338l12.65328-.36312a.02565.02565,0,0,1,.02566.02863c-.10286.86432-.23135,1.66435-.30768,2.38071a.02122.02122,0,0,1-.01021.0159c-5.67272,3.64583-7.58959,10.85994-7.73133,15.19108-.00155.05255-.0019.10433-.00028.1568a2.522,2.522,0,0,0,5.04147.00723c.01509-.4488.42349-9.95423,7.68817-12.12469l.0073-.00117,34.01368-.97633.00009.00317c5.803,1.62918,10.905,5.47036,13.15234,14.31683,2.16543,5.015,5.08529,8.2428,13.08629,9.17226l3.7077.00973-.00171,0c-.00016-.00146,2.88649.023,4.5069-1.59771,1.03948-1.0408,1.53185-2.80041,1.462-5.23056l-.12044-4.19189a3.37014,3.37014,0,0,0-3.45609-3.25255l-.01538.00041a8.16691,8.16691,0,0,1-5.75278-1.80463,7.87006,7.87006,0,0,1-2.54739-5.997l-.29369-10.2297-.0044.00011-.24264-10.21541a7.869,7.869,0,0,1,2.22966-6.12209,8.166,8.166,0,0,1,5.65015-2.10393l.01538-.00041a3.36986,3.36986,0,0,0,3.28085-3.429l-.09946-4.19268c-.05764-2.43048-.64156-4.16186-1.73417-5.14673C2741.66812,1778.94523,2738.78673,1779.12093,2738.78693,1779.11946Z" style="fill: #529e33"/>
      <path d="M2738.78693,1176.32119l.00171,0-3.70222.20407c-7.94127,1.34783-10.68792,4.72422-12.5875,9.84561-1.78056,8.95211-6.67417,13.05545-12.3838,14.98657l.00009.00342-34.01811.8077-.00735-.00079c-7.36846-1.78643-8.27456-11.25763-8.31315-11.705a2.522,2.522,0,0,0-5.03416.27173c.00112.05223.00419.10393.0085.15657.3687,4.3175,2.661,11.42146,8.517,14.76468a.02213.02213,0,0,1,.01115.01534c.11367.71162.28391,1.50381.43194,2.36156a.0256.0256,0,0,1-.02413.02994l-12.65491.30064a2.5158,2.5158,0,0,0-2.45222,2.5808l.006-.00015a2.51488,2.51488,0,0,0,2.58226,2.43337l12.65328-.36312a.02567.02567,0,0,1,.02566.02864c-.10286.86432-.23135,1.66435-.30768,2.38071a.02122.02122,0,0,1-.01021.0159c-5.67272,3.64583-7.58959,10.85994-7.73133,15.19108-.00155.05254-.0019.10433-.00028.15679a2.522,2.522,0,0,0,5.04147.00723c.01509-.44879.42349-9.95422,7.68817-12.12468l.0073-.00117,34.01368-.97634.00009.00318c5.803,1.62917,10.905,5.47036,13.15234,14.31683,2.16543,5.015,5.08529,8.24279,13.08629,9.17226l3.7077.00973-.00171,0c-.00016-.00146,2.88649.023,4.5069-1.59772,1.03948-1.04079,1.53185-2.8004,1.462-5.23055l-.12044-4.19189a3.37014,3.37014,0,0,0-3.45609-3.25255l-.01538.00041a8.16691,8.16691,0,0,1-5.75278-1.80463,7.87006,7.87006,0,0,1-2.54739-5.997l-.29369-10.22971-.0044.00012-.24264-10.21541a7.869,7.869,0,0,1,2.22966-6.12209,8.166,8.166,0,0,1,5.65015-2.10394l.01538-.0004a3.36986,3.36986,0,0,0,3.28085-3.429l-.09946-4.19268c-.05764-2.43048-.64156-4.16186-1.73417-5.14674C2741.66812,1176.147,2738.78673,1176.32266,2738.78693,1176.32119Z" style="fill: #529e33"/>
      <path d="M1863.65349,2758.16957l.00081.0015-1.85007-3.2133c-4.7809-6.48255-9.03264-7.41359-14.46065-6.80226-8.79435,2.44336-14.66231-.07694-18.9586-4.30436l-.003.00162-16.0465-30.00656-.00261-.00691c-1.72467-7.38316,6.32276-12.459,6.70478-12.695a2.522,2.522,0,0,0-2.51052-4.37194c-.04612.02454-.09089.05056-.13595.07813-3.68844,2.27422-8.998,7.52108-9.34454,14.25533a.02216.02216,0,0,1-.00867.01686c-.58411.42207-1.21466.93095-1.91375,1.44952a.02559.02559,0,0,1-.03759-.008l-5.96954-11.16252a2.51581,2.51581,0,0,0-3.40882-1.02661l.00284.00527a2.5149,2.5149,0,0,0-1.00913,3.40163l6.02458,11.13291a.02566.02566,0,0,1-.014.03581c-.818.29755-1.59011.54327-2.264.79784a.02119.02119,0,0,1-.01879-.002c-5.8105-3.422-13.11463-1.88329-17.0452-.05863-.04762.02229-.094.04531-.14012.07039a2.522,2.522,0,0,0,2.26477,4.50415c.40747-.18871,9.07765-4.10637,14.28817,1.40153l.00433.006,16.19506,29.92663-.00279.00151c1.15981,5.91472.029,12.20011-6.85645,18.19189-3.50173,4.19254-5.068,8.25345-2.29327,15.81525l1.66166,3.31452-.00081-.0015c.00123-.00081,1.27988,2.58731,3.45679,3.30385,1.39748.45913,3.19023.106,5.32834-1.05117l3.68814-1.996a3.37013,3.37013,0,0,0,1.34679-4.5508l-.00728-.01354a8.16684,8.16684,0,0,1-.98055-5.94893,7.87,7.87,0,0,1,4.20637-4.976l9.00049-4.87076-.00208-.00387,9.01073-4.81874a7.869,7.869,0,0,1,6.47011-.76747,8.166,8.166,0,0,1,4.42377,4.09646l.00729.01355a3.36986,3.36986,0,0,0,4.53936,1.38427l3.6983-1.97763c2.1439-1.14641,3.42656-2.44772,3.81361-3.86686C1865.107,2760.66332,1863.65208,2758.17005,1863.65349,2758.16957Z" style="fill: #529e33"/>
    </g>
    <g style="clip-path: url(#a1881c39-fcf9-40c6-9e76-9a4db77a4c40)">
      <g>
        <path d="M4556.53172,355.01871V-441.99487a574.74208,574.74208,0,0,0-287.371-497.74124l-690.234-398.50679a574.7421,574.7421,0,0,0-574.74208,0l-690.234,398.50679a574.74208,574.74208,0,0,0-287.371,497.74124V355.01871a574.74206,574.74206,0,0,0,287.371,497.74123l690.234,398.50679a574.7421,574.7421,0,0,0,574.74208,0l690.234-398.50679A574.74206,574.74206,0,0,0,4556.53172,355.01871Z" style="fill: #d1e2a4;stroke: #a7cc6b;stroke-miterlimit: 10;stroke-width: 18px"/>
        <g>
          <path d="M3787.42234,209.63956c-1.06445,0-2.14453-.04883-3.21191-.14453a34.978,34.978,0,0,1-27.959-50.71387,6.92542,6.92542,0,0,1,.26269-.70605q.90381-2.083,1.79395-4.17188A475.61167,475.61167,0,0,0,3795.08445-3.28524a19.82355,19.82355,0,0,0-5.28418-14.771,19.9234,19.9234,0,0,0-14.38769-6.45166l-.72852-.01025A20.11329,20.11329,0,0,0,3754.685-5.7955a444.45762,444.45762,0,0,1-7.03906,54.11768,34.97891,34.97891,0,0,1-69.91211-1.791c0-1.11133.05566-2.23437.165-3.36133a6.9859,6.9859,0,0,1-.01953-2.9414,367.18015,367.18015,0,0,0,1.60449-142.71631,34.86572,34.86572,0,0,1-1.415-15.79785,35.22076,35.22076,0,0,1,30.96387-29.92188,36.27212,36.27212,0,0,1,3.68457-.18994,34.937,34.937,0,0,1,34.00293,26.77344,6.9512,6.9512,0,0,1,.62207,1.80273c2.69629,13.60791,4.76464,27.48,6.14746,41.23145a19.99443,19.99443,0,0,0,19.96484,18.03613l.207-.00146a19.62809,19.62809,0,0,0,14.6416-6.56934,20.92923,20.92923,0,0,0,5.05274-16.10254,475.50185,475.50185,0,0,0-35.04883-136.11181,477.94283,477.94283,0,0,0-102.76855-152.417l-.40625-.40527a20.04849,20.04849,0,0,0-14.27637-5.91748,20.24872,20.24872,0,0,0-14.41211,5.9707,20.09609,20.09609,0,0,0-5.92774,14.40528,20.44693,20.44693,0,0,0,6.05664,14.45947l.22657.22607a438.21971,438.21971,0,0,1,81.27246,111.9795,34.96326,34.96326,0,0,1,1.62305,27.731,35.116,35.116,0,0,1-19.24317,20.20215,34.84154,34.84154,0,0,1-13.62988,2.76709,34.6356,34.6356,0,0,1-31.06641-18.99561,367.37883,367.37883,0,0,0-35.46094-56.4541,26.67622,26.67622,0,0,0-21.36035-10.59668,26.3591,26.3591,0,0,0-18.6914,7.72461c-9.38282,9.32569-10.28516,24.55078-2.09961,35.41553a318.99933,318.99933,0,0,1,45,83.10645c6.4248,17.67871-1.75293,37.28564-18.61817,44.6372a34.90968,34.90968,0,0,1-14.02734,2.9419,35.08271,35.08271,0,0,1-32.63184-22.38135,6.8549,6.8549,0,0,1-.30761-.72314,246.47948,246.47948,0,0,0-127.89942-140.355c-3.99414-1.87548-8.2334-3.72363-12.59961-5.49267a7.013,7.013,0,0,1-1.1123-.56983,34.709,34.709,0,0,1-19.998-22.80615,35.06021,35.06021,0,0,1,19.69922-41.42822,34.90724,34.90724,0,0,1,14.00391-2.93262,34.89219,34.89219,0,0,1,9.60058,1.34815,6.89364,6.89364,0,0,1,1.14942.34277l.18261.07324a35.26483,35.26483,0,0,1,4.209,1.69629c5.06054,2.07276,9.97949,4.229,14.623,6.41016a321.15839,321.15839,0,0,1,58.16993,35.2583,25.18141,25.18141,0,0,0,15.40136,5.19092,25.72022,25.72022,0,0,0,18.4668-7.74366c.02832-.0288.05664-.05712.08594-.08544a26.63488,26.63488,0,0,0,7.92383-20.70362,26.544,26.544,0,0,0-10.4336-19.47217c-64.2539-48.814-141.2041-74.61523-222.53222-74.61523A368.33706,368.33706,0,0,0,3188.439-378.81161a365.921,365.921,0,0,0-132.74317,85.292,365.76309,365.76309,0,0,0-85.89844,134.40039,24.81084,24.81084,0,0,0,1.79,20.854,24.8092,24.8092,0,0,0,17.082,12.0957l1.05567.19385a24.9189,24.9189,0,0,0,4.48633.41015,25.10367,25.10367,0,0,0,23.42871-16.5581c1.52636-4.18506,3.16015-8.38281,4.86035-12.4834a35.13825,35.13825,0,0,1,33.49316-24.88623q.91552,0,1.84082.04736a34.92941,34.92941,0,0,1,33.07129,32.68164,35.11746,35.11746,0,0,1-2.63965,15.75293,7.02061,7.02061,0,0,1-.49707,1.86572A246.8,246.8,0,0,0,3068.397-32.71688a7.047,7.047,0,0,1-.043.77734,35.02454,35.02454,0,0,1-34.9746,34.20508c-.793,0-1.59864-.02686-2.39454-.08008-18.3164-1.22656-32.62988-16.88184-32.58691-35.64014.02148-9.81933.5-19.74853,1.42188-29.51172a24.70442,24.70442,0,0,0-20.24708-26.76416l-1.03515-.18994a25.2238,25.2238,0,0,0-4.541-.416,24.63221,24.63221,0,0,0-24.6748,22.36084c-1.09668,11.6333-1.65332,23.49658-1.65332,35.25879a7.0494,7.0494,0,0,1-.043.77734A35.02562,35.02562,0,0,1,2912.65086,2.266c-.80273,0-1.61719-.02784-2.42188-.08252-18.28515-1.23877-32.58691-16.84522-32.55957-35.5293a436.09026,436.09026,0,0,1,34.499-170.19482,437.29522,437.29522,0,0,1,94.03125-139.47657c25.05371-25.0542,48.05176-42.10986,79.30859-63.10351,14.9082-10.0127,7.96192-25.79834,6.418-28.86084q-.123-.2461-.22754-.50049c-3.09961-7.57568-9.46094-9.166-14.251-9.166a22.01387,22.01387,0,0,0-10.76855,2.76953c-32.84082,19.45508-59.52246,40.42627-89.21875,70.12256a478.06492,478.06492,0,0,0-99.625,145.16748q-.13331.301-.29.5835a34.99411,34.99411,0,0,1-32.65039,22.42236c-.53125,0-1.06738-.01172-1.60449-.03564a35.18715,35.18715,0,0,1-33.34473-33.41358,35.03854,35.03854,0,0,1,3.46192-16.78271,7.09447,7.09447,0,0,1,.32324-.89258,547.813,547.813,0,0,1,114.23144-166.54639,547.59292,547.59292,0,0,1,174.64551-117.74218,545.948,545.948,0,0,1,209.875-43.16455l.04981-.00293c.19043-.00635.38086-.01123.57324-.01123.10351,0,.39746.0039.39746.0039s.375-.0039.38281-.0039a7.02053,7.02053,0,0,1,.77246.04248,34.787,34.787,0,0,1,33.43067,34.93994,34.78351,34.78351,0,0,1-33.04786,34.92138,6.94987,6.94987,0,0,1-1.04492.09522c-74.67871,1.17871-136.74316,19.35059-175.6582,34.3877a20.95961,20.95961,0,0,0-12.14648,12.15722,20.9377,20.9377,0,0,0,.53125,16.49512,7.16439,7.16439,0,0,1,.499.83887c2.22754,4.41992,8.10156,9.58154,17.32031,9.58154a32.6582,32.6582,0,0,0,11.31152-2.22119l6.335-2.437c56.03125-23.68164,97.47168-28.17432,154.30957-28.17432a436.124,436.124,0,0,1,170.82324,34.49951,438.10923,438.10923,0,0,1,82.71,46.08594,20.69413,20.69413,0,0,0,12.03418,3.85107,20.28331,20.28331,0,0,0,14.36621-5.89941c.01953-.01953.04-.03858.05957-.05762a20.20864,20.20864,0,0,0,5.88477-15.98535,20.07727,20.07727,0,0,0-8.38379-14.769,478.80034,478.80034,0,0,0-88.418-49.64746,7.04362,7.04362,0,0,1-1.14453-.624,34.877,34.877,0,0,1-19.84082-32.34668,35.119,35.119,0,0,1,33.03613-34.12451q.97411-.05273,1.93652-.05273a35.082,35.082,0,0,1,15.77832,3.76318,547.66653,547.66653,0,0,1,169.69434,115.60107,547.59735,547.59735,0,0,1,117.74316,174.646,546.07466,546.07466,0,0,1,43.19434,213.89063,546.07165,546.07165,0,0,1-43.19434,213.88964q-1.04589,2.47413-2.12207,4.93457a7.11177,7.11177,0,0,1-.54394,1.01661A34.869,34.869,0,0,1,3787.42234,209.63956Z" style="fill: #a7cc6b"/>
          <path d="M3313.88633-575.17456v.01969a27.97706,27.97706,0,0,1,27.20252,27.963,27.97682,27.97682,0,0,1-27.20252,27.96284v.05451c-78.35608,1.23666-142.8883,21.26266-178.07141,34.857a28.1995,28.1995,0,0,0-15.02026,39l.17688.17167c3.4021,6.75015,11.57361,13.4307,23.57043,13.4307a39.44,39.44,0,0,0,13.75122-2.66l6.51258-2.50484c53.25683-22.52533,93.40857-27.66732,151.69275-27.66732a429.15929,429.15929,0,0,1,168.09668,33.94665,429.70392,429.70392,0,0,1,81.386,45.34784,27.75626,27.75626,0,0,0,16.085,5.142,27.336,27.336,0,0,0,19.29322-7.92612l.01294-.01283a27.20052,27.20052,0,0,0-3.32251-41.47667,484.239,484.239,0,0,0-89.71241-50.37516l.03662-.0835a27.98285,27.98285,0,0,1-16.7871-26.297,28.14714,28.14714,0,0,1,26.41943-27.29283q.78333-.04269,1.5564-.04248a27.85171,27.85171,0,0,1,12.79077,3.09732,540.5882,540.5882,0,0,1,167.73193,114.21649,540.63937,540.63937,0,0,1,116.24512,172.42334,539.10077,539.10077,0,0,1,42.6416,211.1635,539.10158,539.10158,0,0,1-42.6416,211.16317q-1.03346,2.4435-2.095,4.87134l-.177-.07751a27.98975,27.98975,0,0,1-26.636,19.39981q-1.27991,0-2.58618-.11631a27.97816,27.97816,0,0,1-21.78418-41.613l-.11621-.05084q.91626-2.11025,1.81836-4.228A481.98071,481.98071,0,0,0,3802.07225-2.86587a27.05953,27.05953,0,0,0-26.53223-28.641l-.34717-.00633c-.16992-.00314-.33887-.0047-.5083-.0047a27.05886,27.05886,0,0,0-26.98389,25.25153,435.36918,435.36918,0,0,1-7.02661,53.76965,27.97843,27.97843,0,1,1-55.52319-5.76648l-.41748-.08667a375.28054,375.28054,0,0,0,1.54-145.91034,28.04452,28.04452,0,0,1-1.26978-13.07016,28.02518,28.02518,0,0,1,24.74536-23.914,28.93678,28.93678,0,0,1,2.96705-.153,27.98719,27.98719,0,0,1,27.52832,22.98252l.23217-.046q4.00416,20.21352,6.04834,40.571A27.04949,27.04949,0,0,0,3773.45335-53.554c.09253,0,.18555-.00047.27808-.00141,16.29223-.16383,28.27392-14.19116,26.58691-30.39683a481.48071,481.48071,0,0,0-35.564-138.11383,484.90758,484.90758,0,0,0-104.26661-154.63966q-.23217-.23226-.46484-.46434a27.03864,27.03864,0,0,0-19.1665-7.90859,27.31742,27.31742,0,0,0-19.363,8.02093l-.00024.00016a27.37737,27.37737,0,0,0,.13378,38.768l.22217.222a430.57818,430.57818,0,0,1,79.97754,110.19284,27.93822,27.93822,0,0,1-14.09863,38.32183v.00017a27.97494,27.97494,0,0,1-10.90625,2.21541,27.78322,27.78322,0,0,1-24.82324-15.16292,373.3224,373.3224,0,0,0-36.13868-57.53266,33.763,33.763,0,0,0-26.92578-13.35067,33.34925,33.34925,0,0,0-23.62549,9.75933c-12.00561,11.932-12.94165,31.074-2.75585,44.59267a311.94908,311.94908,0,0,1,44.01123,81.28517c5.08837,13.99916-1.18164,29.87784-14.83594,35.8295a28.03676,28.03676,0,0,1-11.23023,2.35892,27.9943,27.9943,0,0,1-26.323-18.49225l-.03272.01166a253.434,253.434,0,0,0-131.50757-144.315q-6.41913-3.015-12.94751-5.64483l.036-.106a27.92334,27.92334,0,0,1-17.033-18.66884,28.08826,28.08826,0,0,1,15.75061-33.12266,28.03008,28.03008,0,0,1,11.21143-2.35117,27.92651,27.92651,0,0,1,8.167,1.2235l.00818-.02316c.121.04766.24158.098.36267.14583a28.14766,28.14766,0,0,1,3.74854,1.509q7.303,2.9865,14.50268,6.35116a313.41,313.41,0,0,1,56.90015,34.48784,32.2905,32.2905,0,0,0,19.64673,6.62569,32.87984,32.87984,0,0,0,23.45679-9.83486,33.618,33.618,0,0,0-3.1792-50.74416c-64.94336-49.33751-143.80262-76.04117-226.76709-76.04117A375.93921,375.93921,0,0,0,3186.013-385.37822a374.67443,374.67443,0,0,0-135.26648,86.90884,374.5823,374.5823,0,0,0-87.527,136.9565,31.86019,31.86019,0,0,0,24.18615,42.22849l1.05762.194a31.81541,31.81541,0,0,0,5.74878.52513,32.03034,32.03034,0,0,0,30.00439-21.16q2.307-6.326,4.89246-12.54283a27.98774,27.98774,0,0,1,26.88489-20.22518q.73517,0,1.48.03818a28.10382,28.10382,0,0,1,26.44507,26.13384,27.90688,27.90688,0,0,1-2.90393,14.33649l.30371.119a254.63331,254.63331,0,0,0-19.92188,99.14884h-.03467A27.98218,27.98218,0,0,1,3033.37962-4.7344q-.95618,0-1.92725-.06464c-14.84277-.994-26.08838-13.76333-26.05468-28.63934q.033-14.551,1.39135-28.87033a31.838,31.838,0,0,0-25.953-34.30684l-1.03479-.19a32.12769,32.12769,0,0,0-5.8053-.53084,31.782,31.782,0,0,0-31.64306,28.70367q-1.6778,17.79726-1.68457,35.91584h-.03455a27.982,27.982,0,0,1-27.98254,27.98251q-.96681,0-1.94947-.06619c-14.78576-1.00165-26.05334-13.71549-26.03283-28.535a429.12464,429.12464,0,0,1,33.94677-167.478,430.34018,430.34018,0,0,1,92.53321-137.254c25.55786-25.55783,48.657-42.35817,78.262-62.24217,16.78223-11.27167,13.25269-28.92216,8.76685-37.82266-4.08326-9.98126-12.56434-13.51566-20.73047-13.51566a29.03342,29.03342,0,0,0-14.33692,3.74683c-34.89367,20.67216-61.52612,42.12116-90.6001,71.1955A484.87294,484.87294,0,0,0,2871.43382-229.42l-.08032-.03516a27.98714,27.98714,0,0,1-26.45764,18.87289c-.42762,0-.85889-.00965-1.29078-.02906a28.14282,28.14282,0,0,1-26.66565-26.72133,27.89827,27.89827,0,0,1,3.31177-14.494l-.1167-.051a540.60731,540.60731,0,0,1,112.77808-164.426,540.6232,540.6232,0,0,1,172.42175-116.24516,538.88585,538.88585,0,0,1,207.198-42.61118c.19153-.00382.38159-.0145.5741-.0145.07776,0,.15429.00534.23217.00583.18274-.001.365-.005.54773-.00583m-.7799-14c-.27637,0-.55066.00666-.82483.01593a552.88247,552.88247,0,0,0-212.40088,43.71576A554.55817,554.55817,0,0,0,2923.013-426.20321a554.76078,554.76078,0,0,0-115.68432,168.6675q-.24756.56019-.44385,1.136a42.056,42.056,0,0,0-3.93262,19.66782,42.235,42.235,0,0,0,40.02393,40.10634c.63281.02866,1.27966.04315,1.91968.04315a41.996,41.996,0,0,0,39.02856-26.51334q.16406-.32457.313-.66115a471.10891,471.10891,0,0,1,98.17224-143.04934c29.64807-29.64833,55.09607-49.65349,87.83655-69.05a15.09074,15.09074,0,0,1,7.20117-1.79184c5.80237,0,7.13318,3.253,7.7727,4.81633q.208.509.45569,1.00033a20.497,20.497,0,0,1,2.156,10.40517c-.22986,2.435-1.12537,6.06834-6.22669,9.49451-31.61523,21.23416-54.89892,38.508-80.35571,63.96466a444.277,444.277,0,0,0-95.52771,141.69983A443.0634,443.0634,0,0,0,2870.66893-33.355c-.03089,22.3575,17.13794,41.0355,39.08642,42.5225.96131.06516,1.93567.09818,2.89588.09818a42.03107,42.03107,0,0,0,41.96533-40.77216q.05145-.59833.05176-1.21035c0-11.53817.546-23.18,1.62268-34.60184a17.87847,17.87847,0,0,1,17.70483-16.01766,18.19745,18.19745,0,0,1,3.27783.30083l1.03418.18984a17.74254,17.74254,0,0,1,14.54322,19.22116c-.94166,9.97416-1.43055,20.1195-1.45337,30.15434-.05066,22.43784,17.13256,41.16748,39.11914,42.63983.95007.06366,1.91333.096,2.86267.096A42.031,42.031,0,0,0,3075.345-31.50653q.05164-.59833.05188-1.21035a239.84211,239.84211,0,0,1,18.8219-93.709,13.99188,13.99188,0,0,0,.8219-2.66317,42.12628,42.12628,0,0,0,2.85022-18.11683,41.86081,41.86081,0,0,0-12.41443-27.13817,41.865,41.865,0,0,0-27.28259-12.0925c-.73181-.03767-1.47168-.05666-2.2-.05666a42.17618,42.17618,0,0,0-40.08838,29.51688c-1.69238,4.09522-3.3197,8.2816-4.84168,12.45445a18.07946,18.07946,0,0,1-16.8518,11.95667,17.89185,17.89185,0,0,1-3.22058-.295l-1.05994-.1945a17.82282,17.82282,0,0,1-12.26965-8.68933,17.82423,17.82423,0,0,1-1.28614-14.98184,358.80974,358.80974,0,0,1,84.27039-131.844,358.97633,358.97633,0,0,1,130.21814-83.67567,361.35466,361.35466,0,0,1,125.63428-22.30183,362.28388,362.28388,0,0,1,115.68042,18.78917,357.84534,357.84534,0,0,1,102.61767,54.39983,19.28939,19.28939,0,0,1,7.6814,14.34083,19.63976,19.63976,0,0,1-5.842,15.26633q-.08643.08477-.17115.17084a18.76951,18.76951,0,0,1-13.4768,5.65316,18.23876,18.23876,0,0,1-11.15576-3.75683,328.20047,328.20047,0,0,0-59.43946-36.0285c-4.68506-2.20079-9.65039-4.379-14.76342-6.47713a42.322,42.322,0,0,0-4.63892-1.86993l-.032-.01277a13.99436,13.99436,0,0,0-2.0149-.62312,41.873,41.873,0,0,0-11.29138-1.55155,41.863,41.863,0,0,0-16.79785,3.514,42.088,42.088,0,0,0-23.64612,49.7335,41.63082,41.63082,0,0,0,23.55066,27.16835,14.1064,14.1064,0,0,0,1.671.80832c4.25452,1.72367,8.37683,3.52066,12.25293,5.34116a239.52525,239.52525,0,0,1,124.29029,136.395q.20946.57994.46337,1.12934a42.10292,42.10292,0,0,0,39.06128,26.59948A41.86735,41.86735,0,0,0,3597.322-89.083c20.24634-8.825,30.08545-32.30133,22.39966-53.446a326.00963,326.00963,0,0,0-45.98755-84.92733c-6.09228-8.0855-5.47168-19.36534,1.44336-26.238a19.40125,19.40125,0,0,1,13.75659-5.68917,19.72892,19.72892,0,0,1,15.79468,7.84167,360.4073,360.4073,0,0,1,34.78442,55.37549,41.60178,41.60178,0,0,0,37.3086,22.829,41.80171,41.80171,0,0,0,16.35473-3.31917,42.14071,42.14071,0,0,0,23.0918-24.244,41.98561,41.98561,0,0,0-1.95215-33.30016A445.20749,445.20749,0,0,0,3631.74852-347.967l-.14209-.14217-.08008-.07983a13.50229,13.50229,0,0,1-4.01074-9.546,13.14785,13.14785,0,0,1,3.87719-9.423,13.29614,13.29614,0,0,1,9.46363-3.92067,13.05044,13.05044,0,0,1,9.28027,3.82134l.44629.44583a470.98318,470.98318,0,0,1,101.27734,150.19933,468.50364,468.50364,0,0,1,34.53321,134.10951,13.73036,13.73036,0,0,1-3.31373,10.71783,12.70971,12.70971,0,0,1-9.48925,4.23017l-.13721.00067a13.01492,13.01492,0,0,1-12.99878-11.73685c-1.40527-13.97316-3.50659-28.06715-6.24487-41.89049a14.00151,14.00151,0,0,0-.85572-2.77279,41.93571,41.93571,0,0,0-40.637-31.44321,43.16008,43.16008,0,0,0-4.40039.2265,42.01724,42.01724,0,0,0-24.772,11.571,42.03183,42.03183,0,0,0-12.40967,24.358,41.78708,41.78708,0,0,0,1.54907,18.47631,360.24822,360.24822,0,0,1-1.65869,139.57151,13.97873,13.97873,0,0,0-.17749,4.66062c-.07617,1.02578-.1145,2.04913-.1145,3.06472a41.97908,41.97908,0,0,0,83.87427,2.65619,451.30135,451.30135,0,0,0,7.06128-54.51153,13.09432,13.09432,0,0,1,13.01562-12.19382l.24756.00217.35254.0065a12.98516,12.98516,0,0,1,9.37573,4.20483,12.884,12.884,0,0,1,3.437,9.59934,468.63942,468.63942,0,0,1-36.2373,154.88314c-.58032,1.3722-1.17236,2.73917-1.76587,4.10584q-.16809.38754-.31152.77942a42.01855,42.01855,0,0,0,33.80224,60.40427c1.27515.11431,2.56616.17233,3.83765.17233a41.84714,41.84714,0,0,0,39.00268-26.43662,14.06069,14.06069,0,0,0,.65064-1.30673q1.08362-2.49348,2.14868-4.99667a553.02269,553.02269,0,0,0,43.74756-216.61682,553.02406,553.02406,0,0,0-43.74756-216.61734,554.57406,554.57406,0,0,0-119.23975-176.869A554.67049,554.67049,0,0,0,3538.3115-543.19589a42.12389,42.12389,0,0,0-18.74877-4.42166c-.76929,0-1.54957.02133-2.31934.06332a42.15271,42.15271,0,0,0-39.65308,40.956,41.84808,41.84808,0,0,0,23.41773,38.62467,13.98485,13.98485,0,0,0,1.80469.93567,471.7775,471.7775,0,0,1,87.12255,48.92,12.9582,12.9582,0,0,1,5.46436,9.63267,13.08167,13.08167,0,0,1-3.87988,10.48917,13.33852,13.33852,0,0,1-9.45362,3.88517,13.73323,13.73323,0,0,1-7.98413-2.56017,445.09554,445.09554,0,0,0-84.0332-46.82367,443.08189,443.08189,0,0,0-173.55029-35.05265c-33.24036,0-57.193,1.67082-80.09168,5.587-25.40076,4.34407-49.82361,11.68446-76.84131,23.09594l-6.225,2.39423a25.65652,25.65652,0,0,1-8.79846,1.755c-7.9502,0-10.77308-5.145-11.06873-5.73183q-.267-.52977-.57751-1.0343a14.0192,14.0192,0,0,1-.17151-10.6337,14.04215,14.04215,0,0,1,8.13647-8.14351,508.83,508.83,0,0,1,70.889-21.46666,500.86624,500.86624,0,0,1,102.35754-12.451,14.13833,14.13833,0,0,0,1.68238-.12691,41.747,41.747,0,0,0,27.38147-12.59175,41.742,41.742,0,0,0,11.9176-29.297,41.74239,41.74239,0,0,0-11.9176-29.297,41.75122,41.75122,0,0,0-28.006-12.62674q-.63519-.05859-1.27917-.0589l-.0636.00016-.37146.00366c-.11536-.0025-.22974-.00385-.3446-.00385Z" style="fill: #516e7d"/>
        </g>
      </g>
    </g>
  </g>
</svg>
